{"glyphs":{"0":{"ha":736,"x_min":47,"x_max":689,"o":"m 47 492 q 64 681 47 592 q 118 839 81 771 q 217 946 156 907 q 368 985 279 985 q 519 946 458 985 q 618 839 581 907 q 672 681 656 771 q 689 492 689 592 q 658 239 689 350 q 558 64 628 128 q 368 0 488 0 q 178 64 249 0 q 78 239 108 128 q 47 492 47 350 m 536 492 q 531 635 536 561 q 510 772 526 708 q 459 874 493 835 q 368 914 425 914 q 277 874 311 914 q 226 772 243 835 q 205 635 210 708 q 200 492 200 561 q 205 338 200 413 q 226 202 210 263 q 277 106 243 142 q 368 71 311 71 q 459 106 425 71 q 510 202 493 142 q 531 338 526 263 q 536 492 536 413 z "},"1":{"ha":736,"x_min":104,"x_max":650,"o":"m 174 831 q 140 824 157 824 q 113 837 122 824 q 104 864 104 850 q 110 881 104 872 q 133 894 115 889 l 329 971 q 369 981 349 978 q 404 985 389 985 q 475 915 475 985 l 475 74 l 594 74 q 640 61 631 74 q 650 33 650 49 q 643 10 650 21 q 608 0 636 0 l 194 0 q 160 10 168 0 q 153 33 153 21 q 163 61 153 49 q 208 74 174 74 l 328 74 l 328 889 l 174 831 z "},"2":{"ha":736,"x_min":49,"x_max":660,"o":"m 125 688 q 65 757 65 688 l 65 840 q 72 876 65 865 q 97 899 79 888 q 236 966 171 947 q 378 985 301 985 q 534 950 475 985 q 620 859 593 915 q 647 738 647 803 q 624 606 647 675 q 547 456 601 536 q 399 282 492 376 q 164 74 306 188 l 526 74 l 526 160 q 546 230 526 210 q 600 250 565 250 q 660 181 660 250 l 660 44 q 638 10 660 19 q 576 0 617 0 l 83 0 q 57 12 65 0 q 49 39 49 24 q 69 86 49 68 l 89 104 q 308 333 226 232 q 428 510 389 435 q 478 636 467 585 q 490 717 490 688 q 478 803 490 757 q 433 881 467 849 q 333 914 400 914 q 265 904 300 914 q 199 878 231 894 l 199 778 q 182 708 199 728 q 125 688 165 688 z "},"3":{"ha":736,"x_min":42,"x_max":661,"o":"m 101 296 q 158 276 142 296 q 175 206 175 256 l 175 106 q 242 79 207 88 q 317 71 276 71 q 410 92 368 71 q 479 160 453 114 q 506 279 506 206 q 479 401 506 358 q 407 459 453 443 q 301 475 361 475 l 261 475 q 245 487 251 475 q 239 513 239 499 q 245 540 239 528 q 261 551 251 551 l 301 551 q 476 746 476 551 q 431 875 476 836 q 318 914 386 914 q 189 881 249 914 l 189 781 q 172 710 189 731 q 115 690 156 690 q 56 760 56 690 l 56 843 q 63 881 56 868 q 88 906 69 894 q 216 966 153 947 q 353 985 279 985 q 512 953 451 985 q 601 867 572 921 q 629 746 629 814 q 605 640 629 686 q 540 566 581 594 q 454 528 500 538 l 454 515 q 558 482 511 508 q 633 406 606 456 q 661 281 661 357 q 620 133 661 196 q 506 35 579 69 q 333 0 432 0 q 203 17 269 0 q 74 72 138 35 q 49 101 56 83 q 42 143 42 118 l 42 226 q 101 296 42 296 z "},"4":{"ha":736,"x_min":-10,"x_max":722,"o":"m 433 74 l 433 240 l 29 240 q -1 250 7 240 q -10 274 -10 260 q -6 292 -10 283 q 0 307 -3 301 l 413 933 q 458 974 432 963 q 510 985 483 985 q 581 915 581 985 l 581 314 l 667 314 q 713 301 703 314 q 722 274 722 289 q 715 251 722 261 q 681 240 708 240 l 581 240 l 581 74 l 660 74 q 706 61 696 74 q 715 33 715 49 q 708 10 715 21 q 674 0 701 0 l 313 0 q 278 10 286 0 q 271 33 271 21 q 281 61 271 49 q 326 74 292 74 l 433 74 m 433 803 l 107 314 l 433 314 l 433 803 z "},"5":{"ha":736,"x_min":78,"x_max":664,"o":"m 247 861 l 225 574 q 322 628 271 618 q 404 639 374 639 q 538 611 479 639 q 631 518 597 583 q 664 340 664 453 q 647 225 664 285 q 593 114 631 165 q 494 31 556 63 q 342 0 432 0 q 224 12 282 0 q 110 57 167 24 q 85 85 92 68 q 78 128 78 103 l 78 190 q 138 260 78 260 q 194 240 178 260 q 211 169 211 219 l 211 90 q 265 74 239 78 q 335 71 292 71 q 458 138 408 71 q 508 332 508 206 q 484 468 508 421 q 423 533 460 515 q 350 550 386 550 q 268 530 306 550 q 210 476 231 510 q 184 454 199 460 q 153 449 169 449 q 124 458 135 449 q 114 492 114 468 l 146 944 q 194 985 147 985 l 601 985 q 642 965 635 985 q 649 931 649 946 q 635 885 649 910 q 586 861 621 861 l 247 861 z "},"6":{"ha":736,"x_min":69,"x_max":681,"o":"m 586 746 q 530 765 547 746 q 513 832 513 785 l 513 900 q 469 912 490 910 q 426 914 447 914 q 355 897 392 914 q 288 841 318 881 q 238 732 257 801 q 218 558 218 663 l 218 500 q 311 596 251 569 q 426 622 371 622 q 617 539 553 622 q 681 324 681 456 q 599 86 681 172 q 386 0 518 0 q 226 37 288 0 q 130 136 164 74 q 83 277 96 199 q 69 438 69 356 q 99 716 69 608 q 178 882 128 824 q 290 963 228 940 q 421 985 353 985 q 514 976 474 985 q 589 954 554 967 q 627 933 608 947 q 646 883 646 918 l 646 813 q 586 746 646 746 m 386 533 q 276 476 324 533 q 229 313 229 419 q 236 235 229 276 q 260 156 243 193 q 306 94 276 118 q 382 71 336 71 q 490 131 450 71 q 529 325 529 190 q 490 487 529 440 q 386 533 451 533 z "},"7":{"ha":736,"x_min":56,"x_max":672,"o":"m 56 933 q 77 975 56 965 q 139 985 99 985 l 621 985 q 661 970 650 985 q 672 936 672 956 q 668 908 672 922 q 657 882 664 893 q 513 606 568 739 q 427 345 458 472 q 375 93 396 218 q 367 44 371 65 q 347 12 363 24 q 289 0 331 0 q 225 12 242 0 q 208 42 208 24 q 211 72 208 53 q 226 138 214 90 q 318 426 267 286 q 431 691 369 567 q 560 911 492 815 l 189 911 l 189 832 q 172 762 189 782 q 115 742 156 742 q 56 811 56 742 l 56 933 z "},"8":{"ha":736,"x_min":51,"x_max":685,"o":"m 510 528 q 642 440 600 508 q 685 290 685 372 q 599 76 685 151 q 368 0 513 0 q 138 76 225 0 q 51 290 51 151 q 94 438 51 372 q 226 528 138 503 l 226 539 q 115 610 161 556 q 68 739 68 664 q 95 853 68 796 q 188 947 122 910 q 368 985 254 985 q 549 947 483 985 q 641 853 614 910 q 668 740 668 797 q 622 610 668 665 q 510 539 575 554 l 510 528 m 368 565 q 474 606 428 565 q 519 743 519 647 q 495 847 519 810 q 436 899 471 885 q 368 914 401 914 q 301 899 336 914 q 241 847 265 885 q 217 743 217 810 q 263 606 217 647 q 368 565 308 565 m 206 288 q 255 123 206 175 q 368 71 304 71 q 482 122 433 71 q 531 288 531 174 q 506 414 531 368 q 444 479 482 460 q 368 499 407 499 q 292 479 329 499 q 230 414 254 460 q 206 288 206 368 z "},"9":{"ha":736,"x_min":56,"x_max":667,"o":"m 150 239 q 207 220 190 239 q 224 153 224 201 l 224 85 q 270 73 247 75 q 314 71 293 71 q 408 103 361 71 q 486 214 454 136 q 518 426 518 292 l 518 485 q 426 390 485 417 q 311 363 368 363 q 171 402 228 363 q 85 510 114 442 q 56 665 56 578 q 95 838 56 767 q 203 947 135 910 q 360 985 272 985 q 519 950 458 985 q 611 856 579 915 q 655 719 643 796 q 667 557 667 642 q 638 281 667 390 q 558 111 608 172 q 446 25 508 50 q 315 0 383 0 q 223 9 263 0 q 147 31 183 18 q 109 52 128 38 q 90 101 90 67 l 90 172 q 150 239 90 239 m 351 451 q 460 508 414 451 q 507 672 507 565 q 501 750 507 708 q 481 829 496 792 q 438 890 467 867 q 364 914 410 914 q 251 856 296 914 q 207 664 207 799 q 247 501 207 550 q 351 451 286 451 z "},"A":{"ha":857,"x_min":21,"x_max":836,"o":"m 143 74 q 101 13 125 25 q 58 0 78 0 q 30 11 39 0 q 21 38 21 22 q 28 72 21 54 l 354 951 q 383 976 361 968 q 431 985 404 985 q 484 976 458 985 q 515 947 510 967 l 833 67 q 835 56 835 61 q 836 46 836 51 q 824 14 836 28 q 782 0 813 0 q 749 5 769 0 q 710 26 729 10 q 678 74 690 42 l 604 264 l 214 264 l 143 74 m 415 821 l 407 821 l 236 336 l 583 336 l 415 821 z "},"Á":{"ha":857,"x_min":21,"x_max":836,"o":"m 143 74 q 101 13 125 25 q 58 0 78 0 q 30 11 39 0 q 21 38 21 22 q 28 72 21 54 l 354 951 q 383 976 361 968 q 431 985 404 985 q 484 976 458 985 q 515 947 510 967 l 833 67 q 835 56 835 61 q 836 46 836 51 q 824 14 836 28 q 782 0 813 0 q 749 5 769 0 q 710 26 729 10 q 678 74 690 42 l 604 264 l 214 264 l 143 74 m 415 821 l 407 821 l 236 336 l 583 336 l 415 821 m 453 1086 q 431 1070 446 1076 q 401 1064 417 1064 q 369 1075 379 1064 q 365 1104 358 1086 l 444 1301 q 476 1329 453 1321 q 526 1338 500 1338 q 591 1324 567 1338 q 600 1290 615 1311 l 453 1086 z "},"Ă":{"ha":857,"x_min":21,"x_max":836,"o":"m 143 74 q 101 13 125 25 q 58 0 78 0 q 30 11 39 0 q 21 38 21 22 q 28 72 21 54 l 354 951 q 383 976 361 968 q 431 985 404 985 q 484 976 458 985 q 515 947 510 967 l 833 67 q 835 56 835 61 q 836 46 836 51 q 824 14 836 28 q 782 0 813 0 q 749 5 769 0 q 710 26 729 10 q 678 74 690 42 l 604 264 l 214 264 l 143 74 m 415 821 l 407 821 l 236 336 l 583 336 l 415 821 m 632 1236 q 576 1111 632 1163 q 428 1060 521 1060 q 281 1111 336 1060 q 225 1236 225 1163 q 235 1263 225 1251 q 263 1275 244 1275 q 313 1238 299 1275 q 362 1167 332 1183 q 428 1151 392 1151 q 495 1167 465 1151 q 544 1238 525 1183 q 594 1275 558 1275 q 623 1263 614 1275 q 632 1236 632 1251 z "},"Ắ":{"ha":857,"x_min":21,"x_max":836,"o":"m 143 74 q 101 13 125 25 q 58 0 78 0 q 30 11 39 0 q 21 38 21 22 q 28 72 21 54 l 354 951 q 383 976 361 968 q 431 985 404 985 q 484 976 458 985 q 515 947 510 967 l 833 67 q 835 56 835 61 q 836 46 836 51 q 824 14 836 28 q 782 0 813 0 q 749 5 769 0 q 710 26 729 10 q 678 74 690 42 l 604 264 l 214 264 l 143 74 m 415 821 l 407 821 l 236 336 l 583 336 l 415 821 m 632 1236 q 576 1111 632 1163 q 428 1060 521 1060 q 281 1111 336 1060 q 225 1236 225 1163 q 235 1263 225 1251 q 263 1275 244 1275 q 313 1238 299 1275 q 362 1167 332 1183 q 428 1151 392 1151 q 495 1167 465 1151 q 544 1238 525 1183 q 594 1275 558 1275 q 623 1263 614 1275 q 632 1236 632 1251 m 453 1251 q 431 1235 446 1242 q 401 1229 417 1229 q 369 1240 379 1229 q 365 1269 358 1251 l 444 1467 q 476 1494 453 1486 q 526 1503 500 1503 q 591 1490 567 1503 q 600 1456 615 1476 l 453 1251 z "},"Ặ":{"ha":857,"x_min":21,"x_max":836,"o":"m 143 74 q 101 13 125 25 q 58 0 78 0 q 30 11 39 0 q 21 38 21 22 q 28 72 21 54 l 354 951 q 383 976 361 968 q 431 985 404 985 q 484 976 458 985 q 515 947 510 967 l 833 67 q 835 56 835 61 q 836 46 836 51 q 824 14 836 28 q 782 0 813 0 q 749 5 769 0 q 710 26 729 10 q 678 74 690 42 l 604 264 l 214 264 l 143 74 m 415 821 l 407 821 l 236 336 l 583 336 l 415 821 m 632 1236 q 576 1111 632 1163 q 428 1060 521 1060 q 281 1111 336 1060 q 225 1236 225 1163 q 235 1263 225 1251 q 263 1275 244 1275 q 313 1238 299 1275 q 362 1167 332 1183 q 428 1151 392 1151 q 495 1167 465 1151 q 544 1238 525 1183 q 594 1275 558 1275 q 623 1263 614 1275 q 632 1236 632 1251 m 343 -182 q 369 -121 343 -146 q 429 -96 394 -96 q 490 -121 465 -96 q 515 -182 515 -146 q 490 -242 515 -217 q 429 -268 465 -268 q 369 -242 394 -268 q 343 -182 343 -217 z "},"Ằ":{"ha":857,"x_min":21,"x_max":836,"o":"m 143 74 q 101 13 125 25 q 58 0 78 0 q 30 11 39 0 q 21 38 21 22 q 28 72 21 54 l 354 951 q 383 976 361 968 q 431 985 404 985 q 484 976 458 985 q 515 947 510 967 l 833 67 q 835 56 835 61 q 836 46 836 51 q 824 14 836 28 q 782 0 813 0 q 749 5 769 0 q 710 26 729 10 q 678 74 690 42 l 604 264 l 214 264 l 143 74 m 415 821 l 407 821 l 236 336 l 583 336 l 415 821 m 632 1236 q 576 1111 632 1163 q 428 1060 521 1060 q 281 1111 336 1060 q 225 1236 225 1163 q 235 1263 225 1251 q 263 1275 244 1275 q 313 1238 299 1275 q 362 1167 332 1183 q 428 1151 392 1151 q 495 1167 465 1151 q 544 1238 525 1183 q 594 1275 558 1275 q 623 1263 614 1275 q 632 1236 632 1251 m 271 1456 q 267 1469 267 1463 q 344 1503 267 1503 q 395 1494 371 1503 q 426 1467 419 1486 l 506 1269 q 508 1256 508 1264 q 497 1236 508 1243 q 469 1229 486 1229 q 418 1251 436 1229 l 271 1456 z "},"Ẳ":{"ha":857,"x_min":21,"x_max":836,"o":"m 143 74 q 101 13 125 25 q 58 0 78 0 q 30 11 39 0 q 21 38 21 22 q 28 72 21 54 l 354 951 q 383 976 361 968 q 431 985 404 985 q 484 976 458 985 q 515 947 510 967 l 833 67 q 835 56 835 61 q 836 46 836 51 q 824 14 836 28 q 782 0 813 0 q 749 5 769 0 q 710 26 729 10 q 678 74 690 42 l 604 264 l 214 264 l 143 74 m 415 821 l 407 821 l 236 336 l 583 336 l 415 821 m 632 1236 q 576 1111 632 1163 q 428 1060 521 1060 q 281 1111 336 1060 q 225 1236 225 1163 q 235 1263 225 1251 q 263 1275 244 1275 q 313 1238 299 1275 q 362 1167 332 1183 q 428 1151 392 1151 q 495 1167 465 1151 q 544 1238 525 1183 q 594 1275 558 1275 q 623 1263 614 1275 q 632 1236 632 1251 m 394 1286 q 458 1344 436 1324 q 487 1378 479 1364 q 494 1413 494 1393 q 481 1452 494 1436 q 438 1468 467 1468 q 397 1460 413 1468 q 368 1445 381 1453 q 340 1438 356 1438 q 314 1464 314 1438 q 336 1503 314 1488 q 392 1528 358 1519 q 458 1536 425 1536 q 541 1519 511 1536 q 584 1478 571 1503 q 597 1429 597 1454 q 560 1338 597 1379 q 483 1258 522 1297 q 456 1239 471 1244 q 426 1233 440 1233 q 386 1249 400 1233 q 394 1286 372 1265 z "},"Ẵ":{"ha":857,"x_min":21,"x_max":836,"o":"m 143 74 q 101 13 125 25 q 58 0 78 0 q 30 11 39 0 q 21 38 21 22 q 28 72 21 54 l 354 951 q 383 976 361 968 q 431 985 404 985 q 484 976 458 985 q 515 947 510 967 l 833 67 q 835 56 835 61 q 836 46 836 51 q 824 14 836 28 q 782 0 813 0 q 749 5 769 0 q 710 26 729 10 q 678 74 690 42 l 604 264 l 214 264 l 143 74 m 415 821 l 407 821 l 236 336 l 583 336 l 415 821 m 632 1236 q 576 1111 632 1163 q 428 1060 521 1060 q 281 1111 336 1060 q 225 1236 225 1163 q 235 1263 225 1251 q 263 1275 244 1275 q 313 1238 299 1275 q 362 1167 332 1183 q 428 1151 392 1151 q 495 1167 465 1151 q 544 1238 525 1183 q 594 1275 558 1275 q 623 1263 614 1275 q 632 1236 632 1251 m 344 1392 q 313 1383 322 1392 q 299 1363 303 1374 q 288 1342 294 1351 q 261 1333 281 1333 q 230 1342 238 1333 q 222 1361 222 1350 q 238 1417 222 1386 q 285 1469 254 1447 q 361 1492 317 1492 q 393 1487 372 1490 q 449 1471 414 1483 q 492 1453 472 1461 q 535 1446 513 1446 q 563 1453 554 1446 q 576 1469 571 1460 q 590 1492 583 1481 q 621 1503 597 1503 q 644 1495 638 1503 q 651 1476 651 1488 q 642 1439 651 1458 q 588 1367 619 1388 q 524 1346 556 1346 q 474 1353 496 1346 q 428 1369 451 1360 q 376 1387 394 1382 q 344 1392 358 1392 z "},"Ǎ":{"ha":857,"x_min":21,"x_max":836,"o":"m 143 74 q 101 13 125 25 q 58 0 78 0 q 30 11 39 0 q 21 38 21 22 q 28 72 21 54 l 354 951 q 383 976 361 968 q 431 985 404 985 q 484 976 458 985 q 515 947 510 967 l 833 67 q 835 56 835 61 q 836 46 836 51 q 824 14 836 28 q 782 0 813 0 q 749 5 769 0 q 710 26 729 10 q 678 74 690 42 l 604 264 l 214 264 l 143 74 m 415 821 l 407 821 l 236 336 l 583 336 l 415 821 m 428 1158 l 506 1233 q 555 1267 529 1257 q 603 1276 581 1276 q 644 1267 628 1276 q 660 1246 660 1258 q 654 1233 660 1239 l 501 1082 q 433 1056 475 1056 q 390 1062 410 1056 q 356 1082 371 1068 l 203 1233 q 197 1246 197 1239 q 213 1267 197 1258 q 254 1276 229 1276 q 301 1267 276 1276 q 351 1233 326 1257 l 428 1158 z "},"Â":{"ha":857,"x_min":21,"x_max":836,"o":"m 143 74 q 101 13 125 25 q 58 0 78 0 q 30 11 39 0 q 21 38 21 22 q 28 72 21 54 l 354 951 q 383 976 361 968 q 431 985 404 985 q 484 976 458 985 q 515 947 510 967 l 833 67 q 835 56 835 61 q 836 46 836 51 q 824 14 836 28 q 782 0 813 0 q 749 5 769 0 q 710 26 729 10 q 678 74 690 42 l 604 264 l 214 264 l 143 74 m 415 821 l 407 821 l 236 336 l 583 336 l 415 821 m 429 1175 l 357 1103 q 311 1071 335 1081 q 267 1061 288 1061 q 229 1070 244 1061 q 214 1090 214 1079 q 219 1103 214 1097 l 361 1250 q 391 1269 372 1263 q 429 1275 410 1275 q 467 1269 449 1275 q 497 1250 486 1263 l 639 1103 q 644 1090 644 1097 q 630 1070 644 1079 q 592 1061 615 1061 q 547 1071 571 1061 q 501 1103 524 1081 l 429 1175 z "},"Ấ":{"ha":857,"x_min":21,"x_max":836,"o":"m 143 74 q 101 13 125 25 q 58 0 78 0 q 30 11 39 0 q 21 38 21 22 q 28 72 21 54 l 354 951 q 383 976 361 968 q 431 985 404 985 q 484 976 458 985 q 515 947 510 967 l 833 67 q 835 56 835 61 q 836 46 836 51 q 824 14 836 28 q 782 0 813 0 q 749 5 769 0 q 710 26 729 10 q 678 74 690 42 l 604 264 l 214 264 l 143 74 m 415 821 l 407 821 l 236 336 l 583 336 l 415 821 m 429 1175 l 357 1103 q 311 1071 335 1081 q 267 1061 288 1061 q 229 1070 244 1061 q 214 1090 214 1079 q 219 1103 214 1097 l 361 1250 q 391 1269 372 1263 q 429 1275 410 1275 q 467 1269 449 1275 q 497 1250 486 1263 l 639 1103 q 644 1090 644 1097 q 630 1070 644 1079 q 592 1061 615 1061 q 547 1071 571 1061 q 501 1103 524 1081 l 429 1175 m 635 1233 q 588 1214 618 1214 q 564 1220 574 1214 q 554 1238 554 1226 q 557 1249 554 1244 l 622 1406 q 650 1430 629 1422 q 693 1438 671 1438 q 742 1429 724 1438 q 761 1408 761 1421 q 757 1396 761 1400 l 635 1233 z "},"Ậ":{"ha":857,"x_min":21,"x_max":836,"o":"m 143 74 q 101 13 125 25 q 58 0 78 0 q 30 11 39 0 q 21 38 21 22 q 28 72 21 54 l 354 951 q 383 976 361 968 q 431 985 404 985 q 484 976 458 985 q 515 947 510 967 l 833 67 q 835 56 835 61 q 836 46 836 51 q 824 14 836 28 q 782 0 813 0 q 749 5 769 0 q 710 26 729 10 q 678 74 690 42 l 604 264 l 214 264 l 143 74 m 415 821 l 407 821 l 236 336 l 583 336 l 415 821 m 429 1175 l 357 1103 q 311 1071 335 1081 q 267 1061 288 1061 q 229 1070 244 1061 q 214 1090 214 1079 q 219 1103 214 1097 l 361 1250 q 391 1269 372 1263 q 429 1275 410 1275 q 467 1269 449 1275 q 497 1250 486 1263 l 639 1103 q 644 1090 644 1097 q 630 1070 644 1079 q 592 1061 615 1061 q 547 1071 571 1061 q 501 1103 524 1081 l 429 1175 m 343 -182 q 369 -121 343 -146 q 429 -96 394 -96 q 490 -121 465 -96 q 515 -182 515 -146 q 490 -242 515 -217 q 429 -268 465 -268 q 369 -242 394 -268 q 343 -182 343 -217 z "},"Ầ":{"ha":857,"x_min":21,"x_max":836,"o":"m 143 74 q 101 13 125 25 q 58 0 78 0 q 30 11 39 0 q 21 38 21 22 q 28 72 21 54 l 354 951 q 383 976 361 968 q 431 985 404 985 q 484 976 458 985 q 515 947 510 967 l 833 67 q 835 56 835 61 q 836 46 836 51 q 824 14 836 28 q 782 0 813 0 q 749 5 769 0 q 710 26 729 10 q 678 74 690 42 l 604 264 l 214 264 l 143 74 m 415 821 l 407 821 l 236 336 l 583 336 l 415 821 m 429 1175 l 357 1103 q 311 1071 335 1081 q 267 1061 288 1061 q 229 1070 244 1061 q 214 1090 214 1079 q 219 1103 214 1097 l 361 1250 q 391 1269 372 1263 q 429 1275 410 1275 q 467 1269 449 1275 q 497 1250 486 1263 l 639 1103 q 644 1090 644 1097 q 630 1070 644 1079 q 592 1061 615 1061 q 547 1071 571 1061 q 501 1103 524 1081 l 429 1175 m 575 1233 l 453 1396 q 450 1408 450 1400 q 468 1429 450 1421 q 517 1438 486 1438 q 560 1430 539 1438 q 588 1406 581 1422 l 653 1249 q 656 1238 656 1244 q 646 1220 656 1226 q 622 1214 636 1214 q 575 1233 592 1214 z "},"Ẩ":{"ha":857,"x_min":21,"x_max":836,"o":"m 143 74 q 101 13 125 25 q 58 0 78 0 q 30 11 39 0 q 21 38 21 22 q 28 72 21 54 l 354 951 q 383 976 361 968 q 431 985 404 985 q 484 976 458 985 q 515 947 510 967 l 833 67 q 835 56 835 61 q 836 46 836 51 q 824 14 836 28 q 782 0 813 0 q 749 5 769 0 q 710 26 729 10 q 678 74 690 42 l 604 264 l 214 264 l 143 74 m 415 821 l 407 821 l 236 336 l 583 336 l 415 821 m 429 1175 l 357 1103 q 311 1071 335 1081 q 267 1061 288 1061 q 229 1070 244 1061 q 214 1090 214 1079 q 219 1103 214 1097 l 361 1250 q 391 1269 372 1263 q 429 1275 410 1275 q 467 1269 449 1275 q 497 1250 486 1263 l 639 1103 q 644 1090 644 1097 q 630 1070 644 1079 q 592 1061 615 1061 q 547 1071 571 1061 q 501 1103 524 1081 l 429 1175 m 585 1249 q 648 1306 626 1286 q 677 1341 669 1326 q 685 1375 685 1356 q 671 1415 685 1399 q 628 1431 657 1431 q 587 1423 603 1431 q 558 1408 571 1415 q 531 1400 546 1400 q 504 1426 504 1400 q 526 1466 504 1450 q 582 1490 549 1482 q 649 1499 615 1499 q 731 1482 701 1499 q 774 1441 761 1465 q 788 1392 788 1417 q 750 1301 788 1342 q 674 1221 713 1260 q 646 1201 661 1207 q 617 1196 631 1196 q 576 1212 590 1196 q 585 1249 563 1228 z "},"Ẫ":{"ha":857,"x_min":21,"x_max":836,"o":"m 143 74 q 101 13 125 25 q 58 0 78 0 q 30 11 39 0 q 21 38 21 22 q 28 72 21 54 l 354 951 q 383 976 361 968 q 431 985 404 985 q 484 976 458 985 q 515 947 510 967 l 833 67 q 835 56 835 61 q 836 46 836 51 q 824 14 836 28 q 782 0 813 0 q 749 5 769 0 q 710 26 729 10 q 678 74 690 42 l 604 264 l 214 264 l 143 74 m 415 821 l 407 821 l 236 336 l 583 336 l 415 821 m 429 1175 l 357 1103 q 311 1071 335 1081 q 267 1061 288 1061 q 229 1070 244 1061 q 214 1090 214 1079 q 219 1103 214 1097 l 361 1250 q 391 1269 372 1263 q 429 1275 410 1275 q 467 1269 449 1275 q 497 1250 486 1263 l 639 1103 q 644 1090 644 1097 q 630 1070 644 1079 q 592 1061 615 1061 q 547 1071 571 1061 q 501 1103 524 1081 l 429 1175 m 336 1364 q 304 1355 314 1364 q 290 1335 294 1346 q 279 1315 286 1324 q 253 1306 272 1306 q 222 1314 229 1306 q 214 1333 214 1322 q 230 1389 214 1358 q 277 1442 246 1419 q 353 1464 308 1464 q 385 1459 364 1463 q 440 1443 406 1456 q 484 1426 464 1433 q 526 1418 504 1418 q 554 1425 546 1418 q 568 1442 563 1432 q 582 1464 575 1453 q 613 1475 589 1475 q 636 1467 629 1475 q 643 1449 643 1460 q 633 1411 643 1431 q 579 1339 611 1360 q 515 1318 547 1318 q 465 1325 488 1318 q 419 1342 443 1332 q 368 1359 386 1354 q 336 1364 350 1364 z "},"Ȁ":{"ha":857,"x_min":21,"x_max":836,"o":"m 143 74 q 101 13 125 25 q 58 0 78 0 q 30 11 39 0 q 21 38 21 22 q 28 72 21 54 l 354 951 q 383 976 361 968 q 431 985 404 985 q 484 976 458 985 q 515 947 510 967 l 833 67 q 835 56 835 61 q 836 46 836 51 q 824 14 836 28 q 782 0 813 0 q 749 5 769 0 q 710 26 729 10 q 678 74 690 42 l 604 264 l 214 264 l 143 74 m 415 821 l 407 821 l 236 336 l 583 336 l 415 821 m 206 1282 q 201 1294 201 1286 q 219 1319 201 1310 q 269 1328 238 1328 q 313 1319 292 1328 q 340 1292 333 1311 l 406 1118 q 408 1106 408 1113 q 398 1086 408 1093 q 374 1079 388 1079 q 328 1101 343 1079 l 206 1282 m 400 1282 q 396 1294 396 1286 q 414 1319 396 1310 q 464 1328 432 1328 q 507 1319 486 1328 q 535 1292 528 1311 l 600 1118 q 603 1106 603 1113 q 592 1086 603 1093 q 568 1079 582 1079 q 522 1101 538 1079 l 400 1282 z "},"Ä":{"ha":857,"x_min":21,"x_max":836,"o":"m 143 74 q 101 13 125 25 q 58 0 78 0 q 30 11 39 0 q 21 38 21 22 q 28 72 21 54 l 354 951 q 383 976 361 968 q 431 985 404 985 q 484 976 458 985 q 515 947 510 967 l 833 67 q 835 56 835 61 q 836 46 836 51 q 824 14 836 28 q 782 0 813 0 q 749 5 769 0 q 710 26 729 10 q 678 74 690 42 l 604 264 l 214 264 l 143 74 m 415 821 l 407 821 l 236 336 l 583 336 l 415 821 m 190 1183 q 219 1251 190 1222 q 283 1279 249 1279 q 352 1251 324 1279 q 381 1183 381 1222 q 352 1118 381 1147 q 283 1089 324 1089 q 219 1118 249 1089 q 190 1183 190 1147 m 478 1182 q 506 1250 478 1222 q 572 1278 535 1278 q 639 1250 610 1278 q 668 1182 668 1222 q 639 1117 668 1146 q 572 1088 610 1088 q 506 1117 535 1088 q 478 1182 478 1146 z "},"Ạ":{"ha":857,"x_min":21,"x_max":836,"o":"m 143 74 q 101 13 125 25 q 58 0 78 0 q 30 11 39 0 q 21 38 21 22 q 28 72 21 54 l 354 951 q 383 976 361 968 q 431 985 404 985 q 484 976 458 985 q 515 947 510 967 l 833 67 q 835 56 835 61 q 836 46 836 51 q 824 14 836 28 q 782 0 813 0 q 749 5 769 0 q 710 26 729 10 q 678 74 690 42 l 604 264 l 214 264 l 143 74 m 415 821 l 407 821 l 236 336 l 583 336 l 415 821 m 343 -182 q 369 -121 343 -146 q 429 -96 394 -96 q 490 -121 465 -96 q 515 -182 515 -146 q 490 -242 515 -217 q 429 -268 465 -268 q 369 -242 394 -268 q 343 -182 343 -217 z "},"À":{"ha":857,"x_min":21,"x_max":836,"o":"m 143 74 q 101 13 125 25 q 58 0 78 0 q 30 11 39 0 q 21 38 21 22 q 28 72 21 54 l 354 951 q 383 976 361 968 q 431 985 404 985 q 484 976 458 985 q 515 947 510 967 l 833 67 q 835 56 835 61 q 836 46 836 51 q 824 14 836 28 q 782 0 813 0 q 749 5 769 0 q 710 26 729 10 q 678 74 690 42 l 604 264 l 214 264 l 143 74 m 415 821 l 407 821 l 236 336 l 583 336 l 415 821 m 271 1290 q 267 1304 267 1297 q 344 1338 267 1338 q 395 1329 371 1338 q 426 1301 419 1321 l 506 1104 q 508 1090 508 1099 q 497 1071 508 1078 q 469 1064 486 1064 q 418 1086 436 1064 l 271 1290 z "},"Ả":{"ha":857,"x_min":21,"x_max":836,"o":"m 143 74 q 101 13 125 25 q 58 0 78 0 q 30 11 39 0 q 21 38 21 22 q 28 72 21 54 l 354 951 q 383 976 361 968 q 431 985 404 985 q 484 976 458 985 q 515 947 510 967 l 833 67 q 835 56 835 61 q 836 46 836 51 q 824 14 836 28 q 782 0 813 0 q 749 5 769 0 q 710 26 729 10 q 678 74 690 42 l 604 264 l 214 264 l 143 74 m 415 821 l 407 821 l 236 336 l 583 336 l 415 821 m 382 1079 q 445 1137 424 1117 q 474 1172 467 1157 q 482 1206 482 1186 q 468 1245 482 1229 q 425 1261 454 1261 q 384 1253 400 1261 q 356 1238 368 1246 q 328 1231 343 1231 q 301 1257 301 1231 q 324 1297 301 1281 q 379 1321 346 1313 q 446 1329 413 1329 q 528 1313 499 1329 q 572 1272 558 1296 q 585 1222 585 1247 q 547 1131 585 1172 q 471 1051 510 1090 q 443 1032 458 1038 q 414 1026 428 1026 q 374 1042 388 1026 q 382 1079 360 1058 z "},"Ȃ":{"ha":857,"x_min":21,"x_max":836,"o":"m 143 74 q 101 13 125 25 q 58 0 78 0 q 30 11 39 0 q 21 38 21 22 q 28 72 21 54 l 354 951 q 383 976 361 968 q 431 985 404 985 q 484 976 458 985 q 515 947 510 967 l 833 67 q 835 56 835 61 q 836 46 836 51 q 824 14 836 28 q 782 0 813 0 q 749 5 769 0 q 710 26 729 10 q 678 74 690 42 l 604 264 l 214 264 l 143 74 m 415 821 l 407 821 l 236 336 l 583 336 l 415 821 m 632 1099 q 623 1072 632 1083 q 594 1060 614 1060 q 544 1097 558 1060 q 495 1167 525 1151 q 428 1183 465 1183 q 362 1167 392 1183 q 313 1097 332 1151 q 263 1060 299 1060 q 235 1072 244 1060 q 225 1099 225 1083 q 281 1224 225 1172 q 428 1275 336 1275 q 576 1224 521 1275 q 632 1099 632 1172 z "},"Ā":{"ha":857,"x_min":21,"x_max":836,"o":"m 143 74 q 101 13 125 25 q 58 0 78 0 q 30 11 39 0 q 21 38 21 22 q 28 72 21 54 l 354 951 q 383 976 361 968 q 431 985 404 985 q 484 976 458 985 q 515 947 510 967 l 833 67 q 835 56 835 61 q 836 46 836 51 q 824 14 836 28 q 782 0 813 0 q 749 5 769 0 q 710 26 729 10 q 678 74 690 42 l 604 264 l 214 264 l 143 74 m 415 821 l 407 821 l 236 336 l 583 336 l 415 821 m 253 1093 q 229 1105 239 1093 q 219 1135 219 1117 q 229 1166 219 1154 q 253 1178 239 1178 l 606 1178 q 628 1166 618 1178 q 639 1135 639 1154 q 606 1093 639 1093 l 253 1093 z "},"Ą":{"ha":857,"x_min":21,"x_max":915,"o":"m 143 74 q 101 13 125 25 q 58 0 78 0 q 30 11 39 0 q 21 38 21 22 q 28 72 21 54 l 354 951 q 383 976 361 968 q 431 985 404 985 q 484 976 458 985 q 515 947 510 967 l 833 67 q 835 56 835 61 q 836 46 836 51 q 824 14 836 28 q 782 0 813 0 q 749 5 769 0 q 710 26 729 10 q 678 74 690 42 l 604 264 l 214 264 l 143 74 m 415 821 l 407 821 l 236 336 l 583 336 l 415 821 m 844 14 q 761 -76 785 -36 q 738 -149 738 -115 q 753 -192 738 -175 q 796 -208 769 -208 q 837 -201 822 -208 q 863 -185 851 -193 q 889 -178 874 -178 q 915 -204 915 -178 q 890 -244 915 -228 q 830 -268 865 -260 q 763 -276 794 -276 q 661 -240 690 -276 q 632 -162 632 -204 q 771 14 632 -65 l 844 14 z "},"Å":{"ha":857,"x_min":21,"x_max":836,"o":"m 143 74 q 101 13 125 25 q 58 0 78 0 q 30 11 39 0 q 21 38 21 22 q 28 72 21 54 l 354 951 q 383 976 361 968 q 431 985 404 985 q 484 976 458 985 q 515 947 510 967 l 833 67 q 835 56 835 61 q 836 46 836 51 q 824 14 836 28 q 782 0 813 0 q 749 5 769 0 q 710 26 729 10 q 678 74 690 42 l 604 264 l 214 264 l 143 74 m 415 821 l 407 821 l 236 336 l 583 336 l 415 821 m 279 1207 q 322 1314 279 1271 q 429 1357 365 1357 q 535 1314 492 1357 q 579 1207 579 1271 q 535 1101 579 1144 q 429 1057 492 1057 q 322 1101 365 1057 q 279 1207 279 1144 m 356 1207 q 378 1156 356 1178 q 429 1135 400 1135 q 479 1156 457 1135 q 501 1207 501 1178 q 479 1258 501 1236 q 429 1281 457 1281 q 378 1258 400 1281 q 356 1207 356 1236 z "},"Ǻ":{"ha":857,"x_min":21,"x_max":836,"o":"m 143 74 q 101 13 125 25 q 58 0 78 0 q 30 11 39 0 q 21 38 21 22 q 28 72 21 54 l 354 951 q 383 976 361 968 q 431 985 404 985 q 484 976 458 985 q 515 947 510 967 l 833 67 q 835 56 835 61 q 836 46 836 51 q 824 14 836 28 q 782 0 813 0 q 749 5 769 0 q 710 26 729 10 q 678 74 690 42 l 604 264 l 214 264 l 143 74 m 415 821 l 407 821 l 236 336 l 583 336 l 415 821 m 279 1058 q 322 1165 279 1122 q 429 1208 365 1208 q 535 1165 492 1208 q 579 1058 579 1122 q 535 952 579 996 q 429 908 492 908 q 322 952 365 908 q 279 1058 279 996 m 356 1058 q 378 1008 356 1029 q 429 986 400 986 q 479 1008 457 986 q 501 1058 501 1029 q 479 1110 501 1088 q 429 1132 457 1132 q 378 1110 400 1132 q 356 1058 356 1088 m 663 1147 q 615 1128 646 1128 q 592 1134 601 1128 q 582 1151 582 1140 q 585 1163 582 1158 l 650 1319 q 678 1344 657 1336 q 721 1351 699 1351 q 770 1343 751 1351 q 789 1322 789 1335 q 785 1310 789 1314 l 663 1147 z "},"Ã":{"ha":857,"x_min":21,"x_max":836,"o":"m 143 74 q 101 13 125 25 q 58 0 78 0 q 30 11 39 0 q 21 38 21 22 q 28 72 21 54 l 354 951 q 383 976 361 968 q 431 985 404 985 q 484 976 458 985 q 515 947 510 967 l 833 67 q 835 56 835 61 q 836 46 836 51 q 824 14 836 28 q 782 0 813 0 q 749 5 769 0 q 710 26 729 10 q 678 74 690 42 l 604 264 l 214 264 l 143 74 m 415 821 l 407 821 l 236 336 l 583 336 l 415 821 m 336 1129 q 304 1120 314 1129 q 290 1100 294 1111 q 279 1080 286 1089 q 253 1071 272 1071 q 222 1079 229 1071 q 214 1099 214 1088 q 230 1154 214 1124 q 277 1207 246 1185 q 353 1229 308 1229 q 385 1224 364 1228 q 440 1208 406 1221 q 484 1191 464 1199 q 526 1183 504 1183 q 554 1190 546 1183 q 568 1207 563 1197 q 582 1229 575 1218 q 613 1240 589 1240 q 636 1233 629 1240 q 643 1214 643 1225 q 633 1176 643 1196 q 579 1104 611 1125 q 515 1083 547 1083 q 465 1090 488 1083 q 419 1107 443 1097 q 368 1124 386 1119 q 336 1129 350 1129 z "},"Æ":{"ha":1164,"x_min":17,"x_max":1108,"o":"m 143 74 q 101 13 125 25 q 58 0 78 0 q 24 22 31 0 q 28 72 17 44 l 479 951 q 499 976 486 967 q 532 985 511 985 l 1004 985 q 1066 975 1044 985 q 1088 933 1088 965 l 1088 813 q 1028 743 1088 743 q 968 763 989 743 q 947 833 947 783 l 947 911 l 688 911 l 688 547 l 910 547 q 939 535 929 547 q 949 508 949 524 q 937 483 949 494 q 910 471 925 471 l 688 471 l 688 74 l 968 74 l 968 151 q 989 222 968 201 q 1049 242 1010 242 q 1108 172 1108 242 l 1108 51 q 1087 10 1108 21 q 1025 0 1065 0 l 601 0 q 538 69 538 0 l 538 264 l 242 264 l 143 74 m 532 821 l 279 336 l 538 336 l 538 821 l 532 821 z "},"Ǽ":{"ha":1164,"x_min":17,"x_max":1108,"o":"m 143 74 q 101 13 125 25 q 58 0 78 0 q 24 22 31 0 q 28 72 17 44 l 479 951 q 499 976 486 967 q 532 985 511 985 l 1004 985 q 1066 975 1044 985 q 1088 933 1088 965 l 1088 813 q 1028 743 1088 743 q 968 763 989 743 q 947 833 947 783 l 947 911 l 688 911 l 688 547 l 910 547 q 939 535 929 547 q 949 508 949 524 q 937 483 949 494 q 910 471 925 471 l 688 471 l 688 74 l 968 74 l 968 151 q 989 222 968 201 q 1049 242 1010 242 q 1108 172 1108 242 l 1108 51 q 1087 10 1108 21 q 1025 0 1065 0 l 601 0 q 538 69 538 0 l 538 264 l 242 264 l 143 74 m 532 821 l 279 336 l 538 336 l 538 821 l 532 821 m 689 1086 q 667 1070 682 1076 q 638 1064 653 1064 q 605 1075 615 1064 q 601 1104 594 1086 l 681 1301 q 713 1329 689 1321 q 763 1338 736 1338 q 827 1324 803 1338 q 836 1290 851 1311 l 689 1086 z "},"B":{"ha":931,"x_min":139,"x_max":847,"o":"m 139 915 q 203 985 139 985 l 488 985 q 717 924 639 985 q 796 738 796 863 q 778 651 796 694 q 724 574 760 607 q 639 529 689 542 l 639 522 q 799 440 750 504 q 847 294 847 375 q 811 142 847 200 q 719 53 775 83 q 603 11 664 22 q 494 0 543 0 l 203 0 q 139 69 139 0 l 139 915 m 289 911 l 289 553 l 449 553 q 533 571 489 553 q 608 630 576 589 q 639 742 639 671 q 606 845 639 808 q 525 897 572 882 q 438 911 478 911 l 289 911 m 289 479 l 289 74 l 475 74 q 544 83 507 74 q 614 115 581 92 q 669 178 647 138 q 690 281 690 218 q 653 399 690 356 q 564 460 617 442 q 461 479 511 479 l 289 479 z "},"C":{"ha":807,"x_min":74,"x_max":779,"o":"m 699 735 q 639 755 660 735 q 618 825 618 775 l 618 903 q 569 911 594 908 q 517 914 544 914 q 310 806 389 914 q 231 481 231 699 q 267 232 231 321 q 369 108 303 143 q 526 72 436 72 q 617 83 569 72 q 708 113 664 94 l 735 124 q 740 126 738 125 q 746 126 743 126 q 770 113 761 126 q 779 85 779 100 q 761 57 779 65 l 738 47 q 628 13 686 26 q 488 0 571 0 q 251 58 343 0 q 117 225 160 117 q 74 483 74 333 q 130 768 74 657 q 283 932 186 879 q 499 985 379 985 q 602 978 551 985 q 701 956 653 971 q 746 933 733 946 q 758 888 758 919 l 758 804 q 699 735 758 735 z "},"Ć":{"ha":807,"x_min":74,"x_max":779,"o":"m 699 735 q 639 755 660 735 q 618 825 618 775 l 618 903 q 569 911 594 908 q 517 914 544 914 q 310 806 389 914 q 231 481 231 699 q 267 232 231 321 q 369 108 303 143 q 526 72 436 72 q 617 83 569 72 q 708 113 664 94 l 735 124 q 740 126 738 125 q 746 126 743 126 q 770 113 761 126 q 779 85 779 100 q 761 57 779 65 l 738 47 q 628 13 686 26 q 488 0 571 0 q 251 58 343 0 q 117 225 160 117 q 74 483 74 333 q 130 768 74 657 q 283 932 186 879 q 499 985 379 985 q 602 978 551 985 q 701 956 653 971 q 746 933 733 946 q 758 888 758 919 l 758 804 q 699 735 758 735 m 522 1086 q 501 1070 515 1076 q 471 1064 486 1064 q 438 1075 449 1064 q 435 1104 428 1086 l 514 1301 q 546 1329 522 1321 q 596 1338 569 1338 q 660 1324 636 1338 q 669 1290 685 1311 l 522 1086 z "},"Č":{"ha":807,"x_min":74,"x_max":779,"o":"m 699 735 q 639 755 660 735 q 618 825 618 775 l 618 903 q 569 911 594 908 q 517 914 544 914 q 310 806 389 914 q 231 481 231 699 q 267 232 231 321 q 369 108 303 143 q 526 72 436 72 q 617 83 569 72 q 708 113 664 94 l 735 124 q 740 126 738 125 q 746 126 743 126 q 770 113 761 126 q 779 85 779 100 q 761 57 779 65 l 738 47 q 628 13 686 26 q 488 0 571 0 q 251 58 343 0 q 117 225 160 117 q 74 483 74 333 q 130 768 74 657 q 283 932 186 879 q 499 985 379 985 q 602 978 551 985 q 701 956 653 971 q 746 933 733 946 q 758 888 758 919 l 758 804 q 699 735 758 735 m 497 1158 l 575 1233 q 624 1267 599 1257 q 672 1276 650 1276 q 713 1267 697 1276 q 729 1246 729 1258 q 724 1233 729 1239 l 571 1082 q 503 1056 544 1056 q 460 1062 479 1056 q 425 1082 440 1068 l 272 1233 q 267 1246 267 1239 q 283 1267 267 1258 q 324 1276 299 1276 q 371 1267 346 1276 q 421 1233 396 1257 l 497 1158 z "},"Ç":{"ha":807,"x_min":74,"x_max":779,"o":"m 699 735 q 639 755 660 735 q 618 825 618 775 l 618 903 q 569 911 594 908 q 517 914 544 914 q 310 806 389 914 q 231 481 231 699 q 267 232 231 321 q 369 108 303 143 q 526 72 436 72 q 617 83 569 72 q 708 113 664 94 l 735 124 q 740 126 738 125 q 746 126 743 126 q 770 113 761 126 q 779 85 779 100 q 761 57 779 65 l 738 47 q 628 13 686 26 q 488 0 571 0 q 251 58 343 0 q 117 225 160 117 q 74 483 74 333 q 130 768 74 657 q 283 932 186 879 q 499 985 379 985 q 602 978 551 985 q 701 956 653 971 q 746 933 733 946 q 758 888 758 919 l 758 804 q 699 735 758 735 m 525 -53 q 593 -61 561 -53 q 645 -92 625 -69 q 665 -156 665 -114 q 622 -243 665 -211 q 511 -275 578 -275 q 458 -269 488 -275 q 406 -250 428 -262 q 385 -218 385 -237 q 392 -199 385 -207 q 414 -192 400 -192 q 451 -199 429 -192 q 494 -207 472 -207 q 545 -192 531 -207 q 560 -160 560 -176 q 532 -113 560 -122 q 453 -104 504 -104 l 453 14 l 525 14 l 525 -53 z "},"Ĉ":{"ha":807,"x_min":74,"x_max":779,"o":"m 699 735 q 639 755 660 735 q 618 825 618 775 l 618 903 q 569 911 594 908 q 517 914 544 914 q 310 806 389 914 q 231 481 231 699 q 267 232 231 321 q 369 108 303 143 q 526 72 436 72 q 617 83 569 72 q 708 113 664 94 l 735 124 q 740 126 738 125 q 746 126 743 126 q 770 113 761 126 q 779 85 779 100 q 761 57 779 65 l 738 47 q 628 13 686 26 q 488 0 571 0 q 251 58 343 0 q 117 225 160 117 q 74 483 74 333 q 130 768 74 657 q 283 932 186 879 q 499 985 379 985 q 602 978 551 985 q 701 956 653 971 q 746 933 733 946 q 758 888 758 919 l 758 804 q 699 735 758 735 m 499 1175 l 426 1103 q 381 1071 404 1081 q 336 1061 357 1061 q 299 1070 314 1061 q 283 1090 283 1079 q 289 1103 283 1097 l 431 1250 q 460 1269 442 1263 q 499 1275 479 1275 q 537 1269 518 1275 q 567 1250 556 1263 l 708 1103 q 714 1090 714 1097 q 699 1070 714 1079 q 661 1061 685 1061 q 617 1071 640 1061 q 571 1103 593 1081 l 499 1175 z "},"Ċ":{"ha":807,"x_min":74,"x_max":779,"o":"m 699 735 q 639 755 660 735 q 618 825 618 775 l 618 903 q 569 911 594 908 q 517 914 544 914 q 310 806 389 914 q 231 481 231 699 q 267 232 231 321 q 369 108 303 143 q 526 72 436 72 q 617 83 569 72 q 708 113 664 94 l 735 124 q 740 126 738 125 q 746 126 743 126 q 770 113 761 126 q 779 85 779 100 q 761 57 779 65 l 738 47 q 628 13 686 26 q 488 0 571 0 q 251 58 343 0 q 117 225 160 117 q 74 483 74 333 q 130 768 74 657 q 283 932 186 879 q 499 985 379 985 q 602 978 551 985 q 701 956 653 971 q 746 933 733 946 q 758 888 758 919 l 758 804 q 699 735 758 735 m 413 1161 q 438 1222 413 1197 q 499 1247 464 1247 q 560 1222 535 1247 q 585 1161 585 1197 q 560 1101 585 1126 q 499 1075 535 1075 q 438 1101 464 1075 q 413 1161 413 1126 z "},"D":{"ha":963,"x_min":139,"x_max":889,"o":"m 139 915 q 203 985 139 985 l 401 985 q 530 974 463 985 q 661 935 597 964 q 776 853 725 907 q 858 712 828 799 q 889 497 889 625 q 858 294 889 379 q 774 153 826 210 q 659 63 722 96 q 531 15 596 29 q 408 0 465 0 l 203 0 q 139 69 139 0 l 139 915 m 289 911 l 289 74 l 319 74 l 319 75 l 385 75 q 560 118 481 75 q 685 254 639 161 q 732 497 732 347 q 685 742 732 651 q 560 872 639 832 q 385 911 481 911 l 289 911 z "},"Ǳ":{"ha":1785,"x_min":139,"x_max":1729,"o":"m 139 915 q 203 985 139 985 l 401 985 q 530 974 463 985 q 661 935 597 964 q 776 853 725 907 q 858 712 828 799 q 889 497 889 625 q 858 294 889 379 q 774 153 826 210 q 659 63 722 96 q 531 15 596 29 q 408 0 465 0 l 203 0 q 139 69 139 0 l 139 915 m 289 911 l 289 74 l 319 74 l 319 75 l 385 75 q 560 118 481 75 q 685 254 639 161 q 732 497 732 347 q 685 742 732 651 q 560 872 639 832 q 385 911 481 911 l 289 911 m 1081 0 q 1033 21 1047 0 q 1018 68 1018 42 q 1021 95 1018 81 q 1029 118 1024 110 l 1561 911 l 1189 911 l 1189 833 q 1169 763 1189 783 q 1108 743 1149 743 q 1049 813 1049 743 l 1049 933 q 1070 975 1049 965 q 1132 985 1092 985 l 1656 985 q 1703 963 1688 985 q 1718 914 1718 942 q 1715 888 1718 903 q 1707 867 1713 874 l 1163 74 l 1589 74 l 1589 151 q 1610 222 1589 201 q 1669 242 1631 242 q 1729 172 1729 242 l 1729 51 q 1708 10 1729 21 q 1646 0 1686 0 l 1081 0 z "},"Ǆ":{"ha":1785,"x_min":139,"x_max":1729,"o":"m 139 915 q 203 985 139 985 l 401 985 q 530 974 463 985 q 661 935 597 964 q 776 853 725 907 q 858 712 828 799 q 889 497 889 625 q 858 294 889 379 q 774 153 826 210 q 659 63 722 96 q 531 15 596 29 q 408 0 465 0 l 203 0 q 139 69 139 0 l 139 915 m 289 911 l 289 74 l 319 74 l 319 75 l 385 75 q 560 118 481 75 q 685 254 639 161 q 732 497 732 347 q 685 742 732 651 q 560 872 639 832 q 385 911 481 911 l 289 911 m 1081 0 q 1033 21 1047 0 q 1018 68 1018 42 q 1021 95 1018 81 q 1029 118 1024 110 l 1561 911 l 1189 911 l 1189 833 q 1169 763 1189 783 q 1108 743 1149 743 q 1049 813 1049 743 l 1049 933 q 1070 975 1049 965 q 1132 985 1092 985 l 1656 985 q 1703 963 1688 985 q 1718 914 1718 942 q 1715 888 1718 903 q 1707 867 1713 874 l 1163 74 l 1589 74 l 1589 151 q 1610 222 1589 201 q 1669 242 1631 242 q 1729 172 1729 242 l 1729 51 q 1708 10 1729 21 q 1646 0 1686 0 l 1081 0 m 1372 1158 l 1450 1233 q 1499 1267 1474 1257 q 1547 1276 1525 1276 q 1588 1267 1572 1276 q 1604 1246 1604 1258 q 1599 1233 1604 1239 l 1446 1082 q 1378 1056 1419 1056 q 1335 1062 1354 1056 q 1300 1082 1315 1068 l 1147 1233 q 1142 1246 1142 1239 q 1158 1267 1142 1258 q 1199 1276 1174 1276 q 1246 1267 1221 1276 q 1296 1233 1271 1257 l 1372 1158 z "},"Ð":{"ha":963,"x_min":21,"x_max":889,"o":"m 139 547 l 139 915 q 203 985 139 985 l 401 985 q 530 974 463 985 q 661 935 597 964 q 776 853 725 907 q 858 712 828 799 q 889 497 889 625 q 858 294 889 379 q 774 153 826 210 q 659 63 722 96 q 531 15 596 29 q 408 0 465 0 l 203 0 q 139 69 139 0 l 139 471 l 50 471 q 28 483 36 471 q 21 508 21 494 q 28 535 21 524 q 50 547 36 547 l 139 547 m 289 911 l 289 547 l 524 547 q 546 535 539 547 q 553 508 553 524 q 546 483 553 494 q 524 471 539 471 l 289 471 l 289 74 l 319 74 l 319 75 l 385 75 q 560 118 481 75 q 685 254 639 161 q 732 497 732 347 q 685 742 732 651 q 560 872 639 832 q 385 911 481 911 l 289 911 z "},"Ď":{"ha":963,"x_min":139,"x_max":889,"o":"m 139 915 q 203 985 139 985 l 401 985 q 530 974 463 985 q 661 935 597 964 q 776 853 725 907 q 858 712 828 799 q 889 497 889 625 q 858 294 889 379 q 774 153 826 210 q 659 63 722 96 q 531 15 596 29 q 408 0 465 0 l 203 0 q 139 69 139 0 l 139 915 m 289 911 l 289 74 l 319 74 l 319 75 l 385 75 q 560 118 481 75 q 685 254 639 161 q 732 497 732 347 q 685 742 732 651 q 560 872 639 832 q 385 911 481 911 l 289 911 m 481 1158 l 558 1233 q 608 1267 582 1257 q 656 1276 633 1276 q 697 1267 681 1276 q 713 1246 713 1258 q 707 1233 713 1239 l 554 1082 q 486 1056 528 1056 q 443 1062 463 1056 q 408 1082 424 1068 l 256 1233 q 250 1246 250 1239 q 266 1267 250 1258 q 307 1276 282 1276 q 354 1267 329 1276 q 404 1233 379 1257 l 481 1158 z "},"Đ":{"ha":963,"x_min":21,"x_max":889,"o":"m 139 547 l 139 915 q 203 985 139 985 l 401 985 q 530 974 463 985 q 661 935 597 964 q 776 853 725 907 q 858 712 828 799 q 889 497 889 625 q 858 294 889 379 q 774 153 826 210 q 659 63 722 96 q 531 15 596 29 q 408 0 465 0 l 203 0 q 139 69 139 0 l 139 471 l 50 471 q 28 483 36 471 q 21 508 21 494 q 28 535 21 524 q 50 547 36 547 l 139 547 m 289 911 l 289 547 l 524 547 q 546 535 539 547 q 553 508 553 524 q 546 483 553 494 q 524 471 539 471 l 289 471 l 289 74 l 319 74 l 319 75 l 385 75 q 560 118 481 75 q 685 254 639 161 q 732 497 732 347 q 685 742 732 651 q 560 872 639 832 q 385 911 481 911 l 289 911 z "},"ǲ":{"ha":1621,"x_min":139,"x_max":1579,"o":"m 139 915 q 203 985 139 985 l 401 985 q 530 974 463 985 q 661 935 597 964 q 776 853 725 907 q 858 712 828 799 q 889 497 889 625 q 858 294 889 379 q 774 153 826 210 q 659 63 722 96 q 531 15 596 29 q 408 0 465 0 l 203 0 q 139 69 139 0 l 139 915 m 289 911 l 289 74 l 319 74 l 319 75 l 385 75 q 560 118 481 75 q 685 254 639 161 q 732 497 732 347 q 685 742 732 651 q 560 872 639 832 q 385 911 481 911 l 289 911 m 1528 697 q 1568 684 1557 697 q 1579 657 1579 671 q 1573 623 1579 639 q 1558 596 1567 607 l 1158 65 l 1442 65 l 1442 99 q 1458 172 1442 156 q 1518 188 1475 188 q 1559 172 1549 188 q 1569 129 1569 157 l 1569 43 q 1557 10 1569 19 q 1525 0 1544 0 l 1057 0 q 1015 13 1026 0 q 1004 40 1004 26 q 1010 74 1004 58 q 1025 101 1017 90 l 1422 632 l 1161 632 l 1161 599 q 1144 526 1161 543 q 1085 510 1128 510 q 1044 525 1054 510 q 1033 568 1033 540 l 1033 654 q 1046 688 1033 678 q 1078 697 1058 697 l 1528 697 z "},"ǅ":{"ha":1621,"x_min":139,"x_max":1579,"o":"m 139 915 q 203 985 139 985 l 401 985 q 530 974 463 985 q 661 935 597 964 q 776 853 725 907 q 858 712 828 799 q 889 497 889 625 q 858 294 889 379 q 774 153 826 210 q 659 63 722 96 q 531 15 596 29 q 408 0 465 0 l 203 0 q 139 69 139 0 l 139 915 m 289 911 l 289 74 l 319 74 l 319 75 l 385 75 q 560 118 481 75 q 685 254 639 161 q 732 497 732 347 q 685 742 732 651 q 560 872 639 832 q 385 911 481 911 l 289 911 m 1528 697 q 1568 684 1557 697 q 1579 657 1579 671 q 1573 623 1579 639 q 1558 596 1567 607 l 1158 65 l 1442 65 l 1442 99 q 1458 172 1442 156 q 1518 188 1475 188 q 1559 172 1549 188 q 1569 129 1569 157 l 1569 43 q 1557 10 1569 19 q 1525 0 1544 0 l 1057 0 q 1015 13 1026 0 q 1004 40 1004 26 q 1010 74 1004 58 q 1025 101 1017 90 l 1422 632 l 1161 632 l 1161 599 q 1144 526 1161 543 q 1085 510 1128 510 q 1044 525 1054 510 q 1033 568 1033 540 l 1033 654 q 1046 688 1033 678 q 1078 697 1058 697 l 1528 697 m 1306 871 l 1383 946 q 1433 979 1407 969 q 1481 989 1458 989 q 1522 980 1506 989 q 1538 958 1538 971 q 1532 946 1538 951 l 1379 794 q 1311 768 1353 768 q 1268 774 1288 768 q 1233 794 1249 781 l 1081 946 q 1075 958 1075 951 q 1091 980 1075 971 q 1132 989 1107 989 q 1179 979 1154 989 q 1229 946 1204 969 l 1306 871 z "},"E":{"ha":835,"x_min":139,"x_max":779,"o":"m 699 743 q 639 763 660 743 q 618 833 618 783 l 618 911 l 289 911 l 289 547 l 581 547 q 610 535 600 547 q 619 508 619 524 q 608 483 619 494 q 581 471 596 471 l 289 471 l 289 74 l 639 74 l 639 151 q 660 222 639 201 q 719 242 681 242 q 779 172 779 242 l 779 51 q 758 10 779 21 q 696 0 736 0 l 203 0 q 139 69 139 0 l 139 915 q 203 985 139 985 l 675 985 q 737 975 715 985 q 758 933 758 965 l 758 813 q 699 743 758 743 z "},"É":{"ha":835,"x_min":139,"x_max":779,"o":"m 699 743 q 639 763 660 743 q 618 833 618 783 l 618 911 l 289 911 l 289 547 l 581 547 q 610 535 600 547 q 619 508 619 524 q 608 483 619 494 q 581 471 596 471 l 289 471 l 289 74 l 639 74 l 639 151 q 660 222 639 201 q 719 242 681 242 q 779 172 779 242 l 779 51 q 758 10 779 21 q 696 0 736 0 l 203 0 q 139 69 139 0 l 139 915 q 203 985 139 985 l 675 985 q 737 975 715 985 q 758 933 758 965 l 758 813 q 699 743 758 743 m 506 1086 q 484 1070 499 1076 q 454 1064 469 1064 q 422 1075 432 1064 q 418 1104 411 1086 l 497 1301 q 529 1329 506 1321 q 579 1338 553 1338 q 644 1324 619 1338 q 653 1290 668 1311 l 506 1086 z "},"Ĕ":{"ha":835,"x_min":139,"x_max":779,"o":"m 699 743 q 639 763 660 743 q 618 833 618 783 l 618 911 l 289 911 l 289 547 l 581 547 q 610 535 600 547 q 619 508 619 524 q 608 483 619 494 q 581 471 596 471 l 289 471 l 289 74 l 639 74 l 639 151 q 660 222 639 201 q 719 242 681 242 q 779 172 779 242 l 779 51 q 758 10 779 21 q 696 0 736 0 l 203 0 q 139 69 139 0 l 139 915 q 203 985 139 985 l 675 985 q 737 975 715 985 q 758 933 758 965 l 758 813 q 699 743 758 743 m 685 1236 q 629 1111 685 1163 q 481 1060 574 1060 q 333 1111 389 1060 q 278 1236 278 1163 q 288 1263 278 1251 q 315 1275 297 1275 q 365 1238 351 1275 q 415 1167 385 1183 q 481 1151 444 1151 q 548 1167 518 1151 q 597 1238 578 1183 q 647 1275 611 1275 q 676 1263 667 1275 q 685 1236 685 1251 z "},"Ě":{"ha":835,"x_min":139,"x_max":779,"o":"m 699 743 q 639 763 660 743 q 618 833 618 783 l 618 911 l 289 911 l 289 547 l 581 547 q 610 535 600 547 q 619 508 619 524 q 608 483 619 494 q 581 471 596 471 l 289 471 l 289 74 l 639 74 l 639 151 q 660 222 639 201 q 719 242 681 242 q 779 172 779 242 l 779 51 q 758 10 779 21 q 696 0 736 0 l 203 0 q 139 69 139 0 l 139 915 q 203 985 139 985 l 675 985 q 737 975 715 985 q 758 933 758 965 l 758 813 q 699 743 758 743 m 481 1158 l 558 1233 q 608 1267 582 1257 q 656 1276 633 1276 q 697 1267 681 1276 q 713 1246 713 1258 q 707 1233 713 1239 l 554 1082 q 486 1056 528 1056 q 443 1062 463 1056 q 408 1082 424 1068 l 256 1233 q 250 1246 250 1239 q 266 1267 250 1258 q 307 1276 282 1276 q 354 1267 329 1276 q 404 1233 379 1257 l 481 1158 z "},"Ê":{"ha":835,"x_min":139,"x_max":779,"o":"m 699 743 q 639 763 660 743 q 618 833 618 783 l 618 911 l 289 911 l 289 547 l 581 547 q 610 535 600 547 q 619 508 619 524 q 608 483 619 494 q 581 471 596 471 l 289 471 l 289 74 l 639 74 l 639 151 q 660 222 639 201 q 719 242 681 242 q 779 172 779 242 l 779 51 q 758 10 779 21 q 696 0 736 0 l 203 0 q 139 69 139 0 l 139 915 q 203 985 139 985 l 675 985 q 737 975 715 985 q 758 933 758 965 l 758 813 q 699 743 758 743 m 482 1175 l 410 1103 q 364 1071 388 1081 q 319 1061 340 1061 q 282 1070 297 1061 q 267 1090 267 1079 q 272 1103 267 1097 l 414 1250 q 444 1269 425 1263 q 482 1275 463 1275 q 520 1269 501 1275 q 550 1250 539 1263 l 692 1103 q 697 1090 697 1097 q 683 1070 697 1079 q 644 1061 668 1061 q 600 1071 624 1061 q 554 1103 576 1081 l 482 1175 z "},"Ế":{"ha":835,"x_min":139,"x_max":814,"o":"m 699 743 q 639 763 660 743 q 618 833 618 783 l 618 911 l 289 911 l 289 547 l 581 547 q 610 535 600 547 q 619 508 619 524 q 608 483 619 494 q 581 471 596 471 l 289 471 l 289 74 l 639 74 l 639 151 q 660 222 639 201 q 719 242 681 242 q 779 172 779 242 l 779 51 q 758 10 779 21 q 696 0 736 0 l 203 0 q 139 69 139 0 l 139 915 q 203 985 139 985 l 675 985 q 737 975 715 985 q 758 933 758 965 l 758 813 q 699 743 758 743 m 482 1175 l 410 1103 q 364 1071 388 1081 q 319 1061 340 1061 q 282 1070 297 1061 q 267 1090 267 1079 q 272 1103 267 1097 l 414 1250 q 444 1269 425 1263 q 482 1275 463 1275 q 520 1269 501 1275 q 550 1250 539 1263 l 692 1103 q 697 1090 697 1097 q 683 1070 697 1079 q 644 1061 668 1061 q 600 1071 624 1061 q 554 1103 576 1081 l 482 1175 m 688 1233 q 640 1214 671 1214 q 617 1220 626 1214 q 607 1238 607 1226 q 610 1249 607 1244 l 675 1406 q 703 1430 682 1422 q 746 1438 724 1438 q 795 1429 776 1438 q 814 1408 814 1421 q 810 1396 814 1400 l 688 1233 z "},"Ệ":{"ha":835,"x_min":139,"x_max":779,"o":"m 699 743 q 639 763 660 743 q 618 833 618 783 l 618 911 l 289 911 l 289 547 l 581 547 q 610 535 600 547 q 619 508 619 524 q 608 483 619 494 q 581 471 596 471 l 289 471 l 289 74 l 639 74 l 639 151 q 660 222 639 201 q 719 242 681 242 q 779 172 779 242 l 779 51 q 758 10 779 21 q 696 0 736 0 l 203 0 q 139 69 139 0 l 139 915 q 203 985 139 985 l 675 985 q 737 975 715 985 q 758 933 758 965 l 758 813 q 699 743 758 743 m 482 1175 l 410 1103 q 364 1071 388 1081 q 319 1061 340 1061 q 282 1070 297 1061 q 267 1090 267 1079 q 272 1103 267 1097 l 414 1250 q 444 1269 425 1263 q 482 1275 463 1275 q 520 1269 501 1275 q 550 1250 539 1263 l 692 1103 q 697 1090 697 1097 q 683 1070 697 1079 q 644 1061 668 1061 q 600 1071 624 1061 q 554 1103 576 1081 l 482 1175 z "},"Ề":{"ha":835,"x_min":139,"x_max":779,"o":"m 699 743 q 639 763 660 743 q 618 833 618 783 l 618 911 l 289 911 l 289 547 l 581 547 q 610 535 600 547 q 619 508 619 524 q 608 483 619 494 q 581 471 596 471 l 289 471 l 289 74 l 639 74 l 639 151 q 660 222 639 201 q 719 242 681 242 q 779 172 779 242 l 779 51 q 758 10 779 21 q 696 0 736 0 l 203 0 q 139 69 139 0 l 139 915 q 203 985 139 985 l 675 985 q 737 975 715 985 q 758 933 758 965 l 758 813 q 699 743 758 743 m 482 1175 l 410 1103 q 364 1071 388 1081 q 319 1061 340 1061 q 282 1070 297 1061 q 267 1090 267 1079 q 272 1103 267 1097 l 414 1250 q 444 1269 425 1263 q 482 1275 463 1275 q 520 1269 501 1275 q 550 1250 539 1263 l 692 1103 q 697 1090 697 1097 q 683 1070 697 1079 q 644 1061 668 1061 q 600 1071 624 1061 q 554 1103 576 1081 l 482 1175 m 628 1233 l 506 1396 q 503 1408 503 1400 q 521 1429 503 1421 q 569 1438 539 1438 q 613 1430 592 1438 q 640 1406 633 1422 l 706 1249 q 708 1238 708 1244 q 699 1220 708 1226 q 675 1214 689 1214 q 628 1233 644 1214 z "},"Ể":{"ha":835,"x_min":139,"x_max":840,"o":"m 699 743 q 639 763 660 743 q 618 833 618 783 l 618 911 l 289 911 l 289 547 l 581 547 q 610 535 600 547 q 619 508 619 524 q 608 483 619 494 q 581 471 596 471 l 289 471 l 289 74 l 639 74 l 639 151 q 660 222 639 201 q 719 242 681 242 q 779 172 779 242 l 779 51 q 758 10 779 21 q 696 0 736 0 l 203 0 q 139 69 139 0 l 139 915 q 203 985 139 985 l 675 985 q 737 975 715 985 q 758 933 758 965 l 758 813 q 699 743 758 743 m 482 1175 l 410 1103 q 364 1071 388 1081 q 319 1061 340 1061 q 282 1070 297 1061 q 267 1090 267 1079 q 272 1103 267 1097 l 414 1250 q 444 1269 425 1263 q 482 1275 463 1275 q 520 1269 501 1275 q 550 1250 539 1263 l 692 1103 q 697 1090 697 1097 q 683 1070 697 1079 q 644 1061 668 1061 q 600 1071 624 1061 q 554 1103 576 1081 l 482 1175 m 638 1249 q 701 1306 679 1286 q 730 1341 722 1326 q 738 1375 738 1356 q 724 1415 738 1399 q 681 1431 710 1431 q 640 1423 656 1431 q 611 1408 624 1415 q 583 1400 599 1400 q 557 1426 557 1400 q 579 1466 557 1450 q 635 1490 601 1482 q 701 1499 668 1499 q 784 1482 754 1499 q 827 1441 814 1465 q 840 1392 840 1417 q 803 1301 840 1342 q 726 1221 765 1260 q 699 1201 714 1207 q 669 1196 683 1196 q 629 1212 643 1196 q 638 1249 615 1228 z "},"Ễ":{"ha":835,"x_min":139,"x_max":779,"o":"m 699 743 q 639 763 660 743 q 618 833 618 783 l 618 911 l 289 911 l 289 547 l 581 547 q 610 535 600 547 q 619 508 619 524 q 608 483 619 494 q 581 471 596 471 l 289 471 l 289 74 l 639 74 l 639 151 q 660 222 639 201 q 719 242 681 242 q 779 172 779 242 l 779 51 q 758 10 779 21 q 696 0 736 0 l 203 0 q 139 69 139 0 l 139 915 q 203 985 139 985 l 675 985 q 737 975 715 985 q 758 933 758 965 l 758 813 q 699 743 758 743 m 482 1175 l 410 1103 q 364 1071 388 1081 q 319 1061 340 1061 q 282 1070 297 1061 q 267 1090 267 1079 q 272 1103 267 1097 l 414 1250 q 444 1269 425 1263 q 482 1275 463 1275 q 520 1269 501 1275 q 550 1250 539 1263 l 692 1103 q 697 1090 697 1097 q 683 1070 697 1079 q 644 1061 668 1061 q 600 1071 624 1061 q 554 1103 576 1081 l 482 1175 m 389 1364 q 357 1355 367 1364 q 343 1335 347 1346 q 332 1315 339 1324 q 306 1306 325 1306 q 274 1314 282 1306 q 267 1333 267 1322 q 283 1389 267 1358 q 330 1442 299 1419 q 406 1464 361 1464 q 438 1459 417 1463 q 493 1443 458 1456 q 537 1426 517 1433 q 579 1418 557 1418 q 607 1425 599 1418 q 621 1442 615 1432 q 635 1464 628 1453 q 665 1475 642 1475 q 689 1467 682 1475 q 696 1449 696 1460 q 686 1411 696 1431 q 632 1339 664 1360 q 568 1318 600 1318 q 518 1325 540 1318 q 472 1342 496 1332 q 421 1359 439 1354 q 389 1364 403 1364 z "},"Ȅ":{"ha":835,"x_min":139,"x_max":779,"o":"m 699 743 q 639 763 660 743 q 618 833 618 783 l 618 911 l 289 911 l 289 547 l 581 547 q 610 535 600 547 q 619 508 619 524 q 608 483 619 494 q 581 471 596 471 l 289 471 l 289 74 l 639 74 l 639 151 q 660 222 639 201 q 719 242 681 242 q 779 172 779 242 l 779 51 q 758 10 779 21 q 696 0 736 0 l 203 0 q 139 69 139 0 l 139 915 q 203 985 139 985 l 675 985 q 737 975 715 985 q 758 933 758 965 l 758 813 q 699 743 758 743 m 258 1282 q 254 1294 254 1286 q 272 1319 254 1310 q 322 1328 290 1328 q 365 1319 344 1328 q 393 1292 386 1311 l 458 1118 q 461 1106 461 1113 q 451 1086 461 1093 q 426 1079 440 1079 q 381 1101 396 1079 l 258 1282 m 453 1282 q 449 1294 449 1286 q 467 1319 449 1310 q 517 1328 485 1328 q 560 1319 539 1328 q 588 1292 581 1311 l 653 1118 q 656 1106 656 1113 q 645 1086 656 1093 q 621 1079 635 1079 q 575 1101 590 1079 l 453 1282 z "},"Ë":{"ha":835,"x_min":139,"x_max":779,"o":"m 699 743 q 639 763 660 743 q 618 833 618 783 l 618 911 l 289 911 l 289 547 l 581 547 q 610 535 600 547 q 619 508 619 524 q 608 483 619 494 q 581 471 596 471 l 289 471 l 289 74 l 639 74 l 639 151 q 660 222 639 201 q 719 242 681 242 q 779 172 779 242 l 779 51 q 758 10 779 21 q 696 0 736 0 l 203 0 q 139 69 139 0 l 139 915 q 203 985 139 985 l 675 985 q 737 975 715 985 q 758 933 758 965 l 758 813 q 699 743 758 743 m 243 1183 q 272 1251 243 1222 q 336 1279 301 1279 q 405 1251 376 1279 q 433 1183 433 1222 q 405 1118 433 1147 q 336 1089 376 1089 q 272 1118 301 1089 q 243 1183 243 1147 m 531 1182 q 559 1250 531 1222 q 625 1278 588 1278 q 692 1250 663 1278 q 721 1182 721 1222 q 692 1117 721 1146 q 625 1088 663 1088 q 559 1117 588 1088 q 531 1182 531 1146 z "},"Ė":{"ha":835,"x_min":139,"x_max":779,"o":"m 699 743 q 639 763 660 743 q 618 833 618 783 l 618 911 l 289 911 l 289 547 l 581 547 q 610 535 600 547 q 619 508 619 524 q 608 483 619 494 q 581 471 596 471 l 289 471 l 289 74 l 639 74 l 639 151 q 660 222 639 201 q 719 242 681 242 q 779 172 779 242 l 779 51 q 758 10 779 21 q 696 0 736 0 l 203 0 q 139 69 139 0 l 139 915 q 203 985 139 985 l 675 985 q 737 975 715 985 q 758 933 758 965 l 758 813 q 699 743 758 743 m 396 1161 q 422 1222 396 1197 q 482 1247 447 1247 q 543 1222 518 1247 q 568 1161 568 1197 q 543 1101 568 1126 q 482 1075 518 1075 q 422 1101 447 1075 q 396 1161 396 1126 z "},"Ẹ":{"ha":835,"x_min":139,"x_max":779,"o":"m 699 743 q 639 763 660 743 q 618 833 618 783 l 618 911 l 289 911 l 289 547 l 581 547 q 610 535 600 547 q 619 508 619 524 q 608 483 619 494 q 581 471 596 471 l 289 471 l 289 74 l 639 74 l 639 151 q 660 222 639 201 q 719 242 681 242 q 779 172 779 242 l 779 51 q 758 10 779 21 q 696 0 736 0 l 203 0 q 139 69 139 0 l 139 915 q 203 985 139 985 l 675 985 q 737 975 715 985 q 758 933 758 965 l 758 813 q 699 743 758 743 m 332 -182 q 358 -121 332 -146 q 418 -96 383 -96 q 479 -121 454 -96 q 504 -182 504 -146 q 479 -242 504 -217 q 418 -268 454 -268 q 358 -242 383 -268 q 332 -182 332 -217 z "},"È":{"ha":835,"x_min":139,"x_max":779,"o":"m 699 743 q 639 763 660 743 q 618 833 618 783 l 618 911 l 289 911 l 289 547 l 581 547 q 610 535 600 547 q 619 508 619 524 q 608 483 619 494 q 581 471 596 471 l 289 471 l 289 74 l 639 74 l 639 151 q 660 222 639 201 q 719 242 681 242 q 779 172 779 242 l 779 51 q 758 10 779 21 q 696 0 736 0 l 203 0 q 139 69 139 0 l 139 915 q 203 985 139 985 l 675 985 q 737 975 715 985 q 758 933 758 965 l 758 813 q 699 743 758 743 m 324 1290 q 319 1304 319 1297 q 397 1338 319 1338 q 448 1329 424 1338 q 479 1301 472 1321 l 558 1104 q 561 1090 561 1099 q 550 1071 561 1078 q 522 1064 539 1064 q 471 1086 489 1064 l 324 1290 z "},"Ẻ":{"ha":835,"x_min":139,"x_max":779,"o":"m 699 743 q 639 763 660 743 q 618 833 618 783 l 618 911 l 289 911 l 289 547 l 581 547 q 610 535 600 547 q 619 508 619 524 q 608 483 619 494 q 581 471 596 471 l 289 471 l 289 74 l 639 74 l 639 151 q 660 222 639 201 q 719 242 681 242 q 779 172 779 242 l 779 51 q 758 10 779 21 q 696 0 736 0 l 203 0 q 139 69 139 0 l 139 915 q 203 985 139 985 l 675 985 q 737 975 715 985 q 758 933 758 965 l 758 813 q 699 743 758 743 m 435 1079 q 498 1137 476 1117 q 527 1172 519 1157 q 535 1206 535 1186 q 521 1245 535 1229 q 478 1261 507 1261 q 437 1253 453 1261 q 408 1238 421 1246 q 381 1231 396 1231 q 354 1257 354 1231 q 376 1297 354 1281 q 432 1321 399 1313 q 499 1329 465 1329 q 581 1313 551 1329 q 624 1272 611 1296 q 638 1222 638 1247 q 600 1131 638 1172 q 524 1051 563 1090 q 496 1032 511 1038 q 467 1026 481 1026 q 426 1042 440 1026 q 435 1079 413 1058 z "},"Ȇ":{"ha":835,"x_min":139,"x_max":779,"o":"m 699 743 q 639 763 660 743 q 618 833 618 783 l 618 911 l 289 911 l 289 547 l 581 547 q 610 535 600 547 q 619 508 619 524 q 608 483 619 494 q 581 471 596 471 l 289 471 l 289 74 l 639 74 l 639 151 q 660 222 639 201 q 719 242 681 242 q 779 172 779 242 l 779 51 q 758 10 779 21 q 696 0 736 0 l 203 0 q 139 69 139 0 l 139 915 q 203 985 139 985 l 675 985 q 737 975 715 985 q 758 933 758 965 l 758 813 q 699 743 758 743 m 685 1099 q 676 1072 685 1083 q 647 1060 667 1060 q 597 1097 611 1060 q 548 1167 578 1151 q 481 1183 518 1183 q 415 1167 444 1183 q 365 1097 385 1151 q 315 1060 351 1060 q 288 1072 297 1060 q 278 1099 278 1083 q 333 1224 278 1172 q 481 1275 389 1275 q 629 1224 574 1275 q 685 1099 685 1172 z "},"Ē":{"ha":835,"x_min":139,"x_max":779,"o":"m 699 743 q 639 763 660 743 q 618 833 618 783 l 618 911 l 289 911 l 289 547 l 581 547 q 610 535 600 547 q 619 508 619 524 q 608 483 619 494 q 581 471 596 471 l 289 471 l 289 74 l 639 74 l 639 151 q 660 222 639 201 q 719 242 681 242 q 779 172 779 242 l 779 51 q 758 10 779 21 q 696 0 736 0 l 203 0 q 139 69 139 0 l 139 915 q 203 985 139 985 l 675 985 q 737 975 715 985 q 758 933 758 965 l 758 813 q 699 743 758 743 m 306 1093 q 282 1105 292 1093 q 272 1135 272 1117 q 282 1166 272 1154 q 306 1178 292 1178 l 658 1178 q 681 1166 671 1178 q 692 1135 692 1154 q 658 1093 692 1093 l 306 1093 z "},"Ę":{"ha":835,"x_min":139,"x_max":896,"o":"m 699 743 q 639 763 660 743 q 618 833 618 783 l 618 911 l 289 911 l 289 547 l 581 547 q 610 535 600 547 q 619 508 619 524 q 608 483 619 494 q 581 471 596 471 l 289 471 l 289 74 l 639 74 l 639 151 q 660 222 639 201 q 719 242 681 242 q 779 172 779 242 l 779 51 q 758 10 779 21 q 696 0 736 0 l 203 0 q 139 69 139 0 l 139 915 q 203 985 139 985 l 675 985 q 737 975 715 985 q 758 933 758 965 l 758 813 q 699 743 758 743 m 825 14 q 742 -76 765 -36 q 718 -149 718 -115 q 734 -192 718 -175 q 776 -208 750 -208 q 817 -201 803 -208 q 843 -185 832 -193 q 869 -178 854 -178 q 896 -204 896 -178 q 871 -244 896 -228 q 810 -268 846 -260 q 743 -276 775 -276 q 642 -240 671 -276 q 613 -162 613 -204 q 751 14 613 -65 l 825 14 z "},"Ẽ":{"ha":835,"x_min":139,"x_max":779,"o":"m 699 743 q 639 763 660 743 q 618 833 618 783 l 618 911 l 289 911 l 289 547 l 581 547 q 610 535 600 547 q 619 508 619 524 q 608 483 619 494 q 581 471 596 471 l 289 471 l 289 74 l 639 74 l 639 151 q 660 222 639 201 q 719 242 681 242 q 779 172 779 242 l 779 51 q 758 10 779 21 q 696 0 736 0 l 203 0 q 139 69 139 0 l 139 915 q 203 985 139 985 l 675 985 q 737 975 715 985 q 758 933 758 965 l 758 813 q 699 743 758 743 m 389 1129 q 357 1120 367 1129 q 343 1100 347 1111 q 332 1080 339 1089 q 306 1071 325 1071 q 274 1079 282 1071 q 267 1099 267 1088 q 283 1154 267 1124 q 330 1207 299 1185 q 406 1229 361 1229 q 438 1224 417 1228 q 493 1208 458 1221 q 537 1191 517 1199 q 579 1183 557 1183 q 607 1190 599 1183 q 621 1207 615 1197 q 635 1229 628 1218 q 665 1240 642 1240 q 689 1233 682 1240 q 696 1214 696 1225 q 686 1176 696 1196 q 632 1104 664 1125 q 568 1083 600 1083 q 518 1090 540 1083 q 472 1107 496 1097 q 421 1124 439 1119 q 389 1129 403 1129 z "},"Ə":{"ha":924,"x_min":58,"x_max":850,"o":"m 436 985 q 751 854 653 985 q 850 492 850 724 q 842 383 850 446 q 812 253 835 319 q 745 129 789 186 q 631 36 701 72 q 453 0 560 0 q 168 119 264 0 q 60 472 72 239 q 80 526 58 504 q 132 547 101 547 l 692 547 q 648 769 686 690 q 546 881 610 849 q 397 913 482 913 q 307 902 354 913 q 215 872 260 892 l 189 861 q 183 859 186 860 q 178 858 181 858 q 154 872 164 858 q 144 900 144 886 q 163 928 144 919 l 186 938 q 295 972 238 958 q 436 985 353 985 m 453 71 q 558 98 515 71 q 628 169 601 125 q 668 267 654 214 q 687 374 682 321 q 693 471 692 428 l 271 471 q 229 457 246 471 q 214 421 213 443 q 229 305 217 365 q 267 191 242 244 q 338 104 293 138 q 453 71 383 71 z "},"F":{"ha":772,"x_min":139,"x_max":758,"o":"m 289 464 l 289 90 q 267 20 289 40 q 203 0 246 0 q 139 69 139 0 l 139 915 q 203 985 139 985 l 675 985 q 737 975 715 985 q 758 933 758 965 l 758 826 q 699 757 758 757 q 639 777 660 757 q 618 847 618 797 l 618 911 l 289 911 l 289 540 l 581 540 q 619 501 619 540 q 581 464 619 464 l 289 464 z "},"G":{"ha":944,"x_min":74,"x_max":847,"o":"m 742 735 q 682 755 703 735 q 661 825 661 775 l 661 903 q 606 912 632 910 q 549 914 579 914 q 388 867 460 914 q 273 724 315 819 q 231 482 231 628 q 268 233 231 322 q 374 107 306 143 q 535 71 442 71 q 614 76 569 71 q 701 99 658 81 l 701 399 l 546 399 q 519 410 528 399 q 511 436 511 422 q 521 463 511 451 q 550 475 531 475 l 786 475 q 836 460 825 475 q 847 419 847 446 l 847 132 q 835 75 847 90 q 803 51 824 60 q 660 12 731 24 q 508 0 590 0 q 258 59 354 0 q 118 226 163 118 q 74 485 74 335 q 136 769 74 658 q 303 932 199 879 q 532 985 408 985 q 639 977 585 985 q 744 954 693 969 q 789 931 776 944 q 801 886 801 918 l 801 804 q 742 735 801 735 z "},"Ğ":{"ha":944,"x_min":74,"x_max":847,"o":"m 742 735 q 682 755 703 735 q 661 825 661 775 l 661 903 q 606 912 632 910 q 549 914 579 914 q 388 867 460 914 q 273 724 315 819 q 231 482 231 628 q 268 233 231 322 q 374 107 306 143 q 535 71 442 71 q 614 76 569 71 q 701 99 658 81 l 701 399 l 546 399 q 519 410 528 399 q 511 436 511 422 q 521 463 511 451 q 550 475 531 475 l 786 475 q 836 460 825 475 q 847 419 847 446 l 847 132 q 835 75 847 90 q 803 51 824 60 q 660 12 731 24 q 508 0 590 0 q 258 59 354 0 q 118 226 163 118 q 74 485 74 335 q 136 769 74 658 q 303 932 199 879 q 532 985 408 985 q 639 977 585 985 q 744 954 693 969 q 789 931 776 944 q 801 886 801 918 l 801 804 q 742 735 801 735 m 731 1236 q 675 1111 731 1163 q 526 1060 619 1060 q 379 1111 435 1060 q 324 1236 324 1163 q 333 1263 324 1251 q 361 1275 343 1275 q 411 1238 397 1275 q 460 1167 431 1183 q 526 1151 490 1151 q 594 1167 564 1151 q 643 1238 624 1183 q 693 1275 657 1275 q 722 1263 713 1275 q 731 1236 731 1251 z "},"Ǧ":{"ha":944,"x_min":74,"x_max":847,"o":"m 742 735 q 682 755 703 735 q 661 825 661 775 l 661 903 q 606 912 632 910 q 549 914 579 914 q 388 867 460 914 q 273 724 315 819 q 231 482 231 628 q 268 233 231 322 q 374 107 306 143 q 535 71 442 71 q 614 76 569 71 q 701 99 658 81 l 701 399 l 546 399 q 519 410 528 399 q 511 436 511 422 q 521 463 511 451 q 550 475 531 475 l 786 475 q 836 460 825 475 q 847 419 847 446 l 847 132 q 835 75 847 90 q 803 51 824 60 q 660 12 731 24 q 508 0 590 0 q 258 59 354 0 q 118 226 163 118 q 74 485 74 335 q 136 769 74 658 q 303 932 199 879 q 532 985 408 985 q 639 977 585 985 q 744 954 693 969 q 789 931 776 944 q 801 886 801 918 l 801 804 q 742 735 801 735 m 526 1158 l 604 1233 q 653 1267 628 1257 q 701 1276 679 1276 q 742 1267 726 1276 q 758 1246 758 1258 q 753 1233 758 1239 l 600 1082 q 532 1056 574 1056 q 489 1062 508 1056 q 454 1082 469 1068 l 301 1233 q 296 1246 296 1239 q 312 1267 296 1258 q 353 1276 328 1276 q 400 1267 375 1276 q 450 1233 425 1257 l 526 1158 z "},"Ĝ":{"ha":944,"x_min":74,"x_max":847,"o":"m 742 735 q 682 755 703 735 q 661 825 661 775 l 661 903 q 606 912 632 910 q 549 914 579 914 q 388 867 460 914 q 273 724 315 819 q 231 482 231 628 q 268 233 231 322 q 374 107 306 143 q 535 71 442 71 q 614 76 569 71 q 701 99 658 81 l 701 399 l 546 399 q 519 410 528 399 q 511 436 511 422 q 521 463 511 451 q 550 475 531 475 l 786 475 q 836 460 825 475 q 847 419 847 446 l 847 132 q 835 75 847 90 q 803 51 824 60 q 660 12 731 24 q 508 0 590 0 q 258 59 354 0 q 118 226 163 118 q 74 485 74 335 q 136 769 74 658 q 303 932 199 879 q 532 985 408 985 q 639 977 585 985 q 744 954 693 969 q 789 931 776 944 q 801 886 801 918 l 801 804 q 742 735 801 735 m 528 1175 l 456 1103 q 410 1071 433 1081 q 365 1061 386 1061 q 328 1070 343 1061 q 313 1090 313 1079 q 318 1103 313 1097 l 460 1250 q 490 1269 471 1263 q 528 1275 508 1275 q 566 1269 547 1275 q 596 1250 585 1263 l 738 1103 q 743 1090 743 1097 q 728 1070 743 1079 q 690 1061 714 1061 q 646 1071 669 1061 q 600 1103 622 1081 l 528 1175 z "},"Ģ":{"ha":944,"x_min":74,"x_max":847,"o":"m 742 735 q 682 755 703 735 q 661 825 661 775 l 661 903 q 606 912 632 910 q 549 914 579 914 q 388 867 460 914 q 273 724 315 819 q 231 482 231 628 q 268 233 231 322 q 374 107 306 143 q 535 71 442 71 q 614 76 569 71 q 701 99 658 81 l 701 399 l 546 399 q 519 410 528 399 q 511 436 511 422 q 521 463 511 451 q 550 475 531 475 l 786 475 q 836 460 825 475 q 847 419 847 446 l 847 132 q 835 75 847 90 q 803 51 824 60 q 660 12 731 24 q 508 0 590 0 q 258 59 354 0 q 118 226 163 118 q 74 485 74 335 q 136 769 74 658 q 303 932 199 879 q 532 985 408 985 q 639 977 585 985 q 744 954 693 969 q 789 931 776 944 q 801 886 801 918 l 801 804 q 742 735 801 735 m 513 -314 q 449 -350 483 -350 q 424 -342 435 -350 q 413 -319 413 -333 l 446 -137 q 473 -92 453 -106 q 525 -78 493 -78 q 580 -92 560 -78 q 600 -137 600 -106 q 581 -212 600 -171 q 513 -314 561 -253 z "},"Ġ":{"ha":944,"x_min":74,"x_max":847,"o":"m 742 735 q 682 755 703 735 q 661 825 661 775 l 661 903 q 606 912 632 910 q 549 914 579 914 q 388 867 460 914 q 273 724 315 819 q 231 482 231 628 q 268 233 231 322 q 374 107 306 143 q 535 71 442 71 q 614 76 569 71 q 701 99 658 81 l 701 399 l 546 399 q 519 410 528 399 q 511 436 511 422 q 521 463 511 451 q 550 475 531 475 l 786 475 q 836 460 825 475 q 847 419 847 446 l 847 132 q 835 75 847 90 q 803 51 824 60 q 660 12 731 24 q 508 0 590 0 q 258 59 354 0 q 118 226 163 118 q 74 485 74 335 q 136 769 74 658 q 303 932 199 879 q 532 985 408 985 q 639 977 585 985 q 744 954 693 969 q 789 931 776 944 q 801 886 801 918 l 801 804 q 742 735 801 735 m 442 1161 q 467 1222 442 1197 q 528 1247 493 1247 q 589 1222 564 1247 q 614 1161 614 1197 q 589 1101 614 1126 q 528 1075 564 1075 q 467 1101 493 1075 q 442 1161 442 1126 z "},"H":{"ha":1031,"x_min":139,"x_max":892,"o":"m 828 985 q 892 915 892 985 l 892 69 q 877 15 892 31 q 831 0 863 0 q 742 107 742 0 l 742 471 l 289 471 l 289 90 q 267 20 289 40 q 203 0 246 0 q 139 69 139 0 l 139 915 q 153 969 139 954 q 200 985 168 985 q 289 878 289 985 l 289 547 l 742 547 l 742 894 q 763 965 742 944 q 828 985 785 985 z "},"Ħ":{"ha":1031,"x_min":139,"x_max":892,"o":"m 828 985 q 892 915 892 985 l 892 69 q 877 15 892 31 q 831 0 863 0 q 742 107 742 0 l 742 471 l 289 471 l 289 90 q 267 20 289 40 q 203 0 246 0 q 139 69 139 0 l 139 915 q 153 969 139 954 q 200 985 168 985 q 289 878 289 985 l 289 547 l 742 547 l 742 894 q 763 965 742 944 q 828 985 785 985 z "},"Ĥ":{"ha":1031,"x_min":139,"x_max":892,"o":"m 828 985 q 892 915 892 985 l 892 69 q 877 15 892 31 q 831 0 863 0 q 742 107 742 0 l 742 471 l 289 471 l 289 90 q 267 20 289 40 q 203 0 246 0 q 139 69 139 0 l 139 915 q 153 969 139 954 q 200 985 168 985 q 289 878 289 985 l 289 547 l 742 547 l 742 894 q 763 965 742 944 q 828 985 785 985 m 515 1175 l 443 1103 q 397 1071 421 1081 q 353 1061 374 1061 q 315 1070 331 1061 q 300 1090 300 1079 q 306 1103 300 1097 l 447 1250 q 477 1269 458 1263 q 515 1275 496 1275 q 553 1269 535 1275 q 583 1250 572 1263 l 725 1103 q 731 1090 731 1097 q 716 1070 731 1079 q 678 1061 701 1061 q 633 1071 657 1061 q 588 1103 610 1081 l 515 1175 z "},"I":{"ha":567,"x_min":28,"x_max":539,"o":"m 69 0 q 35 10 43 0 q 28 33 28 21 q 38 61 28 49 q 83 74 49 74 l 208 74 l 208 911 l 83 911 q 38 924 49 911 q 28 951 28 936 q 35 974 28 964 q 69 985 43 985 l 497 985 q 532 974 525 985 q 539 951 539 964 q 529 924 539 936 q 483 911 519 911 l 358 911 l 358 74 l 483 74 q 529 61 519 74 q 539 33 539 49 q 532 10 539 21 q 497 0 525 0 l 69 0 z "},"Ĳ":{"ha":1239,"x_min":28,"x_max":1133,"o":"m 69 0 q 35 10 43 0 q 28 33 28 21 q 38 61 28 49 q 83 74 49 74 l 208 74 l 208 911 l 83 911 q 38 924 49 911 q 28 951 28 936 q 35 974 28 964 q 69 985 43 985 l 497 985 q 532 974 525 985 q 539 951 539 964 q 529 924 539 936 q 483 911 519 911 l 358 911 l 358 74 l 483 74 q 529 61 519 74 q 539 33 539 49 q 532 10 539 21 q 497 0 525 0 l 69 0 m 1069 985 q 1133 915 1133 985 l 1133 363 q 1127 277 1133 325 q 1103 181 1121 229 q 1049 91 1085 132 q 956 25 1014 50 q 811 0 897 0 q 752 4 786 0 q 688 15 718 8 q 643 29 658 21 q 615 72 615 43 l 615 165 q 675 235 615 235 q 735 215 715 235 q 756 144 756 194 l 756 76 q 785 74 768 75 q 814 72 803 72 q 919 106 882 72 q 969 190 956 140 q 983 289 983 240 l 983 894 q 1005 965 983 944 q 1069 985 1026 985 z "},"Í":{"ha":567,"x_min":28,"x_max":539,"o":"m 69 0 q 35 10 43 0 q 28 33 28 21 q 38 61 28 49 q 83 74 49 74 l 208 74 l 208 911 l 83 911 q 38 924 49 911 q 28 951 28 936 q 35 974 28 964 q 69 985 43 985 l 497 985 q 532 974 525 985 q 539 951 539 964 q 529 924 539 936 q 483 911 519 911 l 358 911 l 358 74 l 483 74 q 529 61 519 74 q 539 33 539 49 q 532 10 539 21 q 497 0 525 0 l 69 0 m 307 1086 q 285 1070 300 1076 q 256 1064 271 1064 q 223 1075 233 1064 q 219 1104 213 1086 l 299 1301 q 331 1329 307 1321 q 381 1338 354 1338 q 445 1324 421 1338 q 454 1290 469 1311 l 307 1086 z "},"Ĭ":{"ha":567,"x_min":28,"x_max":539,"o":"m 69 0 q 35 10 43 0 q 28 33 28 21 q 38 61 28 49 q 83 74 49 74 l 208 74 l 208 911 l 83 911 q 38 924 49 911 q 28 951 28 936 q 35 974 28 964 q 69 985 43 985 l 497 985 q 532 974 525 985 q 539 951 539 964 q 529 924 539 936 q 483 911 519 911 l 358 911 l 358 74 l 483 74 q 529 61 519 74 q 539 33 539 49 q 532 10 539 21 q 497 0 525 0 l 69 0 m 486 1236 q 431 1111 486 1163 q 282 1060 375 1060 q 135 1111 190 1060 q 79 1236 79 1163 q 89 1263 79 1251 q 117 1275 99 1275 q 167 1238 153 1275 q 216 1167 186 1183 q 282 1151 246 1151 q 349 1167 319 1151 q 399 1238 379 1183 q 449 1275 413 1275 q 477 1263 468 1275 q 486 1236 486 1251 z "},"Î":{"ha":567,"x_min":28,"x_max":539,"o":"m 69 0 q 35 10 43 0 q 28 33 28 21 q 38 61 28 49 q 83 74 49 74 l 208 74 l 208 911 l 83 911 q 38 924 49 911 q 28 951 28 936 q 35 974 28 964 q 69 985 43 985 l 497 985 q 532 974 525 985 q 539 951 539 964 q 529 924 539 936 q 483 911 519 911 l 358 911 l 358 74 l 483 74 q 529 61 519 74 q 539 33 539 49 q 532 10 539 21 q 497 0 525 0 l 69 0 m 283 1175 l 211 1103 q 165 1071 189 1081 q 121 1061 142 1061 q 83 1070 99 1061 q 68 1090 68 1079 q 74 1103 68 1097 l 215 1250 q 245 1269 226 1263 q 283 1275 264 1275 q 322 1269 303 1275 q 351 1250 340 1263 l 493 1103 q 499 1090 499 1097 q 484 1070 499 1079 q 446 1061 469 1061 q 401 1071 425 1061 q 356 1103 378 1081 l 283 1175 z "},"Ȉ":{"ha":567,"x_min":28,"x_max":539,"o":"m 69 0 q 35 10 43 0 q 28 33 28 21 q 38 61 28 49 q 83 74 49 74 l 208 74 l 208 911 l 83 911 q 38 924 49 911 q 28 951 28 936 q 35 974 28 964 q 69 985 43 985 l 497 985 q 532 974 525 985 q 539 951 539 964 q 529 924 539 936 q 483 911 519 911 l 358 911 l 358 74 l 483 74 q 529 61 519 74 q 539 33 539 49 q 532 10 539 21 q 497 0 525 0 l 69 0 m 60 1282 q 56 1294 56 1286 q 74 1319 56 1310 q 124 1328 92 1328 q 167 1319 146 1328 q 194 1292 188 1311 l 260 1118 q 263 1106 263 1113 q 252 1086 263 1093 q 228 1079 242 1079 q 182 1101 197 1079 l 60 1282 m 254 1282 q 250 1294 250 1286 q 268 1319 250 1310 q 318 1328 286 1328 q 361 1319 340 1328 q 389 1292 382 1311 l 454 1118 q 457 1106 457 1113 q 447 1086 457 1093 q 422 1079 436 1079 q 376 1101 392 1079 l 254 1282 z "},"Ï":{"ha":567,"x_min":28,"x_max":539,"o":"m 69 0 q 35 10 43 0 q 28 33 28 21 q 38 61 28 49 q 83 74 49 74 l 208 74 l 208 911 l 83 911 q 38 924 49 911 q 28 951 28 936 q 35 974 28 964 q 69 985 43 985 l 497 985 q 532 974 525 985 q 539 951 539 964 q 529 924 539 936 q 483 911 519 911 l 358 911 l 358 74 l 483 74 q 529 61 519 74 q 539 33 539 49 q 532 10 539 21 q 497 0 525 0 l 69 0 m 44 1183 q 74 1251 44 1222 q 138 1279 103 1279 q 206 1251 178 1279 q 235 1183 235 1222 q 206 1118 235 1147 q 138 1089 178 1089 q 74 1118 103 1089 q 44 1183 44 1147 m 332 1182 q 360 1250 332 1222 q 426 1278 389 1278 q 493 1250 464 1278 q 522 1182 522 1222 q 493 1117 522 1146 q 426 1088 464 1088 q 360 1117 389 1088 q 332 1182 332 1146 z "},"İ":{"ha":567,"x_min":28,"x_max":539,"o":"m 69 0 q 35 10 43 0 q 28 33 28 21 q 38 61 28 49 q 83 74 49 74 l 208 74 l 208 911 l 83 911 q 38 924 49 911 q 28 951 28 936 q 35 974 28 964 q 69 985 43 985 l 497 985 q 532 974 525 985 q 539 951 539 964 q 529 924 539 936 q 483 911 519 911 l 358 911 l 358 74 l 483 74 q 529 61 519 74 q 539 33 539 49 q 532 10 539 21 q 497 0 525 0 l 69 0 m 197 1161 q 223 1222 197 1197 q 283 1247 249 1247 q 344 1222 319 1247 q 369 1161 369 1197 q 344 1101 369 1126 q 283 1075 319 1075 q 223 1101 249 1075 q 197 1161 197 1126 z "},"Ị":{"ha":567,"x_min":28,"x_max":539,"o":"m 69 0 q 35 10 43 0 q 28 33 28 21 q 38 61 28 49 q 83 74 49 74 l 208 74 l 208 911 l 83 911 q 38 924 49 911 q 28 951 28 936 q 35 974 28 964 q 69 985 43 985 l 497 985 q 532 974 525 985 q 539 951 539 964 q 529 924 539 936 q 483 911 519 911 l 358 911 l 358 74 l 483 74 q 529 61 519 74 q 539 33 539 49 q 532 10 539 21 q 497 0 525 0 l 69 0 m 197 -182 q 223 -121 197 -146 q 283 -96 249 -96 q 344 -121 319 -96 q 369 -182 369 -146 q 344 -242 369 -217 q 283 -268 319 -268 q 223 -242 249 -268 q 197 -182 197 -217 z "},"Ì":{"ha":567,"x_min":28,"x_max":539,"o":"m 69 0 q 35 10 43 0 q 28 33 28 21 q 38 61 28 49 q 83 74 49 74 l 208 74 l 208 911 l 83 911 q 38 924 49 911 q 28 951 28 936 q 35 974 28 964 q 69 985 43 985 l 497 985 q 532 974 525 985 q 539 951 539 964 q 529 924 539 936 q 483 911 519 911 l 358 911 l 358 74 l 483 74 q 529 61 519 74 q 539 33 539 49 q 532 10 539 21 q 497 0 525 0 l 69 0 m 125 1290 q 121 1304 121 1297 q 199 1338 121 1338 q 249 1329 225 1338 q 281 1301 274 1321 l 360 1104 q 363 1090 363 1099 q 351 1071 363 1078 q 324 1064 340 1064 q 272 1086 290 1064 l 125 1290 z "},"Ỉ":{"ha":567,"x_min":28,"x_max":539,"o":"m 69 0 q 35 10 43 0 q 28 33 28 21 q 38 61 28 49 q 83 74 49 74 l 208 74 l 208 911 l 83 911 q 38 924 49 911 q 28 951 28 936 q 35 974 28 964 q 69 985 43 985 l 497 985 q 532 974 525 985 q 539 951 539 964 q 529 924 539 936 q 483 911 519 911 l 358 911 l 358 74 l 483 74 q 529 61 519 74 q 539 33 539 49 q 532 10 539 21 q 497 0 525 0 l 69 0 m 236 1079 q 299 1137 278 1117 q 328 1172 321 1157 q 336 1206 336 1186 q 322 1245 336 1229 q 279 1261 308 1261 q 238 1253 254 1261 q 210 1238 222 1246 q 182 1231 197 1231 q 156 1257 156 1231 q 178 1297 156 1281 q 233 1321 200 1313 q 300 1329 267 1329 q 383 1313 353 1329 q 426 1272 413 1296 q 439 1222 439 1247 q 401 1131 439 1172 q 325 1051 364 1090 q 297 1032 313 1038 q 268 1026 282 1026 q 228 1042 242 1026 q 236 1079 214 1058 z "},"Ȋ":{"ha":567,"x_min":28,"x_max":539,"o":"m 69 0 q 35 10 43 0 q 28 33 28 21 q 38 61 28 49 q 83 74 49 74 l 208 74 l 208 911 l 83 911 q 38 924 49 911 q 28 951 28 936 q 35 974 28 964 q 69 985 43 985 l 497 985 q 532 974 525 985 q 539 951 539 964 q 529 924 539 936 q 483 911 519 911 l 358 911 l 358 74 l 483 74 q 529 61 519 74 q 539 33 539 49 q 532 10 539 21 q 497 0 525 0 l 69 0 m 486 1099 q 477 1072 486 1083 q 449 1060 468 1060 q 399 1097 413 1060 q 349 1167 379 1151 q 282 1183 319 1183 q 216 1167 246 1183 q 167 1097 186 1151 q 117 1060 153 1060 q 89 1072 99 1060 q 79 1099 79 1083 q 135 1224 79 1172 q 282 1275 190 1275 q 431 1224 375 1275 q 486 1099 486 1172 z "},"Ī":{"ha":567,"x_min":28,"x_max":539,"o":"m 69 0 q 35 10 43 0 q 28 33 28 21 q 38 61 28 49 q 83 74 49 74 l 208 74 l 208 911 l 83 911 q 38 924 49 911 q 28 951 28 936 q 35 974 28 964 q 69 985 43 985 l 497 985 q 532 974 525 985 q 539 951 539 964 q 529 924 539 936 q 483 911 519 911 l 358 911 l 358 74 l 483 74 q 529 61 519 74 q 539 33 539 49 q 532 10 539 21 q 497 0 525 0 l 69 0 m 107 1093 q 83 1105 93 1093 q 74 1135 74 1117 q 83 1166 74 1154 q 107 1178 93 1178 l 460 1178 q 483 1166 472 1178 q 493 1135 493 1154 q 460 1093 493 1093 l 107 1093 z "},"Į":{"ha":567,"x_min":28,"x_max":654,"o":"m 69 0 q 35 10 43 0 q 28 33 28 21 q 38 61 28 49 q 83 74 49 74 l 208 74 l 208 911 l 83 911 q 38 924 49 911 q 28 951 28 936 q 35 974 28 964 q 69 985 43 985 l 497 985 q 532 974 525 985 q 539 951 539 964 q 529 924 539 936 q 483 911 519 911 l 358 911 l 358 74 l 483 74 q 529 61 519 74 q 539 33 539 49 q 532 10 539 21 q 497 0 525 0 l 69 0 m 583 14 q 500 -76 524 -36 q 476 -149 476 -115 q 492 -192 476 -175 q 535 -208 508 -208 q 576 -201 561 -208 q 601 -185 590 -193 q 628 -178 613 -178 q 654 -204 654 -178 q 629 -244 654 -228 q 569 -268 604 -260 q 501 -276 533 -276 q 400 -240 429 -276 q 371 -162 371 -204 q 510 14 371 -65 l 583 14 z "},"Ĩ":{"ha":567,"x_min":28,"x_max":539,"o":"m 69 0 q 35 10 43 0 q 28 33 28 21 q 38 61 28 49 q 83 74 49 74 l 208 74 l 208 911 l 83 911 q 38 924 49 911 q 28 951 28 936 q 35 974 28 964 q 69 985 43 985 l 497 985 q 532 974 525 985 q 539 951 539 964 q 529 924 539 936 q 483 911 519 911 l 358 911 l 358 74 l 483 74 q 529 61 519 74 q 539 33 539 49 q 532 10 539 21 q 497 0 525 0 l 69 0 m 190 1129 q 158 1120 168 1129 q 144 1100 149 1111 q 133 1080 140 1089 q 107 1071 126 1071 q 76 1079 83 1071 q 68 1099 68 1088 q 84 1154 68 1124 q 131 1207 100 1185 q 207 1229 163 1229 q 239 1224 218 1228 q 294 1208 260 1221 q 338 1191 318 1199 q 381 1183 358 1183 q 408 1190 400 1183 q 422 1207 417 1197 q 436 1229 429 1218 q 467 1240 443 1240 q 490 1233 483 1240 q 497 1214 497 1225 q 488 1176 497 1196 q 433 1104 465 1125 q 369 1083 401 1083 q 319 1090 342 1083 q 274 1107 297 1097 q 222 1124 240 1119 q 190 1129 204 1129 z "},"J":{"ha":672,"x_min":49,"x_max":567,"o":"m 503 985 q 567 915 567 985 l 567 363 q 560 277 567 325 q 536 181 554 229 q 483 91 518 132 q 389 25 447 50 q 244 0 331 0 q 185 4 219 0 q 122 15 151 8 q 76 29 92 21 q 49 72 49 43 l 49 165 q 108 235 49 235 q 169 215 149 235 q 189 144 189 194 l 189 76 q 219 74 201 75 q 247 72 236 72 q 352 106 315 72 q 403 190 389 140 q 417 289 417 240 l 417 894 q 438 965 417 944 q 503 985 460 985 z "},"Ĵ":{"ha":672,"x_min":49,"x_max":718,"o":"m 503 985 q 567 915 567 985 l 567 363 q 560 277 567 325 q 536 181 554 229 q 483 91 518 132 q 389 25 447 50 q 244 0 331 0 q 185 4 219 0 q 122 15 151 8 q 76 29 92 21 q 49 72 49 43 l 49 165 q 108 235 49 235 q 169 215 149 235 q 189 144 189 194 l 189 76 q 219 74 201 75 q 247 72 236 72 q 352 106 315 72 q 403 190 389 140 q 417 289 417 240 l 417 894 q 438 965 417 944 q 503 985 460 985 m 503 1175 l 431 1103 q 385 1071 408 1081 q 340 1061 361 1061 q 303 1070 318 1061 q 288 1090 288 1079 q 293 1103 288 1097 l 435 1250 q 465 1269 446 1263 q 503 1275 483 1275 q 541 1269 522 1275 q 571 1250 560 1263 l 713 1103 q 718 1090 718 1097 q 703 1070 718 1079 q 665 1061 689 1061 q 621 1071 644 1061 q 575 1103 597 1081 l 503 1175 z "},"K":{"ha":849,"x_min":139,"x_max":842,"o":"m 289 531 l 719 957 q 748 978 735 972 q 775 985 761 985 q 811 970 797 985 q 825 940 825 956 q 818 924 825 931 l 421 542 l 822 92 q 836 72 831 82 q 842 51 842 63 q 826 16 842 32 q 785 0 811 0 q 727 13 757 0 q 660 68 697 25 l 314 464 l 289 438 l 289 90 q 267 20 289 40 q 203 0 246 0 q 139 69 139 0 l 139 915 q 153 969 139 954 q 200 985 168 985 q 289 878 289 985 l 289 531 z "},"Ķ":{"ha":849,"x_min":139,"x_max":842,"o":"m 289 531 l 719 957 q 748 978 735 972 q 775 985 761 985 q 811 970 797 985 q 825 940 825 956 q 818 924 825 931 l 421 542 l 822 92 q 836 72 831 82 q 842 51 842 63 q 826 16 842 32 q 785 0 811 0 q 727 13 757 0 q 660 68 697 25 l 314 464 l 289 438 l 289 90 q 267 20 289 40 q 203 0 246 0 q 139 69 139 0 l 139 915 q 153 969 139 954 q 200 985 168 985 q 289 878 289 985 l 289 531 m 410 -314 q 346 -350 381 -350 q 321 -342 332 -350 q 310 -319 310 -333 l 343 -137 q 370 -92 350 -106 q 422 -78 390 -78 q 477 -92 457 -78 q 497 -137 497 -106 q 478 -212 497 -171 q 410 -314 458 -253 z "},"L":{"ha":793,"x_min":139,"x_max":744,"o":"m 685 260 q 744 190 744 260 l 744 44 q 723 10 744 19 q 661 0 701 0 l 203 0 q 139 69 139 0 l 139 915 q 153 969 139 954 q 200 985 168 985 q 289 878 289 985 l 289 74 l 604 74 l 604 169 q 625 240 604 219 q 685 260 646 260 z "},"Ǉ":{"ha":1465,"x_min":139,"x_max":1360,"o":"m 685 260 q 744 190 744 260 l 744 44 q 723 10 744 19 q 661 0 701 0 l 203 0 q 139 69 139 0 l 139 915 q 153 969 139 954 q 200 985 168 985 q 289 878 289 985 l 289 74 l 604 74 l 604 169 q 625 240 604 219 q 685 260 646 260 m 1296 985 q 1360 915 1360 985 l 1360 363 q 1353 277 1360 325 q 1329 181 1347 229 q 1276 91 1311 132 q 1182 25 1240 50 q 1038 0 1124 0 q 978 4 1013 0 q 915 15 944 8 q 869 29 885 21 q 842 72 842 43 l 842 165 q 901 235 842 235 q 962 215 942 235 q 982 144 982 194 l 982 76 q 1012 74 994 75 q 1040 72 1029 72 q 1145 106 1108 72 q 1196 190 1182 140 q 1210 289 1210 240 l 1210 894 q 1231 965 1210 944 q 1296 985 1253 985 z "},"Ĺ":{"ha":793,"x_min":139,"x_max":744,"o":"m 685 260 q 744 190 744 260 l 744 44 q 723 10 744 19 q 661 0 701 0 l 203 0 q 139 69 139 0 l 139 915 q 153 969 139 954 q 200 985 168 985 q 289 878 289 985 l 289 74 l 604 74 l 604 169 q 625 240 604 219 q 685 260 646 260 m 421 1086 q 399 1070 414 1076 q 369 1064 385 1064 q 337 1075 347 1064 q 333 1104 326 1086 l 413 1301 q 444 1329 421 1321 q 494 1338 468 1338 q 559 1324 535 1338 q 568 1290 583 1311 l 421 1086 z "},"Ľ":{"ha":793,"x_min":139,"x_max":744,"o":"m 685 260 q 744 190 744 260 l 744 44 q 723 10 744 19 q 661 0 701 0 l 203 0 q 139 69 139 0 l 139 915 q 153 969 139 954 q 200 985 168 985 q 289 878 289 985 l 289 74 l 604 74 l 604 169 q 625 240 604 219 q 685 260 646 260 m 515 796 q 464 767 492 767 q 443 774 451 767 q 435 792 435 781 l 461 938 q 483 974 467 963 q 525 985 499 985 q 569 974 553 985 q 585 938 585 963 q 569 877 585 910 q 515 796 554 844 z "},"Ļ":{"ha":793,"x_min":139,"x_max":744,"o":"m 685 260 q 744 190 744 260 l 744 44 q 723 10 744 19 q 661 0 701 0 l 203 0 q 139 69 139 0 l 139 915 q 153 969 139 954 q 200 985 168 985 q 289 878 289 985 l 289 74 l 604 74 l 604 169 q 625 240 604 219 q 685 260 646 260 m 382 -314 q 318 -350 353 -350 q 293 -342 304 -350 q 282 -319 282 -333 l 315 -137 q 342 -92 322 -106 q 394 -78 363 -78 q 449 -92 429 -78 q 469 -137 469 -106 q 450 -212 469 -171 q 382 -314 431 -253 z "},"Ŀ":{"ha":833,"x_min":139,"x_max":744,"o":"m 685 260 q 744 190 744 260 l 744 44 q 723 10 744 19 q 661 0 701 0 l 203 0 q 139 69 139 0 l 139 915 q 153 969 139 954 q 200 985 168 985 q 289 878 289 985 l 289 74 l 604 74 l 604 169 q 625 240 604 219 q 685 260 646 260 m 389 506 q 420 585 389 554 q 494 615 451 615 q 569 585 539 615 q 600 506 600 554 q 569 429 600 460 q 494 399 539 399 q 420 429 451 399 q 389 506 389 460 z "},"ǈ":{"ha":1163,"x_min":139,"x_max":1067,"o":"m 685 260 q 744 190 744 260 l 744 44 q 723 10 744 19 q 661 0 701 0 l 203 0 q 139 69 139 0 l 139 915 q 153 969 139 954 q 200 985 168 985 q 289 878 289 985 l 289 74 l 604 74 l 604 169 q 625 240 604 219 q 685 260 646 260 m 911 632 q 922 681 911 664 q 967 697 933 697 q 1056 603 1056 697 l 1056 168 q 1034 -10 1056 78 q 972 -169 1013 -97 q 871 -282 931 -240 q 841 -299 857 -292 q 807 -306 825 -306 q 769 -271 769 -306 q 778 -244 769 -254 q 801 -225 786 -233 q 891 -122 871 -189 q 911 61 911 -54 l 911 632 m 894 874 q 920 935 894 910 q 981 960 946 960 q 1042 935 1017 960 q 1067 874 1067 910 q 1042 813 1067 839 q 981 788 1017 788 q 920 813 946 788 q 894 874 894 839 z "},"Ł":{"ha":826,"x_min":-3,"x_max":778,"o":"m 322 450 l 322 74 l 638 74 l 638 169 q 658 240 638 219 q 718 260 679 260 q 778 190 778 260 l 778 44 q 756 10 778 19 q 694 0 735 0 l 236 0 q 172 69 172 0 l 172 357 l 53 282 q 44 279 47 279 q 15 297 31 279 q -3 329 -1 315 q 4 342 -3 338 l 172 449 l 172 915 q 187 969 172 954 q 233 985 201 985 q 322 878 322 985 l 322 544 l 543 685 q 550 686 546 686 q 579 668 564 686 q 596 633 594 650 q 589 618 596 622 l 322 450 z "},"M":{"ha":1218,"x_min":139,"x_max":1079,"o":"m 1022 0 q 939 107 939 0 l 939 779 l 929 779 l 643 51 q 585 0 622 0 q 525 51 546 0 l 258 779 l 249 779 l 249 78 q 230 17 249 33 q 192 0 211 0 q 156 14 172 0 q 139 63 139 28 l 139 911 q 167 966 139 947 q 228 985 194 985 q 286 970 254 985 q 332 918 318 956 l 599 181 l 606 181 l 896 911 q 944 969 911 953 q 1008 985 976 985 q 1079 911 1079 985 l 1079 69 q 1067 15 1079 31 q 1022 0 1054 0 z "},"N":{"ha":1032,"x_min":139,"x_max":893,"o":"m 192 0 q 156 14 172 0 q 139 63 139 28 l 139 910 q 164 965 139 946 q 222 985 189 985 q 275 974 250 985 q 322 926 300 963 l 776 206 l 783 206 l 783 907 q 803 968 783 951 q 840 985 822 985 q 876 971 860 985 q 893 922 893 957 l 893 81 q 869 20 893 40 q 813 0 844 0 q 753 15 778 0 q 711 56 728 29 l 257 779 l 249 779 l 249 78 q 230 17 249 33 q 192 0 211 0 z "},"Ǌ":{"ha":1704,"x_min":139,"x_max":1599,"o":"m 192 0 q 156 14 172 0 q 139 63 139 28 l 139 910 q 164 965 139 946 q 222 985 189 985 q 275 974 250 985 q 322 926 300 963 l 776 206 l 783 206 l 783 907 q 803 968 783 951 q 840 985 822 985 q 876 971 860 985 q 893 922 893 957 l 893 81 q 869 20 893 40 q 813 0 844 0 q 753 15 778 0 q 711 56 728 29 l 257 779 l 249 779 l 249 78 q 230 17 249 33 q 192 0 211 0 m 1535 985 q 1599 915 1599 985 l 1599 363 q 1592 277 1599 325 q 1568 181 1586 229 q 1515 91 1550 132 q 1421 25 1479 50 q 1276 0 1363 0 q 1217 4 1251 0 q 1153 15 1183 8 q 1108 29 1124 21 q 1081 72 1081 43 l 1081 165 q 1140 235 1081 235 q 1201 215 1181 235 q 1221 144 1221 194 l 1221 76 q 1251 74 1233 75 q 1279 72 1268 72 q 1384 106 1347 72 q 1435 190 1421 140 q 1449 289 1449 240 l 1449 894 q 1470 965 1449 944 q 1535 985 1492 985 z "},"Ń":{"ha":1032,"x_min":139,"x_max":893,"o":"m 192 0 q 156 14 172 0 q 139 63 139 28 l 139 910 q 164 965 139 946 q 222 985 189 985 q 275 974 250 985 q 322 926 300 963 l 776 206 l 783 206 l 783 907 q 803 968 783 951 q 840 985 822 985 q 876 971 860 985 q 893 922 893 957 l 893 81 q 869 20 893 40 q 813 0 844 0 q 753 15 778 0 q 711 56 728 29 l 257 779 l 249 779 l 249 78 q 230 17 249 33 q 192 0 211 0 m 540 1086 q 519 1070 533 1076 q 489 1064 504 1064 q 456 1075 467 1064 q 453 1104 446 1086 l 532 1301 q 564 1329 540 1321 q 614 1338 588 1338 q 678 1324 654 1338 q 688 1290 703 1311 l 540 1086 z "},"Ň":{"ha":1032,"x_min":139,"x_max":893,"o":"m 192 0 q 156 14 172 0 q 139 63 139 28 l 139 910 q 164 965 139 946 q 222 985 189 985 q 275 974 250 985 q 322 926 300 963 l 776 206 l 783 206 l 783 907 q 803 968 783 951 q 840 985 822 985 q 876 971 860 985 q 893 922 893 957 l 893 81 q 869 20 893 40 q 813 0 844 0 q 753 15 778 0 q 711 56 728 29 l 257 779 l 249 779 l 249 78 q 230 17 249 33 q 192 0 211 0 m 515 1158 l 593 1233 q 642 1267 617 1257 q 690 1276 668 1276 q 731 1267 715 1276 q 747 1246 747 1258 q 742 1233 747 1239 l 589 1082 q 521 1056 563 1056 q 478 1062 497 1056 q 443 1082 458 1068 l 290 1233 q 285 1246 285 1239 q 301 1267 285 1258 q 342 1276 317 1276 q 389 1267 364 1276 q 439 1233 414 1257 l 515 1158 z "},"Ņ":{"ha":1032,"x_min":139,"x_max":893,"o":"m 192 0 q 156 14 172 0 q 139 63 139 28 l 139 910 q 164 965 139 946 q 222 985 189 985 q 275 974 250 985 q 322 926 300 963 l 776 206 l 783 206 l 783 907 q 803 968 783 951 q 840 985 822 985 q 876 971 860 985 q 893 922 893 957 l 893 81 q 869 20 893 40 q 813 0 844 0 q 753 15 778 0 q 711 56 728 29 l 257 779 l 249 779 l 249 78 q 230 17 249 33 q 192 0 211 0 m 501 -314 q 438 -350 472 -350 q 413 -342 424 -350 q 401 -319 401 -333 l 435 -137 q 462 -92 442 -106 q 514 -78 482 -78 q 569 -92 549 -78 q 589 -137 589 -106 q 569 -212 589 -171 q 501 -314 550 -253 z "},"ǋ":{"ha":1401,"x_min":139,"x_max":1306,"o":"m 192 0 q 156 14 172 0 q 139 63 139 28 l 139 910 q 164 965 139 946 q 222 985 189 985 q 275 974 250 985 q 322 926 300 963 l 776 206 l 783 206 l 783 907 q 803 968 783 951 q 840 985 822 985 q 876 971 860 985 q 893 922 893 957 l 893 81 q 869 20 893 40 q 813 0 844 0 q 753 15 778 0 q 711 56 728 29 l 257 779 l 249 779 l 249 78 q 230 17 249 33 q 192 0 211 0 m 1150 632 q 1161 681 1150 664 q 1206 697 1172 697 q 1294 603 1294 697 l 1294 168 q 1273 -10 1294 78 q 1210 -169 1251 -97 q 1110 -282 1169 -240 q 1080 -299 1096 -292 q 1046 -306 1064 -306 q 1008 -271 1008 -306 q 1017 -244 1008 -254 q 1040 -225 1025 -233 q 1130 -122 1110 -189 q 1150 61 1150 -54 l 1150 632 m 1133 874 q 1159 935 1133 910 q 1219 960 1185 960 q 1281 935 1256 960 q 1306 874 1306 910 q 1281 813 1306 839 q 1219 788 1256 788 q 1159 813 1185 788 q 1133 874 1133 839 z "},"Ñ":{"ha":1032,"x_min":139,"x_max":893,"o":"m 192 0 q 156 14 172 0 q 139 63 139 28 l 139 910 q 164 965 139 946 q 222 985 189 985 q 275 974 250 985 q 322 926 300 963 l 776 206 l 783 206 l 783 907 q 803 968 783 951 q 840 985 822 985 q 876 971 860 985 q 893 922 893 957 l 893 81 q 869 20 893 40 q 813 0 844 0 q 753 15 778 0 q 711 56 728 29 l 257 779 l 249 779 l 249 78 q 230 17 249 33 q 192 0 211 0 m 424 1129 q 392 1120 401 1129 q 378 1100 382 1111 q 367 1080 374 1089 q 340 1071 360 1071 q 309 1079 317 1071 q 301 1099 301 1088 q 317 1154 301 1124 q 365 1207 333 1185 q 440 1229 396 1229 q 472 1224 451 1228 q 528 1208 493 1221 q 572 1191 551 1199 q 614 1183 592 1183 q 642 1190 633 1183 q 656 1207 650 1197 q 669 1229 663 1218 q 700 1240 676 1240 q 724 1233 717 1240 q 731 1214 731 1225 q 721 1176 731 1196 q 667 1104 699 1125 q 603 1083 635 1083 q 553 1090 575 1083 q 507 1107 531 1097 q 456 1124 474 1119 q 424 1129 438 1129 z "},"Ŋ":{"ha":1032,"x_min":139,"x_max":893,"o":"m 840 985 q 876 971 860 985 q 893 922 893 957 l 893 -43 q 852 -176 893 -117 q 735 -271 811 -236 q 551 -306 658 -306 q 382 -266 429 -306 q 335 -167 335 -226 q 356 -103 335 -129 q 404 -63 378 -76 q 446 -50 431 -50 q 465 -57 458 -50 q 472 -72 472 -64 q 464 -90 472 -81 q 447 -115 456 -100 q 439 -158 439 -131 q 478 -217 439 -197 q 569 -237 518 -237 q 669 -220 619 -237 q 751 -169 718 -203 q 783 -83 785 -135 l 783 -42 l 257 779 l 249 779 l 249 78 q 230 17 249 33 q 192 0 211 0 q 156 14 172 0 q 139 63 139 28 l 139 910 q 164 965 139 946 q 222 985 189 985 q 275 974 250 985 q 322 926 300 963 l 776 206 l 783 206 l 783 907 q 803 968 783 951 q 840 985 822 985 z "},"O":{"ha":994,"x_min":74,"x_max":921,"o":"m 921 492 q 913 383 921 446 q 880 253 904 319 q 809 129 856 186 q 686 36 763 72 q 496 0 610 0 q 306 36 382 0 q 183 129 229 72 q 113 253 138 186 q 81 383 89 319 q 74 492 74 446 q 81 599 74 536 q 113 729 89 663 q 183 854 138 796 q 306 949 229 913 q 496 985 382 985 q 686 949 610 985 q 809 854 763 913 q 880 729 856 796 q 913 599 904 663 q 921 492 921 536 m 764 492 q 759 589 764 533 q 740 701 754 644 q 696 806 725 757 q 618 884 667 854 q 496 914 569 914 q 376 884 424 914 q 299 806 328 854 q 255 701 269 757 q 235 589 240 644 q 231 492 231 533 q 235 395 231 450 q 255 283 240 340 q 299 178 269 226 q 376 101 328 131 q 496 71 424 71 q 618 101 569 71 q 696 178 667 131 q 740 283 725 226 q 759 395 754 340 q 764 492 764 450 z "},"Ó":{"ha":994,"x_min":74,"x_max":921,"o":"m 921 492 q 913 383 921 446 q 880 253 904 319 q 809 129 856 186 q 686 36 763 72 q 496 0 610 0 q 306 36 382 0 q 183 129 229 72 q 113 253 138 186 q 81 383 89 319 q 74 492 74 446 q 81 599 74 536 q 113 729 89 663 q 183 854 138 796 q 306 949 229 913 q 496 985 382 985 q 686 949 610 985 q 809 854 763 913 q 880 729 856 796 q 913 599 904 663 q 921 492 921 536 m 764 492 q 759 589 764 533 q 740 701 754 644 q 696 806 725 757 q 618 884 667 854 q 496 914 569 914 q 376 884 424 914 q 299 806 328 854 q 255 701 269 757 q 235 589 240 644 q 231 492 231 533 q 235 395 231 450 q 255 283 240 340 q 299 178 269 226 q 376 101 328 131 q 496 71 424 71 q 618 101 569 71 q 696 178 667 131 q 740 283 725 226 q 759 395 754 340 q 764 492 764 450 m 521 1086 q 499 1070 514 1076 q 469 1064 485 1064 q 437 1075 447 1064 q 433 1104 426 1086 l 513 1301 q 544 1329 521 1321 q 594 1338 568 1338 q 659 1324 635 1338 q 668 1290 683 1311 l 521 1086 z "},"Ŏ":{"ha":994,"x_min":74,"x_max":921,"o":"m 921 492 q 913 383 921 446 q 880 253 904 319 q 809 129 856 186 q 686 36 763 72 q 496 0 610 0 q 306 36 382 0 q 183 129 229 72 q 113 253 138 186 q 81 383 89 319 q 74 492 74 446 q 81 599 74 536 q 113 729 89 663 q 183 854 138 796 q 306 949 229 913 q 496 985 382 985 q 686 949 610 985 q 809 854 763 913 q 880 729 856 796 q 913 599 904 663 q 921 492 921 536 m 764 492 q 759 589 764 533 q 740 701 754 644 q 696 806 725 757 q 618 884 667 854 q 496 914 569 914 q 376 884 424 914 q 299 806 328 854 q 255 701 269 757 q 235 589 240 644 q 231 492 231 533 q 235 395 231 450 q 255 283 240 340 q 299 178 269 226 q 376 101 328 131 q 496 71 424 71 q 618 101 569 71 q 696 178 667 131 q 740 283 725 226 q 759 395 754 340 q 764 492 764 450 m 700 1236 q 644 1111 700 1163 q 496 1060 589 1060 q 349 1111 404 1060 q 293 1236 293 1163 q 303 1263 293 1251 q 331 1275 313 1275 q 381 1238 367 1275 q 430 1167 400 1183 q 496 1151 460 1151 q 563 1167 533 1151 q 613 1238 593 1183 q 663 1275 626 1275 q 691 1263 682 1275 q 700 1236 700 1251 z "},"Ô":{"ha":994,"x_min":74,"x_max":921,"o":"m 921 492 q 913 383 921 446 q 880 253 904 319 q 809 129 856 186 q 686 36 763 72 q 496 0 610 0 q 306 36 382 0 q 183 129 229 72 q 113 253 138 186 q 81 383 89 319 q 74 492 74 446 q 81 599 74 536 q 113 729 89 663 q 183 854 138 796 q 306 949 229 913 q 496 985 382 985 q 686 949 610 985 q 809 854 763 913 q 880 729 856 796 q 913 599 904 663 q 921 492 921 536 m 764 492 q 759 589 764 533 q 740 701 754 644 q 696 806 725 757 q 618 884 667 854 q 496 914 569 914 q 376 884 424 914 q 299 806 328 854 q 255 701 269 757 q 235 589 240 644 q 231 492 231 533 q 235 395 231 450 q 255 283 240 340 q 299 178 269 226 q 376 101 328 131 q 496 71 424 71 q 618 101 569 71 q 696 178 667 131 q 740 283 725 226 q 759 395 754 340 q 764 492 764 450 m 497 1175 l 425 1103 q 379 1071 403 1081 q 335 1061 356 1061 q 297 1070 313 1061 q 282 1090 282 1079 q 288 1103 282 1097 l 429 1250 q 459 1269 440 1263 q 497 1275 478 1275 q 535 1269 517 1275 q 565 1250 554 1263 l 707 1103 q 713 1090 713 1097 q 698 1070 713 1079 q 660 1061 683 1061 q 615 1071 639 1061 q 569 1103 592 1081 l 497 1175 z "},"Ố":{"ha":994,"x_min":74,"x_max":921,"o":"m 921 492 q 913 383 921 446 q 880 253 904 319 q 809 129 856 186 q 686 36 763 72 q 496 0 610 0 q 306 36 382 0 q 183 129 229 72 q 113 253 138 186 q 81 383 89 319 q 74 492 74 446 q 81 599 74 536 q 113 729 89 663 q 183 854 138 796 q 306 949 229 913 q 496 985 382 985 q 686 949 610 985 q 809 854 763 913 q 880 729 856 796 q 913 599 904 663 q 921 492 921 536 m 764 492 q 759 589 764 533 q 740 701 754 644 q 696 806 725 757 q 618 884 667 854 q 496 914 569 914 q 376 884 424 914 q 299 806 328 854 q 255 701 269 757 q 235 589 240 644 q 231 492 231 533 q 235 395 231 450 q 255 283 240 340 q 299 178 269 226 q 376 101 328 131 q 496 71 424 71 q 618 101 569 71 q 696 178 667 131 q 740 283 725 226 q 759 395 754 340 q 764 492 764 450 m 497 1175 l 425 1103 q 379 1071 403 1081 q 335 1061 356 1061 q 297 1070 313 1061 q 282 1090 282 1079 q 288 1103 282 1097 l 429 1250 q 459 1269 440 1263 q 497 1275 478 1275 q 535 1269 517 1275 q 565 1250 554 1263 l 707 1103 q 713 1090 713 1097 q 698 1070 713 1079 q 660 1061 683 1061 q 615 1071 639 1061 q 569 1103 592 1081 l 497 1175 m 703 1233 q 656 1214 686 1214 q 632 1220 642 1214 q 622 1238 622 1226 q 625 1249 622 1244 l 690 1406 q 718 1430 697 1422 q 761 1438 739 1438 q 810 1429 792 1438 q 829 1408 829 1421 q 825 1396 829 1400 l 703 1233 z "},"Ộ":{"ha":994,"x_min":74,"x_max":921,"o":"m 921 492 q 913 383 921 446 q 880 253 904 319 q 809 129 856 186 q 686 36 763 72 q 496 0 610 0 q 306 36 382 0 q 183 129 229 72 q 113 253 138 186 q 81 383 89 319 q 74 492 74 446 q 81 599 74 536 q 113 729 89 663 q 183 854 138 796 q 306 949 229 913 q 496 985 382 985 q 686 949 610 985 q 809 854 763 913 q 880 729 856 796 q 913 599 904 663 q 921 492 921 536 m 764 492 q 759 589 764 533 q 740 701 754 644 q 696 806 725 757 q 618 884 667 854 q 496 914 569 914 q 376 884 424 914 q 299 806 328 854 q 255 701 269 757 q 235 589 240 644 q 231 492 231 533 q 235 395 231 450 q 255 283 240 340 q 299 178 269 226 q 376 101 328 131 q 496 71 424 71 q 618 101 569 71 q 696 178 667 131 q 740 283 725 226 q 759 395 754 340 q 764 492 764 450 m 497 1175 l 425 1103 q 379 1071 403 1081 q 335 1061 356 1061 q 297 1070 313 1061 q 282 1090 282 1079 q 288 1103 282 1097 l 429 1250 q 459 1269 440 1263 q 497 1275 478 1275 q 535 1269 517 1275 q 565 1250 554 1263 l 707 1103 q 713 1090 713 1097 q 698 1070 713 1079 q 660 1061 683 1061 q 615 1071 639 1061 q 569 1103 592 1081 l 497 1175 m 411 -182 q 437 -121 411 -146 q 497 -96 463 -96 q 558 -121 533 -96 q 583 -182 583 -146 q 558 -242 583 -217 q 497 -268 533 -268 q 437 -242 463 -268 q 411 -182 411 -217 z "},"Ồ":{"ha":994,"x_min":74,"x_max":921,"o":"m 921 492 q 913 383 921 446 q 880 253 904 319 q 809 129 856 186 q 686 36 763 72 q 496 0 610 0 q 306 36 382 0 q 183 129 229 72 q 113 253 138 186 q 81 383 89 319 q 74 492 74 446 q 81 599 74 536 q 113 729 89 663 q 183 854 138 796 q 306 949 229 913 q 496 985 382 985 q 686 949 610 985 q 809 854 763 913 q 880 729 856 796 q 913 599 904 663 q 921 492 921 536 m 764 492 q 759 589 764 533 q 740 701 754 644 q 696 806 725 757 q 618 884 667 854 q 496 914 569 914 q 376 884 424 914 q 299 806 328 854 q 255 701 269 757 q 235 589 240 644 q 231 492 231 533 q 235 395 231 450 q 255 283 240 340 q 299 178 269 226 q 376 101 328 131 q 496 71 424 71 q 618 101 569 71 q 696 178 667 131 q 740 283 725 226 q 759 395 754 340 q 764 492 764 450 m 497 1175 l 425 1103 q 379 1071 403 1081 q 335 1061 356 1061 q 297 1070 313 1061 q 282 1090 282 1079 q 288 1103 282 1097 l 429 1250 q 459 1269 440 1263 q 497 1275 478 1275 q 535 1269 517 1275 q 565 1250 554 1263 l 707 1103 q 713 1090 713 1097 q 698 1070 713 1079 q 660 1061 683 1061 q 615 1071 639 1061 q 569 1103 592 1081 l 497 1175 m 643 1233 l 521 1396 q 518 1408 518 1400 q 536 1429 518 1421 q 585 1438 554 1438 q 628 1430 607 1438 q 656 1406 649 1422 l 721 1249 q 724 1238 724 1244 q 714 1220 724 1226 q 690 1214 704 1214 q 643 1233 660 1214 z "},"Ổ":{"ha":994,"x_min":74,"x_max":921,"o":"m 921 492 q 913 383 921 446 q 880 253 904 319 q 809 129 856 186 q 686 36 763 72 q 496 0 610 0 q 306 36 382 0 q 183 129 229 72 q 113 253 138 186 q 81 383 89 319 q 74 492 74 446 q 81 599 74 536 q 113 729 89 663 q 183 854 138 796 q 306 949 229 913 q 496 985 382 985 q 686 949 610 985 q 809 854 763 913 q 880 729 856 796 q 913 599 904 663 q 921 492 921 536 m 764 492 q 759 589 764 533 q 740 701 754 644 q 696 806 725 757 q 618 884 667 854 q 496 914 569 914 q 376 884 424 914 q 299 806 328 854 q 255 701 269 757 q 235 589 240 644 q 231 492 231 533 q 235 395 231 450 q 255 283 240 340 q 299 178 269 226 q 376 101 328 131 q 496 71 424 71 q 618 101 569 71 q 696 178 667 131 q 740 283 725 226 q 759 395 754 340 q 764 492 764 450 m 497 1175 l 425 1103 q 379 1071 403 1081 q 335 1061 356 1061 q 297 1070 313 1061 q 282 1090 282 1079 q 288 1103 282 1097 l 429 1250 q 459 1269 440 1263 q 497 1275 478 1275 q 535 1269 517 1275 q 565 1250 554 1263 l 707 1103 q 713 1090 713 1097 q 698 1070 713 1079 q 660 1061 683 1061 q 615 1071 639 1061 q 569 1103 592 1081 l 497 1175 m 653 1249 q 716 1306 694 1286 q 745 1341 738 1326 q 753 1375 753 1356 q 739 1415 753 1399 q 696 1431 725 1431 q 655 1423 671 1431 q 626 1408 639 1415 q 599 1400 614 1400 q 572 1426 572 1400 q 594 1466 572 1450 q 650 1490 617 1482 q 717 1499 683 1499 q 799 1482 769 1499 q 842 1441 829 1465 q 856 1392 856 1417 q 818 1301 856 1342 q 742 1221 781 1260 q 714 1201 729 1207 q 685 1196 699 1196 q 644 1212 658 1196 q 653 1249 631 1228 z "},"Ỗ":{"ha":994,"x_min":74,"x_max":921,"o":"m 921 492 q 913 383 921 446 q 880 253 904 319 q 809 129 856 186 q 686 36 763 72 q 496 0 610 0 q 306 36 382 0 q 183 129 229 72 q 113 253 138 186 q 81 383 89 319 q 74 492 74 446 q 81 599 74 536 q 113 729 89 663 q 183 854 138 796 q 306 949 229 913 q 496 985 382 985 q 686 949 610 985 q 809 854 763 913 q 880 729 856 796 q 913 599 904 663 q 921 492 921 536 m 764 492 q 759 589 764 533 q 740 701 754 644 q 696 806 725 757 q 618 884 667 854 q 496 914 569 914 q 376 884 424 914 q 299 806 328 854 q 255 701 269 757 q 235 589 240 644 q 231 492 231 533 q 235 395 231 450 q 255 283 240 340 q 299 178 269 226 q 376 101 328 131 q 496 71 424 71 q 618 101 569 71 q 696 178 667 131 q 740 283 725 226 q 759 395 754 340 q 764 492 764 450 m 497 1175 l 425 1103 q 379 1071 403 1081 q 335 1061 356 1061 q 297 1070 313 1061 q 282 1090 282 1079 q 288 1103 282 1097 l 429 1250 q 459 1269 440 1263 q 497 1275 478 1275 q 535 1269 517 1275 q 565 1250 554 1263 l 707 1103 q 713 1090 713 1097 q 698 1070 713 1079 q 660 1061 683 1061 q 615 1071 639 1061 q 569 1103 592 1081 l 497 1175 m 404 1364 q 372 1355 382 1364 q 358 1335 363 1346 q 347 1315 354 1324 q 321 1306 340 1306 q 290 1314 297 1306 q 282 1333 282 1322 q 298 1389 282 1358 q 345 1442 314 1419 q 421 1464 376 1464 q 453 1459 432 1463 q 508 1443 474 1456 q 552 1426 532 1433 q 594 1418 572 1418 q 622 1425 614 1418 q 636 1442 631 1432 q 650 1464 643 1453 q 681 1475 657 1475 q 704 1467 697 1475 q 711 1449 711 1460 q 701 1411 711 1431 q 647 1339 679 1360 q 583 1318 615 1318 q 533 1325 556 1318 q 488 1342 511 1332 q 436 1359 454 1354 q 404 1364 418 1364 z "},"Ȍ":{"ha":994,"x_min":74,"x_max":921,"o":"m 921 492 q 913 383 921 446 q 880 253 904 319 q 809 129 856 186 q 686 36 763 72 q 496 0 610 0 q 306 36 382 0 q 183 129 229 72 q 113 253 138 186 q 81 383 89 319 q 74 492 74 446 q 81 599 74 536 q 113 729 89 663 q 183 854 138 796 q 306 949 229 913 q 496 985 382 985 q 686 949 610 985 q 809 854 763 913 q 880 729 856 796 q 913 599 904 663 q 921 492 921 536 m 764 492 q 759 589 764 533 q 740 701 754 644 q 696 806 725 757 q 618 884 667 854 q 496 914 569 914 q 376 884 424 914 q 299 806 328 854 q 255 701 269 757 q 235 589 240 644 q 231 492 231 533 q 235 395 231 450 q 255 283 240 340 q 299 178 269 226 q 376 101 328 131 q 496 71 424 71 q 618 101 569 71 q 696 178 667 131 q 740 283 725 226 q 759 395 754 340 q 764 492 764 450 m 274 1282 q 269 1294 269 1286 q 288 1319 269 1310 q 338 1328 306 1328 q 381 1319 360 1328 q 408 1292 401 1311 l 474 1118 q 476 1106 476 1113 q 466 1086 476 1093 q 442 1079 456 1079 q 396 1101 411 1079 l 274 1282 m 468 1282 q 464 1294 464 1286 q 482 1319 464 1310 q 532 1328 500 1328 q 575 1319 554 1328 q 603 1292 596 1311 l 668 1118 q 671 1106 671 1113 q 660 1086 671 1093 q 636 1079 650 1079 q 590 1101 606 1079 l 468 1282 z "},"Ö":{"ha":994,"x_min":74,"x_max":921,"o":"m 921 492 q 913 383 921 446 q 880 253 904 319 q 809 129 856 186 q 686 36 763 72 q 496 0 610 0 q 306 36 382 0 q 183 129 229 72 q 113 253 138 186 q 81 383 89 319 q 74 492 74 446 q 81 599 74 536 q 113 729 89 663 q 183 854 138 796 q 306 949 229 913 q 496 985 382 985 q 686 949 610 985 q 809 854 763 913 q 880 729 856 796 q 913 599 904 663 q 921 492 921 536 m 764 492 q 759 589 764 533 q 740 701 754 644 q 696 806 725 757 q 618 884 667 854 q 496 914 569 914 q 376 884 424 914 q 299 806 328 854 q 255 701 269 757 q 235 589 240 644 q 231 492 231 533 q 235 395 231 450 q 255 283 240 340 q 299 178 269 226 q 376 101 328 131 q 496 71 424 71 q 618 101 569 71 q 696 178 667 131 q 740 283 725 226 q 759 395 754 340 q 764 492 764 450 m 258 1183 q 288 1251 258 1222 q 351 1279 317 1279 q 420 1251 392 1279 q 449 1183 449 1222 q 420 1118 449 1147 q 351 1089 392 1089 q 288 1118 317 1089 q 258 1183 258 1147 m 546 1182 q 574 1250 546 1222 q 640 1278 603 1278 q 707 1250 678 1278 q 736 1182 736 1222 q 707 1117 736 1146 q 640 1088 678 1088 q 574 1117 603 1088 q 546 1182 546 1146 z "},"Ȫ":{"ha":994,"x_min":74,"x_max":921,"o":"m 921 492 q 913 383 921 446 q 880 253 904 319 q 809 129 856 186 q 686 36 763 72 q 496 0 610 0 q 306 36 382 0 q 183 129 229 72 q 113 253 138 186 q 81 383 89 319 q 74 492 74 446 q 81 599 74 536 q 113 729 89 663 q 183 854 138 796 q 306 949 229 913 q 496 985 382 985 q 686 949 610 985 q 809 854 763 913 q 880 729 856 796 q 913 599 904 663 q 921 492 921 536 m 764 492 q 759 589 764 533 q 740 701 754 644 q 696 806 725 757 q 618 884 667 854 q 496 914 569 914 q 376 884 424 914 q 299 806 328 854 q 255 701 269 757 q 235 589 240 644 q 231 492 231 533 q 235 395 231 450 q 255 283 240 340 q 299 178 269 226 q 376 101 328 131 q 496 71 424 71 q 618 101 569 71 q 696 178 667 131 q 740 283 725 226 q 759 395 754 340 q 764 492 764 450 m 258 1183 q 288 1251 258 1222 q 351 1279 317 1279 q 420 1251 392 1279 q 449 1183 449 1222 q 420 1118 449 1147 q 351 1089 392 1089 q 288 1118 317 1089 q 258 1183 258 1147 m 546 1182 q 574 1250 546 1222 q 640 1278 603 1278 q 707 1250 678 1278 q 736 1182 736 1222 q 707 1117 736 1146 q 640 1088 678 1088 q 574 1117 603 1088 q 546 1182 546 1146 m 321 1346 q 297 1358 307 1346 q 288 1388 288 1369 q 297 1419 288 1407 q 321 1431 307 1431 l 674 1431 q 697 1419 686 1431 q 707 1388 707 1407 q 674 1346 707 1346 l 321 1346 z "},"Ȱ":{"ha":994,"x_min":74,"x_max":921,"o":"m 921 492 q 913 383 921 446 q 880 253 904 319 q 809 129 856 186 q 686 36 763 72 q 496 0 610 0 q 306 36 382 0 q 183 129 229 72 q 113 253 138 186 q 81 383 89 319 q 74 492 74 446 q 81 599 74 536 q 113 729 89 663 q 183 854 138 796 q 306 949 229 913 q 496 985 382 985 q 686 949 610 985 q 809 854 763 913 q 880 729 856 796 q 913 599 904 663 q 921 492 921 536 m 764 492 q 759 589 764 533 q 740 701 754 644 q 696 806 725 757 q 618 884 667 854 q 496 914 569 914 q 376 884 424 914 q 299 806 328 854 q 255 701 269 757 q 235 589 240 644 q 231 492 231 533 q 235 395 231 450 q 255 283 240 340 q 299 178 269 226 q 376 101 328 131 q 496 71 424 71 q 618 101 569 71 q 696 178 667 131 q 740 283 725 226 q 759 395 754 340 q 764 492 764 450 m 411 1161 q 437 1222 411 1197 q 497 1247 463 1247 q 558 1222 533 1247 q 583 1161 583 1197 q 558 1101 583 1126 q 497 1075 533 1075 q 437 1101 463 1075 q 411 1161 411 1126 m 321 1300 q 297 1312 307 1300 q 288 1342 288 1324 q 297 1373 288 1361 q 321 1385 307 1385 l 674 1385 q 697 1373 686 1385 q 707 1342 707 1361 q 674 1300 707 1300 l 321 1300 z "},"Ọ":{"ha":994,"x_min":74,"x_max":921,"o":"m 921 492 q 913 383 921 446 q 880 253 904 319 q 809 129 856 186 q 686 36 763 72 q 496 0 610 0 q 306 36 382 0 q 183 129 229 72 q 113 253 138 186 q 81 383 89 319 q 74 492 74 446 q 81 599 74 536 q 113 729 89 663 q 183 854 138 796 q 306 949 229 913 q 496 985 382 985 q 686 949 610 985 q 809 854 763 913 q 880 729 856 796 q 913 599 904 663 q 921 492 921 536 m 764 492 q 759 589 764 533 q 740 701 754 644 q 696 806 725 757 q 618 884 667 854 q 496 914 569 914 q 376 884 424 914 q 299 806 328 854 q 255 701 269 757 q 235 589 240 644 q 231 492 231 533 q 235 395 231 450 q 255 283 240 340 q 299 178 269 226 q 376 101 328 131 q 496 71 424 71 q 618 101 569 71 q 696 178 667 131 q 740 283 725 226 q 759 395 754 340 q 764 492 764 450 m 411 -182 q 437 -121 411 -146 q 497 -96 463 -96 q 558 -121 533 -96 q 583 -182 583 -146 q 558 -242 583 -217 q 497 -268 533 -268 q 437 -242 463 -268 q 411 -182 411 -217 z "},"Ò":{"ha":994,"x_min":74,"x_max":921,"o":"m 921 492 q 913 383 921 446 q 880 253 904 319 q 809 129 856 186 q 686 36 763 72 q 496 0 610 0 q 306 36 382 0 q 183 129 229 72 q 113 253 138 186 q 81 383 89 319 q 74 492 74 446 q 81 599 74 536 q 113 729 89 663 q 183 854 138 796 q 306 949 229 913 q 496 985 382 985 q 686 949 610 985 q 809 854 763 913 q 880 729 856 796 q 913 599 904 663 q 921 492 921 536 m 764 492 q 759 589 764 533 q 740 701 754 644 q 696 806 725 757 q 618 884 667 854 q 496 914 569 914 q 376 884 424 914 q 299 806 328 854 q 255 701 269 757 q 235 589 240 644 q 231 492 231 533 q 235 395 231 450 q 255 283 240 340 q 299 178 269 226 q 376 101 328 131 q 496 71 424 71 q 618 101 569 71 q 696 178 667 131 q 740 283 725 226 q 759 395 754 340 q 764 492 764 450 m 339 1290 q 335 1304 335 1297 q 413 1338 335 1338 q 463 1329 439 1338 q 494 1301 488 1321 l 574 1104 q 576 1090 576 1099 q 565 1071 576 1078 q 538 1064 554 1064 q 486 1086 504 1064 l 339 1290 z "},"Ỏ":{"ha":994,"x_min":74,"x_max":921,"o":"m 921 492 q 913 383 921 446 q 880 253 904 319 q 809 129 856 186 q 686 36 763 72 q 496 0 610 0 q 306 36 382 0 q 183 129 229 72 q 113 253 138 186 q 81 383 89 319 q 74 492 74 446 q 81 599 74 536 q 113 729 89 663 q 183 854 138 796 q 306 949 229 913 q 496 985 382 985 q 686 949 610 985 q 809 854 763 913 q 880 729 856 796 q 913 599 904 663 q 921 492 921 536 m 764 492 q 759 589 764 533 q 740 701 754 644 q 696 806 725 757 q 618 884 667 854 q 496 914 569 914 q 376 884 424 914 q 299 806 328 854 q 255 701 269 757 q 235 589 240 644 q 231 492 231 533 q 235 395 231 450 q 255 283 240 340 q 299 178 269 226 q 376 101 328 131 q 496 71 424 71 q 618 101 569 71 q 696 178 667 131 q 740 283 725 226 q 759 395 754 340 q 764 492 764 450 m 450 1079 q 513 1137 492 1117 q 542 1172 535 1157 q 550 1206 550 1186 q 536 1245 550 1229 q 493 1261 522 1261 q 452 1253 468 1261 q 424 1238 436 1246 q 396 1231 411 1231 q 369 1257 369 1231 q 392 1297 369 1281 q 447 1321 414 1313 q 514 1329 481 1329 q 597 1313 567 1329 q 640 1272 626 1296 q 653 1222 653 1247 q 615 1131 653 1172 q 539 1051 578 1090 q 511 1032 526 1038 q 482 1026 496 1026 q 442 1042 456 1026 q 450 1079 428 1058 z "},"Ơ":{"ha":994,"x_min":74,"x_max":938,"o":"m 921 492 q 913 383 921 446 q 880 253 904 319 q 809 129 856 186 q 686 36 763 72 q 496 0 610 0 q 306 36 382 0 q 183 129 229 72 q 113 253 138 186 q 81 383 89 319 q 74 492 74 446 q 81 599 74 536 q 113 729 89 663 q 183 854 138 796 q 306 949 229 913 q 496 985 382 985 q 686 949 610 985 q 809 854 763 913 q 880 729 856 796 q 913 599 904 663 q 921 492 921 536 m 764 492 q 759 589 764 533 q 740 701 754 644 q 696 806 725 757 q 618 884 667 854 q 496 914 569 914 q 376 884 424 914 q 299 806 328 854 q 255 701 269 757 q 235 589 240 644 q 231 492 231 533 q 235 395 231 450 q 255 283 240 340 q 299 178 269 226 q 376 101 328 131 q 496 71 424 71 q 618 101 569 71 q 696 178 667 131 q 740 283 725 226 q 759 395 754 340 q 764 492 764 450 m 796 1051 q 811 1099 796 1083 q 868 1114 826 1114 q 923 1097 908 1114 q 938 1042 938 1079 q 906 957 938 993 q 819 902 874 921 q 699 883 765 883 l 699 940 l 751 940 q 787 967 778 940 q 796 1051 796 994 z "},"Ớ":{"ha":994,"x_min":74,"x_max":938,"o":"m 921 492 q 913 383 921 446 q 880 253 904 319 q 809 129 856 186 q 686 36 763 72 q 496 0 610 0 q 306 36 382 0 q 183 129 229 72 q 113 253 138 186 q 81 383 89 319 q 74 492 74 446 q 81 599 74 536 q 113 729 89 663 q 183 854 138 796 q 306 949 229 913 q 496 985 382 985 q 686 949 610 985 q 809 854 763 913 q 880 729 856 796 q 913 599 904 663 q 921 492 921 536 m 764 492 q 759 589 764 533 q 740 701 754 644 q 696 806 725 757 q 618 884 667 854 q 496 914 569 914 q 376 884 424 914 q 299 806 328 854 q 255 701 269 757 q 235 589 240 644 q 231 492 231 533 q 235 395 231 450 q 255 283 240 340 q 299 178 269 226 q 376 101 328 131 q 496 71 424 71 q 618 101 569 71 q 696 178 667 131 q 740 283 725 226 q 759 395 754 340 q 764 492 764 450 m 796 1051 q 811 1099 796 1083 q 868 1114 826 1114 q 923 1097 908 1114 q 938 1042 938 1079 q 906 957 938 993 q 819 902 874 921 q 699 883 765 883 l 699 940 l 751 940 q 787 967 778 940 q 796 1051 796 994 m 521 1086 q 499 1070 514 1076 q 469 1064 485 1064 q 437 1075 447 1064 q 433 1104 426 1086 l 513 1301 q 544 1329 521 1321 q 594 1338 568 1338 q 659 1324 635 1338 q 668 1290 683 1311 l 521 1086 z "},"Ợ":{"ha":994,"x_min":74,"x_max":938,"o":"m 921 492 q 913 383 921 446 q 880 253 904 319 q 809 129 856 186 q 686 36 763 72 q 496 0 610 0 q 306 36 382 0 q 183 129 229 72 q 113 253 138 186 q 81 383 89 319 q 74 492 74 446 q 81 599 74 536 q 113 729 89 663 q 183 854 138 796 q 306 949 229 913 q 496 985 382 985 q 686 949 610 985 q 809 854 763 913 q 880 729 856 796 q 913 599 904 663 q 921 492 921 536 m 764 492 q 759 589 764 533 q 740 701 754 644 q 696 806 725 757 q 618 884 667 854 q 496 914 569 914 q 376 884 424 914 q 299 806 328 854 q 255 701 269 757 q 235 589 240 644 q 231 492 231 533 q 235 395 231 450 q 255 283 240 340 q 299 178 269 226 q 376 101 328 131 q 496 71 424 71 q 618 101 569 71 q 696 178 667 131 q 740 283 725 226 q 759 395 754 340 q 764 492 764 450 m 796 1051 q 811 1099 796 1083 q 868 1114 826 1114 q 923 1097 908 1114 q 938 1042 938 1079 q 906 957 938 993 q 819 902 874 921 q 699 883 765 883 l 699 940 l 751 940 q 787 967 778 940 q 796 1051 796 994 m 411 -182 q 437 -121 411 -146 q 497 -96 463 -96 q 558 -121 533 -96 q 583 -182 583 -146 q 558 -242 583 -217 q 497 -268 533 -268 q 437 -242 463 -268 q 411 -182 411 -217 z "},"Ờ":{"ha":994,"x_min":74,"x_max":938,"o":"m 921 492 q 913 383 921 446 q 880 253 904 319 q 809 129 856 186 q 686 36 763 72 q 496 0 610 0 q 306 36 382 0 q 183 129 229 72 q 113 253 138 186 q 81 383 89 319 q 74 492 74 446 q 81 599 74 536 q 113 729 89 663 q 183 854 138 796 q 306 949 229 913 q 496 985 382 985 q 686 949 610 985 q 809 854 763 913 q 880 729 856 796 q 913 599 904 663 q 921 492 921 536 m 764 492 q 759 589 764 533 q 740 701 754 644 q 696 806 725 757 q 618 884 667 854 q 496 914 569 914 q 376 884 424 914 q 299 806 328 854 q 255 701 269 757 q 235 589 240 644 q 231 492 231 533 q 235 395 231 450 q 255 283 240 340 q 299 178 269 226 q 376 101 328 131 q 496 71 424 71 q 618 101 569 71 q 696 178 667 131 q 740 283 725 226 q 759 395 754 340 q 764 492 764 450 m 796 1051 q 811 1099 796 1083 q 868 1114 826 1114 q 923 1097 908 1114 q 938 1042 938 1079 q 906 957 938 993 q 819 902 874 921 q 699 883 765 883 l 699 940 l 751 940 q 787 967 778 940 q 796 1051 796 994 m 339 1290 q 335 1304 335 1297 q 413 1338 335 1338 q 463 1329 439 1338 q 494 1301 488 1321 l 574 1104 q 576 1090 576 1099 q 565 1071 576 1078 q 538 1064 554 1064 q 486 1086 504 1064 l 339 1290 z "},"Ở":{"ha":994,"x_min":74,"x_max":938,"o":"m 921 492 q 913 383 921 446 q 880 253 904 319 q 809 129 856 186 q 686 36 763 72 q 496 0 610 0 q 306 36 382 0 q 183 129 229 72 q 113 253 138 186 q 81 383 89 319 q 74 492 74 446 q 81 599 74 536 q 113 729 89 663 q 183 854 138 796 q 306 949 229 913 q 496 985 382 985 q 686 949 610 985 q 809 854 763 913 q 880 729 856 796 q 913 599 904 663 q 921 492 921 536 m 764 492 q 759 589 764 533 q 740 701 754 644 q 696 806 725 757 q 618 884 667 854 q 496 914 569 914 q 376 884 424 914 q 299 806 328 854 q 255 701 269 757 q 235 589 240 644 q 231 492 231 533 q 235 395 231 450 q 255 283 240 340 q 299 178 269 226 q 376 101 328 131 q 496 71 424 71 q 618 101 569 71 q 696 178 667 131 q 740 283 725 226 q 759 395 754 340 q 764 492 764 450 m 796 1051 q 811 1099 796 1083 q 868 1114 826 1114 q 923 1097 908 1114 q 938 1042 938 1079 q 906 957 938 993 q 819 902 874 921 q 699 883 765 883 l 699 940 l 751 940 q 787 967 778 940 q 796 1051 796 994 m 450 1079 q 513 1137 492 1117 q 542 1172 535 1157 q 550 1206 550 1186 q 536 1245 550 1229 q 493 1261 522 1261 q 452 1253 468 1261 q 424 1238 436 1246 q 396 1231 411 1231 q 369 1257 369 1231 q 392 1297 369 1281 q 447 1321 414 1313 q 514 1329 481 1329 q 597 1313 567 1329 q 640 1272 626 1296 q 653 1222 653 1247 q 615 1131 653 1172 q 539 1051 578 1090 q 511 1032 526 1038 q 482 1026 496 1026 q 442 1042 456 1026 q 450 1079 428 1058 z "},"Ỡ":{"ha":994,"x_min":74,"x_max":938,"o":"m 921 492 q 913 383 921 446 q 880 253 904 319 q 809 129 856 186 q 686 36 763 72 q 496 0 610 0 q 306 36 382 0 q 183 129 229 72 q 113 253 138 186 q 81 383 89 319 q 74 492 74 446 q 81 599 74 536 q 113 729 89 663 q 183 854 138 796 q 306 949 229 913 q 496 985 382 985 q 686 949 610 985 q 809 854 763 913 q 880 729 856 796 q 913 599 904 663 q 921 492 921 536 m 764 492 q 759 589 764 533 q 740 701 754 644 q 696 806 725 757 q 618 884 667 854 q 496 914 569 914 q 376 884 424 914 q 299 806 328 854 q 255 701 269 757 q 235 589 240 644 q 231 492 231 533 q 235 395 231 450 q 255 283 240 340 q 299 178 269 226 q 376 101 328 131 q 496 71 424 71 q 618 101 569 71 q 696 178 667 131 q 740 283 725 226 q 759 395 754 340 q 764 492 764 450 m 796 1051 q 811 1099 796 1083 q 868 1114 826 1114 q 923 1097 908 1114 q 938 1042 938 1079 q 906 957 938 993 q 819 902 874 921 q 699 883 765 883 l 699 940 l 751 940 q 787 967 778 940 q 796 1051 796 994 m 404 1129 q 372 1120 382 1129 q 358 1100 363 1111 q 347 1080 354 1089 q 321 1071 340 1071 q 290 1079 297 1071 q 282 1099 282 1088 q 298 1154 282 1124 q 345 1207 314 1185 q 421 1229 376 1229 q 453 1224 432 1228 q 508 1208 474 1221 q 552 1191 532 1199 q 594 1183 572 1183 q 622 1190 614 1183 q 636 1207 631 1197 q 650 1229 643 1218 q 681 1240 657 1240 q 704 1233 697 1240 q 711 1214 711 1225 q 701 1176 711 1196 q 647 1104 679 1125 q 583 1083 615 1083 q 533 1090 556 1083 q 488 1107 511 1097 q 436 1124 454 1119 q 404 1129 418 1129 z "},"Ő":{"ha":994,"x_min":74,"x_max":921,"o":"m 921 492 q 913 383 921 446 q 880 253 904 319 q 809 129 856 186 q 686 36 763 72 q 496 0 610 0 q 306 36 382 0 q 183 129 229 72 q 113 253 138 186 q 81 383 89 319 q 74 492 74 446 q 81 599 74 536 q 113 729 89 663 q 183 854 138 796 q 306 949 229 913 q 496 985 382 985 q 686 949 610 985 q 809 854 763 913 q 880 729 856 796 q 913 599 904 663 q 921 492 921 536 m 764 492 q 759 589 764 533 q 740 701 754 644 q 696 806 725 757 q 618 884 667 854 q 496 914 569 914 q 376 884 424 914 q 299 806 328 854 q 255 701 269 757 q 235 589 240 644 q 231 492 231 533 q 235 395 231 450 q 255 283 240 340 q 299 178 269 226 q 376 101 328 131 q 496 71 424 71 q 618 101 569 71 q 696 178 667 131 q 740 283 725 226 q 759 395 754 340 q 764 492 764 450 m 414 1046 q 368 1028 399 1028 q 344 1033 354 1028 q 333 1049 333 1039 q 334 1054 333 1051 q 336 1060 335 1057 l 392 1200 q 424 1239 403 1228 q 472 1250 446 1250 q 516 1237 500 1250 q 532 1201 532 1224 q 528 1192 532 1196 l 414 1046 m 639 1046 q 593 1028 624 1028 q 569 1033 579 1028 q 558 1049 558 1039 q 559 1054 558 1051 q 561 1060 560 1057 l 631 1200 q 665 1240 646 1229 q 711 1250 685 1250 q 755 1237 739 1250 q 771 1201 771 1224 q 767 1192 771 1196 l 639 1046 z "},"Ȏ":{"ha":994,"x_min":74,"x_max":921,"o":"m 921 492 q 913 383 921 446 q 880 253 904 319 q 809 129 856 186 q 686 36 763 72 q 496 0 610 0 q 306 36 382 0 q 183 129 229 72 q 113 253 138 186 q 81 383 89 319 q 74 492 74 446 q 81 599 74 536 q 113 729 89 663 q 183 854 138 796 q 306 949 229 913 q 496 985 382 985 q 686 949 610 985 q 809 854 763 913 q 880 729 856 796 q 913 599 904 663 q 921 492 921 536 m 764 492 q 759 589 764 533 q 740 701 754 644 q 696 806 725 757 q 618 884 667 854 q 496 914 569 914 q 376 884 424 914 q 299 806 328 854 q 255 701 269 757 q 235 589 240 644 q 231 492 231 533 q 235 395 231 450 q 255 283 240 340 q 299 178 269 226 q 376 101 328 131 q 496 71 424 71 q 618 101 569 71 q 696 178 667 131 q 740 283 725 226 q 759 395 754 340 q 764 492 764 450 m 700 1099 q 691 1072 700 1083 q 663 1060 682 1060 q 613 1097 626 1060 q 563 1167 593 1151 q 496 1183 533 1183 q 430 1167 460 1183 q 381 1097 400 1151 q 331 1060 367 1060 q 303 1072 313 1060 q 293 1099 293 1083 q 349 1224 293 1172 q 496 1275 404 1275 q 644 1224 589 1275 q 700 1099 700 1172 z "},"Ō":{"ha":994,"x_min":74,"x_max":921,"o":"m 921 492 q 913 383 921 446 q 880 253 904 319 q 809 129 856 186 q 686 36 763 72 q 496 0 610 0 q 306 36 382 0 q 183 129 229 72 q 113 253 138 186 q 81 383 89 319 q 74 492 74 446 q 81 599 74 536 q 113 729 89 663 q 183 854 138 796 q 306 949 229 913 q 496 985 382 985 q 686 949 610 985 q 809 854 763 913 q 880 729 856 796 q 913 599 904 663 q 921 492 921 536 m 764 492 q 759 589 764 533 q 740 701 754 644 q 696 806 725 757 q 618 884 667 854 q 496 914 569 914 q 376 884 424 914 q 299 806 328 854 q 255 701 269 757 q 235 589 240 644 q 231 492 231 533 q 235 395 231 450 q 255 283 240 340 q 299 178 269 226 q 376 101 328 131 q 496 71 424 71 q 618 101 569 71 q 696 178 667 131 q 740 283 725 226 q 759 395 754 340 q 764 492 764 450 m 321 1093 q 297 1105 307 1093 q 288 1135 288 1117 q 297 1166 288 1154 q 321 1178 307 1178 l 674 1178 q 697 1166 686 1178 q 707 1135 707 1154 q 674 1093 707 1093 l 321 1093 z "},"Ǫ":{"ha":994,"x_min":74,"x_max":921,"o":"m 921 492 q 913 383 921 446 q 880 253 904 319 q 809 129 856 186 q 686 36 763 72 q 496 0 610 0 q 306 36 382 0 q 183 129 229 72 q 113 253 138 186 q 81 383 89 319 q 74 492 74 446 q 81 599 74 536 q 113 729 89 663 q 183 854 138 796 q 306 949 229 913 q 496 985 382 985 q 686 949 610 985 q 809 854 763 913 q 880 729 856 796 q 913 599 904 663 q 921 492 921 536 m 764 492 q 759 589 764 533 q 740 701 754 644 q 696 806 725 757 q 618 884 667 854 q 496 914 569 914 q 376 884 424 914 q 299 806 328 854 q 255 701 269 757 q 235 589 240 644 q 231 492 231 533 q 235 395 231 450 q 255 283 240 340 q 299 178 269 226 q 376 101 328 131 q 496 71 424 71 q 618 101 569 71 q 696 178 667 131 q 740 283 725 226 q 759 395 754 340 q 764 492 764 450 m 692 40 q 608 -49 632 -10 q 585 -122 585 -89 q 601 -165 585 -149 q 643 -182 617 -182 q 684 -174 669 -182 q 710 -159 699 -167 q 736 -151 721 -151 q 763 -178 763 -151 q 738 -217 763 -201 q 677 -242 713 -233 q 610 -250 642 -250 q 508 -214 538 -250 q 479 -136 479 -178 q 618 40 479 -39 l 692 40 z "},"Ø":{"ha":994,"x_min":74,"x_max":921,"o":"m 775 889 q 851 794 822 847 q 894 685 879 740 q 915 579 910 629 q 921 492 921 529 q 913 383 921 446 q 880 253 904 319 q 809 129 856 186 q 686 36 763 72 q 496 0 610 0 q 382 12 433 0 q 290 44 331 24 l 210 -97 q 192 -106 204 -106 q 153 -91 174 -106 q 133 -62 133 -76 q 135 -56 133 -58 l 218 93 q 142 188 171 135 q 99 296 114 240 q 79 403 85 351 q 74 492 74 454 q 81 599 74 536 q 113 729 89 663 q 183 854 138 796 q 306 949 229 913 q 496 985 382 985 q 609 973 558 985 q 700 940 660 961 l 781 1082 q 797 1090 785 1090 q 838 1074 817 1090 q 858 1042 858 1057 q 857 1033 858 1036 l 775 889 m 231 492 q 234 405 231 454 q 249 303 238 356 q 283 206 261 251 l 653 857 q 585 899 624 883 q 496 914 547 914 q 376 884 424 914 q 299 806 328 854 q 255 701 269 757 q 235 589 240 644 q 231 492 231 533 m 764 492 q 760 579 764 531 q 746 680 757 628 q 711 778 735 732 l 339 128 q 406 86 367 101 q 496 71 444 71 q 618 101 569 71 q 696 178 667 131 q 740 283 725 226 q 759 395 754 340 q 764 492 764 450 z "},"Ǿ":{"ha":994,"x_min":74,"x_max":921,"o":"m 775 889 q 851 794 822 847 q 894 685 879 740 q 915 579 910 629 q 921 492 921 529 q 913 383 921 446 q 880 253 904 319 q 809 129 856 186 q 686 36 763 72 q 496 0 610 0 q 382 12 433 0 q 290 44 331 24 l 210 -97 q 192 -106 204 -106 q 153 -91 174 -106 q 133 -62 133 -76 q 135 -56 133 -58 l 218 93 q 142 188 171 135 q 99 296 114 240 q 79 403 85 351 q 74 492 74 454 q 81 599 74 536 q 113 729 89 663 q 183 854 138 796 q 306 949 229 913 q 496 985 382 985 q 609 973 558 985 q 700 940 660 961 l 781 1082 q 797 1090 785 1090 q 838 1074 817 1090 q 858 1042 858 1057 q 857 1033 858 1036 l 775 889 m 231 492 q 234 405 231 454 q 249 303 238 356 q 283 206 261 251 l 653 857 q 585 899 624 883 q 496 914 547 914 q 376 884 424 914 q 299 806 328 854 q 255 701 269 757 q 235 589 240 644 q 231 492 231 533 m 764 492 q 760 579 764 531 q 746 680 757 628 q 711 778 735 732 l 339 128 q 406 86 367 101 q 496 71 444 71 q 618 101 569 71 q 696 178 667 131 q 740 283 725 226 q 759 395 754 340 q 764 492 764 450 m 521 1086 q 499 1070 514 1076 q 469 1064 485 1064 q 437 1075 447 1064 q 433 1104 426 1086 l 513 1301 q 544 1329 521 1321 q 594 1338 568 1338 q 659 1324 635 1338 q 668 1290 683 1311 l 521 1086 z "},"Õ":{"ha":994,"x_min":74,"x_max":921,"o":"m 921 492 q 913 383 921 446 q 880 253 904 319 q 809 129 856 186 q 686 36 763 72 q 496 0 610 0 q 306 36 382 0 q 183 129 229 72 q 113 253 138 186 q 81 383 89 319 q 74 492 74 446 q 81 599 74 536 q 113 729 89 663 q 183 854 138 796 q 306 949 229 913 q 496 985 382 985 q 686 949 610 985 q 809 854 763 913 q 880 729 856 796 q 913 599 904 663 q 921 492 921 536 m 764 492 q 759 589 764 533 q 740 701 754 644 q 696 806 725 757 q 618 884 667 854 q 496 914 569 914 q 376 884 424 914 q 299 806 328 854 q 255 701 269 757 q 235 589 240 644 q 231 492 231 533 q 235 395 231 450 q 255 283 240 340 q 299 178 269 226 q 376 101 328 131 q 496 71 424 71 q 618 101 569 71 q 696 178 667 131 q 740 283 725 226 q 759 395 754 340 q 764 492 764 450 m 404 1129 q 372 1120 382 1129 q 358 1100 363 1111 q 347 1080 354 1089 q 321 1071 340 1071 q 290 1079 297 1071 q 282 1099 282 1088 q 298 1154 282 1124 q 345 1207 314 1185 q 421 1229 376 1229 q 453 1224 432 1228 q 508 1208 474 1221 q 552 1191 532 1199 q 594 1183 572 1183 q 622 1190 614 1183 q 636 1207 631 1197 q 650 1229 643 1218 q 681 1240 657 1240 q 704 1233 697 1240 q 711 1214 711 1225 q 701 1176 711 1196 q 647 1104 679 1125 q 583 1083 615 1083 q 533 1090 556 1083 q 488 1107 511 1097 q 436 1124 454 1119 q 404 1129 418 1129 z "},"Ȭ":{"ha":994,"x_min":74,"x_max":921,"o":"m 921 492 q 913 383 921 446 q 880 253 904 319 q 809 129 856 186 q 686 36 763 72 q 496 0 610 0 q 306 36 382 0 q 183 129 229 72 q 113 253 138 186 q 81 383 89 319 q 74 492 74 446 q 81 599 74 536 q 113 729 89 663 q 183 854 138 796 q 306 949 229 913 q 496 985 382 985 q 686 949 610 985 q 809 854 763 913 q 880 729 856 796 q 913 599 904 663 q 921 492 921 536 m 764 492 q 759 589 764 533 q 740 701 754 644 q 696 806 725 757 q 618 884 667 854 q 496 914 569 914 q 376 884 424 914 q 299 806 328 854 q 255 701 269 757 q 235 589 240 644 q 231 492 231 533 q 235 395 231 450 q 255 283 240 340 q 299 178 269 226 q 376 101 328 131 q 496 71 424 71 q 618 101 569 71 q 696 178 667 131 q 740 283 725 226 q 759 395 754 340 q 764 492 764 450 m 404 1129 q 372 1120 382 1129 q 358 1100 363 1111 q 347 1080 354 1089 q 321 1071 340 1071 q 290 1079 297 1071 q 282 1099 282 1088 q 298 1154 282 1124 q 345 1207 314 1185 q 421 1229 376 1229 q 453 1224 432 1228 q 508 1208 474 1221 q 552 1191 532 1199 q 594 1183 572 1183 q 622 1190 614 1183 q 636 1207 631 1197 q 650 1229 643 1218 q 681 1240 657 1240 q 704 1233 697 1240 q 711 1214 711 1225 q 701 1176 711 1196 q 647 1104 679 1125 q 583 1083 615 1083 q 533 1090 556 1083 q 488 1107 511 1097 q 436 1124 454 1119 q 404 1129 418 1129 m 311 1293 q 288 1305 297 1293 q 278 1335 278 1317 q 288 1366 278 1354 q 311 1378 297 1378 l 664 1378 q 687 1366 676 1378 q 697 1335 697 1354 q 664 1293 697 1293 l 311 1293 z "},"Œ":{"ha":1440,"x_min":74,"x_max":1385,"o":"m 1304 743 q 1244 763 1265 743 q 1224 833 1224 783 l 1224 911 l 894 911 l 894 547 l 1186 547 q 1215 535 1206 547 q 1225 508 1225 524 q 1213 483 1225 494 q 1186 471 1201 471 l 894 471 l 894 74 l 1244 74 l 1244 151 q 1265 222 1244 201 q 1325 242 1286 242 q 1385 172 1385 242 l 1385 51 q 1363 10 1385 21 q 1301 0 1342 0 l 808 0 q 744 69 744 0 l 744 106 q 643 29 704 58 q 496 0 582 0 q 306 36 382 0 q 183 129 229 72 q 113 253 138 186 q 81 383 89 319 q 74 492 74 446 q 81 599 74 536 q 113 729 89 663 q 183 854 138 796 q 306 949 229 913 q 496 985 382 985 q 643 955 582 985 q 744 878 704 925 l 744 915 q 808 985 744 985 l 1281 985 q 1342 975 1321 985 q 1364 933 1364 965 l 1364 813 q 1304 743 1364 743 m 744 492 q 740 589 744 533 q 722 701 736 644 q 681 806 708 757 q 609 884 654 854 q 496 914 564 914 q 376 884 424 914 q 299 806 328 854 q 255 701 269 757 q 235 589 240 644 q 231 492 231 533 q 235 395 231 450 q 255 283 240 340 q 299 178 269 226 q 376 101 328 131 q 496 71 424 71 q 609 101 564 71 q 681 178 654 131 q 722 283 708 226 q 740 395 736 340 q 744 492 744 450 z "},"P":{"ha":857,"x_min":139,"x_max":808,"o":"m 289 382 l 289 90 q 267 20 289 40 q 203 0 246 0 q 139 69 139 0 l 139 915 q 153 969 139 954 q 200 985 168 985 l 432 985 q 512 981 464 985 q 611 964 560 978 q 708 919 663 950 q 781 835 753 889 q 808 697 808 782 q 768 539 808 611 q 644 424 728 467 q 433 382 561 382 l 289 382 m 289 911 l 289 456 l 432 456 q 592 513 532 456 q 651 697 651 569 q 603 853 651 794 q 432 911 556 911 l 289 911 z "},"Þ":{"ha":857,"x_min":139,"x_max":808,"o":"m 289 299 l 289 90 q 267 20 289 40 q 203 0 246 0 q 139 69 139 0 l 139 915 q 203 985 139 985 q 267 965 246 985 q 289 894 289 944 l 289 846 l 432 846 q 512 843 464 846 q 611 827 560 840 q 708 787 663 814 q 781 711 753 760 q 808 586 808 663 q 768 442 808 507 q 644 338 728 376 q 433 299 561 299 l 289 299 m 289 372 l 432 372 q 592 422 532 372 q 651 586 651 472 q 603 722 651 671 q 432 772 556 772 l 289 772 l 289 372 z "},"Q":{"ha":994,"x_min":74,"x_max":921,"o":"m 921 492 q 915 398 921 451 q 890 288 908 344 q 838 176 872 231 q 749 79 804 122 l 838 -28 q 846 -49 846 -37 q 828 -75 846 -64 q 786 -86 811 -86 q 744 -76 765 -86 q 703 -44 722 -67 l 646 22 q 576 6 614 13 q 496 0 539 0 q 306 36 382 0 q 183 129 229 72 q 113 253 138 186 q 81 383 89 319 q 74 492 74 446 q 81 599 74 536 q 113 729 89 663 q 183 854 138 796 q 306 949 229 913 q 496 985 382 985 q 686 949 610 985 q 809 854 763 913 q 880 729 856 796 q 913 599 904 663 q 921 492 921 536 m 764 492 q 759 589 764 533 q 740 701 754 644 q 696 806 725 757 q 618 884 667 854 q 496 914 569 914 q 376 884 424 914 q 299 806 328 854 q 255 701 269 757 q 235 589 240 644 q 231 492 231 533 q 235 395 231 450 q 255 283 240 340 q 299 178 269 226 q 376 101 328 131 q 496 71 424 71 q 590 88 551 71 l 489 210 q 472 247 472 231 q 488 278 472 267 q 525 290 503 290 q 567 280 544 290 q 610 244 590 269 l 681 160 q 735 268 718 210 q 758 385 753 326 q 764 492 764 443 z "},"R":{"ha":893,"x_min":139,"x_max":814,"o":"m 139 915 q 153 969 139 954 q 200 985 168 985 l 463 985 q 595 973 532 985 q 708 932 658 961 q 785 851 757 903 q 814 717 814 799 q 777 590 814 646 q 685 498 740 533 q 571 453 629 463 l 801 82 q 814 46 814 64 q 797 13 814 26 q 743 0 779 0 q 692 12 718 0 q 649 53 667 24 l 415 443 l 289 443 l 289 90 q 267 20 289 40 q 203 0 246 0 q 139 69 139 0 l 139 915 m 289 911 l 289 517 l 438 517 q 537 536 486 517 q 622 601 588 556 q 657 725 657 647 q 636 828 657 790 q 583 883 615 865 q 514 906 550 900 q 449 911 478 911 l 289 911 z "},"Ŕ":{"ha":893,"x_min":139,"x_max":814,"o":"m 139 915 q 153 969 139 954 q 200 985 168 985 l 463 985 q 595 973 532 985 q 708 932 658 961 q 785 851 757 903 q 814 717 814 799 q 777 590 814 646 q 685 498 740 533 q 571 453 629 463 l 801 82 q 814 46 814 64 q 797 13 814 26 q 743 0 779 0 q 692 12 718 0 q 649 53 667 24 l 415 443 l 289 443 l 289 90 q 267 20 289 40 q 203 0 246 0 q 139 69 139 0 l 139 915 m 289 911 l 289 517 l 438 517 q 537 536 486 517 q 622 601 588 556 q 657 725 657 647 q 636 828 657 790 q 583 883 615 865 q 514 906 550 900 q 449 911 478 911 l 289 911 m 471 1086 q 449 1070 464 1076 q 419 1064 435 1064 q 387 1075 397 1064 q 383 1104 376 1086 l 463 1301 q 494 1329 471 1321 q 544 1338 518 1338 q 609 1324 585 1338 q 618 1290 633 1311 l 471 1086 z "},"Ř":{"ha":893,"x_min":139,"x_max":814,"o":"m 139 915 q 153 969 139 954 q 200 985 168 985 l 463 985 q 595 973 532 985 q 708 932 658 961 q 785 851 757 903 q 814 717 814 799 q 777 590 814 646 q 685 498 740 533 q 571 453 629 463 l 801 82 q 814 46 814 64 q 797 13 814 26 q 743 0 779 0 q 692 12 718 0 q 649 53 667 24 l 415 443 l 289 443 l 289 90 q 267 20 289 40 q 203 0 246 0 q 139 69 139 0 l 139 915 m 289 911 l 289 517 l 438 517 q 537 536 486 517 q 622 601 588 556 q 657 725 657 647 q 636 828 657 790 q 583 883 615 865 q 514 906 550 900 q 449 911 478 911 l 289 911 m 446 1158 l 524 1233 q 573 1267 547 1257 q 621 1276 599 1276 q 662 1267 646 1276 q 678 1246 678 1258 q 672 1233 678 1239 l 519 1082 q 451 1056 493 1056 q 408 1062 428 1056 q 374 1082 389 1068 l 221 1233 q 215 1246 215 1239 q 231 1267 215 1258 q 272 1276 247 1276 q 319 1267 294 1276 q 369 1233 344 1257 l 446 1158 z "},"Ŗ":{"ha":893,"x_min":139,"x_max":814,"o":"m 139 915 q 153 969 139 954 q 200 985 168 985 l 463 985 q 595 973 532 985 q 708 932 658 961 q 785 851 757 903 q 814 717 814 799 q 777 590 814 646 q 685 498 740 533 q 571 453 629 463 l 801 82 q 814 46 814 64 q 797 13 814 26 q 743 0 779 0 q 692 12 718 0 q 649 53 667 24 l 415 443 l 289 443 l 289 90 q 267 20 289 40 q 203 0 246 0 q 139 69 139 0 l 139 915 m 289 911 l 289 517 l 438 517 q 537 536 486 517 q 622 601 588 556 q 657 725 657 647 q 636 828 657 790 q 583 883 615 865 q 514 906 550 900 q 449 911 478 911 l 289 911 m 432 -314 q 368 -350 403 -350 q 343 -342 354 -350 q 332 -319 332 -333 l 365 -137 q 392 -92 372 -106 q 444 -78 413 -78 q 499 -92 479 -78 q 519 -137 519 -106 q 500 -212 519 -171 q 432 -314 481 -253 z "},"Ȑ":{"ha":893,"x_min":139,"x_max":814,"o":"m 139 915 q 153 969 139 954 q 200 985 168 985 l 463 985 q 595 973 532 985 q 708 932 658 961 q 785 851 757 903 q 814 717 814 799 q 777 590 814 646 q 685 498 740 533 q 571 453 629 463 l 801 82 q 814 46 814 64 q 797 13 814 26 q 743 0 779 0 q 692 12 718 0 q 649 53 667 24 l 415 443 l 289 443 l 289 90 q 267 20 289 40 q 203 0 246 0 q 139 69 139 0 l 139 915 m 289 911 l 289 517 l 438 517 q 537 536 486 517 q 622 601 588 556 q 657 725 657 647 q 636 828 657 790 q 583 883 615 865 q 514 906 550 900 q 449 911 478 911 l 289 911 m 224 1282 q 219 1294 219 1286 q 238 1319 219 1310 q 288 1328 256 1328 q 331 1319 310 1328 q 358 1292 351 1311 l 424 1118 q 426 1106 426 1113 q 416 1086 426 1093 q 392 1079 406 1079 q 346 1101 361 1079 l 224 1282 m 418 1282 q 414 1294 414 1286 q 432 1319 414 1310 q 482 1328 450 1328 q 525 1319 504 1328 q 553 1292 546 1311 l 618 1118 q 621 1106 621 1113 q 610 1086 621 1093 q 586 1079 600 1079 q 540 1101 556 1079 l 418 1282 z "},"Ȓ":{"ha":893,"x_min":139,"x_max":814,"o":"m 139 915 q 153 969 139 954 q 200 985 168 985 l 463 985 q 595 973 532 985 q 708 932 658 961 q 785 851 757 903 q 814 717 814 799 q 777 590 814 646 q 685 498 740 533 q 571 453 629 463 l 801 82 q 814 46 814 64 q 797 13 814 26 q 743 0 779 0 q 692 12 718 0 q 649 53 667 24 l 415 443 l 289 443 l 289 90 q 267 20 289 40 q 203 0 246 0 q 139 69 139 0 l 139 915 m 289 911 l 289 517 l 438 517 q 537 536 486 517 q 622 601 588 556 q 657 725 657 647 q 636 828 657 790 q 583 883 615 865 q 514 906 550 900 q 449 911 478 911 l 289 911 m 650 1099 q 641 1072 650 1083 q 613 1060 632 1060 q 563 1097 576 1060 q 513 1167 543 1151 q 446 1183 483 1183 q 380 1167 410 1183 q 331 1097 350 1151 q 281 1060 317 1060 q 253 1072 263 1060 q 243 1099 243 1083 q 299 1224 243 1172 q 446 1275 354 1275 q 594 1224 539 1275 q 650 1099 650 1172 z "},"S":{"ha":876,"x_min":85,"x_max":793,"o":"m 669 732 q 610 751 631 732 q 589 818 589 771 l 589 889 q 578 892 583 890 q 565 896 572 894 q 425 914 501 914 q 319 887 360 914 q 259 820 278 860 q 240 742 240 781 q 258 664 240 694 q 317 610 275 633 q 428 561 358 588 q 631 482 550 518 q 752 398 711 446 q 793 269 793 350 q 748 132 793 193 q 617 35 703 71 q 404 0 531 0 q 266 14 340 0 q 143 46 192 28 q 101 70 113 58 q 89 113 89 82 l 89 196 q 149 263 89 263 q 209 243 189 263 q 229 175 229 224 l 229 100 q 312 78 269 86 q 399 71 354 71 q 531 98 478 71 q 610 167 583 125 q 638 254 638 210 q 613 333 638 301 q 535 391 588 365 q 404 446 483 417 q 237 516 308 482 q 125 600 165 550 q 85 733 85 650 q 171 915 85 844 q 415 985 257 985 q 558 972 496 985 q 672 944 619 960 q 717 922 704 935 q 729 879 729 910 l 729 799 q 669 732 729 732 z "},"Ś":{"ha":876,"x_min":85,"x_max":793,"o":"m 669 732 q 610 751 631 732 q 589 818 589 771 l 589 889 q 578 892 583 890 q 565 896 572 894 q 425 914 501 914 q 319 887 360 914 q 259 820 278 860 q 240 742 240 781 q 258 664 240 694 q 317 610 275 633 q 428 561 358 588 q 631 482 550 518 q 752 398 711 446 q 793 269 793 350 q 748 132 793 193 q 617 35 703 71 q 404 0 531 0 q 266 14 340 0 q 143 46 192 28 q 101 70 113 58 q 89 113 89 82 l 89 196 q 149 263 89 263 q 209 243 189 263 q 229 175 229 224 l 229 100 q 312 78 269 86 q 399 71 354 71 q 531 98 478 71 q 610 167 583 125 q 638 254 638 210 q 613 333 638 301 q 535 391 588 365 q 404 446 483 417 q 237 516 308 482 q 125 600 165 550 q 85 733 85 650 q 171 915 85 844 q 415 985 257 985 q 558 972 496 985 q 672 944 619 960 q 717 922 704 935 q 729 879 729 910 l 729 799 q 669 732 729 732 m 463 1086 q 441 1070 456 1076 q 411 1064 426 1064 q 378 1075 389 1064 q 375 1104 368 1086 l 454 1301 q 486 1329 463 1321 q 536 1338 510 1338 q 601 1324 576 1338 q 610 1290 625 1311 l 463 1086 z "},"Š":{"ha":876,"x_min":85,"x_max":793,"o":"m 669 732 q 610 751 631 732 q 589 818 589 771 l 589 889 q 578 892 583 890 q 565 896 572 894 q 425 914 501 914 q 319 887 360 914 q 259 820 278 860 q 240 742 240 781 q 258 664 240 694 q 317 610 275 633 q 428 561 358 588 q 631 482 550 518 q 752 398 711 446 q 793 269 793 350 q 748 132 793 193 q 617 35 703 71 q 404 0 531 0 q 266 14 340 0 q 143 46 192 28 q 101 70 113 58 q 89 113 89 82 l 89 196 q 149 263 89 263 q 209 243 189 263 q 229 175 229 224 l 229 100 q 312 78 269 86 q 399 71 354 71 q 531 98 478 71 q 610 167 583 125 q 638 254 638 210 q 613 333 638 301 q 535 391 588 365 q 404 446 483 417 q 237 516 308 482 q 125 600 165 550 q 85 733 85 650 q 171 915 85 844 q 415 985 257 985 q 558 972 496 985 q 672 944 619 960 q 717 922 704 935 q 729 879 729 910 l 729 799 q 669 732 729 732 m 438 1158 l 515 1233 q 565 1267 539 1257 q 613 1276 590 1276 q 653 1267 638 1276 q 669 1246 669 1258 q 664 1233 669 1239 l 511 1082 q 443 1056 485 1056 q 400 1062 419 1056 q 365 1082 381 1068 l 213 1233 q 207 1246 207 1239 q 223 1267 207 1258 q 264 1276 239 1276 q 311 1267 286 1276 q 361 1233 336 1257 l 438 1158 z "},"Ş":{"ha":876,"x_min":85,"x_max":793,"o":"m 669 732 q 610 751 631 732 q 589 818 589 771 l 589 889 q 578 892 583 890 q 565 896 572 894 q 425 914 501 914 q 319 887 360 914 q 259 820 278 860 q 240 742 240 781 q 258 664 240 694 q 317 610 275 633 q 428 561 358 588 q 631 482 550 518 q 752 398 711 446 q 793 269 793 350 q 748 132 793 193 q 617 35 703 71 q 404 0 531 0 q 266 14 340 0 q 143 46 192 28 q 101 70 113 58 q 89 113 89 82 l 89 196 q 149 263 89 263 q 209 243 189 263 q 229 175 229 224 l 229 100 q 312 78 269 86 q 399 71 354 71 q 531 98 478 71 q 610 167 583 125 q 638 254 638 210 q 613 333 638 301 q 535 391 588 365 q 404 446 483 417 q 237 516 308 482 q 125 600 165 550 q 85 733 85 650 q 171 915 85 844 q 415 985 257 985 q 558 972 496 985 q 672 944 619 960 q 717 922 704 935 q 729 879 729 910 l 729 799 q 669 732 729 732 m 476 -53 q 544 -61 513 -53 q 597 -92 576 -69 q 617 -156 617 -114 q 573 -243 617 -211 q 463 -275 529 -275 q 409 -269 439 -275 q 358 -250 379 -262 q 336 -218 336 -237 q 344 -199 336 -207 q 365 -192 351 -192 q 402 -199 381 -192 q 446 -207 424 -207 q 497 -192 482 -207 q 511 -160 511 -176 q 483 -113 511 -122 q 404 -104 456 -104 l 404 14 l 476 14 l 476 -53 z "},"Ŝ":{"ha":876,"x_min":85,"x_max":793,"o":"m 669 732 q 610 751 631 732 q 589 818 589 771 l 589 889 q 578 892 583 890 q 565 896 572 894 q 425 914 501 914 q 319 887 360 914 q 259 820 278 860 q 240 742 240 781 q 258 664 240 694 q 317 610 275 633 q 428 561 358 588 q 631 482 550 518 q 752 398 711 446 q 793 269 793 350 q 748 132 793 193 q 617 35 703 71 q 404 0 531 0 q 266 14 340 0 q 143 46 192 28 q 101 70 113 58 q 89 113 89 82 l 89 196 q 149 263 89 263 q 209 243 189 263 q 229 175 229 224 l 229 100 q 312 78 269 86 q 399 71 354 71 q 531 98 478 71 q 610 167 583 125 q 638 254 638 210 q 613 333 638 301 q 535 391 588 365 q 404 446 483 417 q 237 516 308 482 q 125 600 165 550 q 85 733 85 650 q 171 915 85 844 q 415 985 257 985 q 558 972 496 985 q 672 944 619 960 q 717 922 704 935 q 729 879 729 910 l 729 799 q 669 732 729 732 m 439 1175 l 367 1103 q 321 1071 344 1081 q 276 1061 297 1061 q 239 1070 254 1061 q 224 1090 224 1079 q 229 1103 224 1097 l 371 1250 q 401 1269 382 1263 q 439 1275 419 1275 q 477 1269 458 1275 q 507 1250 496 1263 l 649 1103 q 654 1090 654 1097 q 640 1070 654 1079 q 601 1061 625 1061 q 557 1071 581 1061 q 511 1103 533 1081 l 439 1175 z "},"Ș":{"ha":876,"x_min":85,"x_max":793,"o":"m 669 732 q 610 751 631 732 q 589 818 589 771 l 589 889 q 578 892 583 890 q 565 896 572 894 q 425 914 501 914 q 319 887 360 914 q 259 820 278 860 q 240 742 240 781 q 258 664 240 694 q 317 610 275 633 q 428 561 358 588 q 631 482 550 518 q 752 398 711 446 q 793 269 793 350 q 748 132 793 193 q 617 35 703 71 q 404 0 531 0 q 266 14 340 0 q 143 46 192 28 q 101 70 113 58 q 89 113 89 82 l 89 196 q 149 263 89 263 q 209 243 189 263 q 229 175 229 224 l 229 100 q 312 78 269 86 q 399 71 354 71 q 531 98 478 71 q 610 167 583 125 q 638 254 638 210 q 613 333 638 301 q 535 391 588 365 q 404 446 483 417 q 237 516 308 482 q 125 600 165 550 q 85 733 85 650 q 171 915 85 844 q 415 985 257 985 q 558 972 496 985 q 672 944 619 960 q 717 922 704 935 q 729 879 729 910 l 729 799 q 669 732 729 732 m 424 -314 q 360 -350 394 -350 q 335 -342 346 -350 q 324 -319 324 -333 l 357 -137 q 384 -92 364 -106 q 436 -78 404 -78 q 491 -92 471 -78 q 511 -137 511 -106 q 492 -212 511 -171 q 424 -314 472 -253 z "},"ẞ":{"ha":833,"x_min":111,"x_max":764,"o":"m 481 782 q 509 663 481 714 q 580 570 538 613 q 665 485 622 528 q 735 393 707 443 q 764 274 764 343 q 732 128 764 190 q 647 33 700 67 q 529 0 594 0 q 379 40 451 0 q 325 81 346 58 q 304 131 304 104 q 323 173 304 158 q 365 188 342 188 q 407 174 390 188 q 435 138 424 160 q 484 72 456 93 q 540 51 513 51 q 610 88 583 51 q 640 190 638 124 q 625 299 643 253 q 576 384 607 346 q 510 458 546 422 q 444 533 475 494 q 392 619 413 571 q 372 731 372 667 q 410 890 372 825 q 514 999 449 956 l 400 999 q 306 967 336 999 q 265 888 275 935 q 256 797 256 842 l 256 99 q 234 18 256 36 q 167 0 213 0 q 122 17 133 0 q 111 65 111 35 l 111 718 q 121 836 111 776 q 160 945 131 896 q 247 1025 190 994 q 400 1056 304 1056 l 646 1056 q 666 1047 661 1056 q 671 1028 671 1039 q 646 1000 671 1000 l 644 1000 q 563 969 600 1000 q 503 890 525 939 q 481 782 481 840 z "},"T":{"ha":903,"x_min":28,"x_max":875,"o":"m 526 911 l 526 83 q 505 17 526 33 q 440 0 483 0 q 376 69 376 0 l 376 911 l 168 911 l 168 813 q 148 742 168 763 q 88 722 128 722 q 28 792 28 722 l 28 933 q 49 975 28 965 q 111 985 71 985 l 792 985 q 853 975 832 985 q 875 933 875 965 l 875 792 q 815 722 875 722 q 756 742 776 722 q 735 813 735 763 l 735 911 l 526 911 z "},"Ŧ":{"ha":903,"x_min":28,"x_max":875,"o":"m 526 911 l 526 83 q 505 17 526 33 q 440 0 483 0 q 376 69 376 0 l 376 911 l 168 911 l 168 813 q 148 742 168 763 q 88 722 128 722 q 28 792 28 722 l 28 933 q 49 975 28 965 q 111 985 71 985 l 792 985 q 853 975 832 985 q 875 933 875 965 l 875 792 q 815 722 875 722 q 756 742 776 722 q 735 813 735 763 l 735 911 l 526 911 m 207 458 q 181 469 189 458 q 174 492 174 479 q 181 516 174 506 q 207 526 189 526 l 696 526 q 720 516 711 526 q 729 492 729 506 q 720 469 729 479 q 696 458 711 458 l 207 458 z "},"Ť":{"ha":903,"x_min":28,"x_max":875,"o":"m 526 911 l 526 83 q 505 17 526 33 q 440 0 483 0 q 376 69 376 0 l 376 911 l 168 911 l 168 813 q 148 742 168 763 q 88 722 128 722 q 28 792 28 722 l 28 933 q 49 975 28 965 q 111 985 71 985 l 792 985 q 853 975 832 985 q 875 933 875 965 l 875 792 q 815 722 875 722 q 756 742 776 722 q 735 813 735 763 l 735 911 l 526 911 m 450 1158 l 528 1233 q 577 1267 551 1257 q 625 1276 603 1276 q 666 1267 650 1276 q 682 1246 682 1258 q 676 1233 682 1239 l 524 1082 q 456 1056 497 1056 q 413 1062 432 1056 q 378 1082 393 1068 l 225 1233 q 219 1246 219 1239 q 235 1267 219 1258 q 276 1276 251 1276 q 324 1267 299 1276 q 374 1233 349 1257 l 450 1158 z "},"Ţ":{"ha":903,"x_min":28,"x_max":875,"o":"m 526 911 l 526 83 q 505 17 526 33 q 440 0 483 0 q 376 69 376 0 l 376 911 l 168 911 l 168 813 q 148 742 168 763 q 88 722 128 722 q 28 792 28 722 l 28 933 q 49 975 28 965 q 111 985 71 985 l 792 985 q 853 975 832 985 q 875 933 875 965 l 875 792 q 815 722 875 722 q 756 742 776 722 q 735 813 735 763 l 735 911 l 526 911 m 489 -53 q 557 -61 525 -53 q 609 -92 589 -69 q 629 -156 629 -114 q 585 -243 629 -211 q 475 -275 542 -275 q 422 -269 451 -275 q 370 -250 392 -262 q 349 -218 349 -237 q 356 -199 349 -207 q 378 -192 364 -192 q 415 -199 393 -192 q 458 -207 436 -207 q 509 -192 494 -207 q 524 -160 524 -176 q 496 -113 524 -122 q 417 -104 468 -104 l 417 14 l 489 14 l 489 -53 z "},"Ț":{"ha":903,"x_min":28,"x_max":875,"o":"m 526 911 l 526 83 q 505 17 526 33 q 440 0 483 0 q 376 69 376 0 l 376 911 l 168 911 l 168 813 q 148 742 168 763 q 88 722 128 722 q 28 792 28 722 l 28 933 q 49 975 28 965 q 111 985 71 985 l 792 985 q 853 975 832 985 q 875 933 875 965 l 875 792 q 815 722 875 722 q 756 742 776 722 q 735 813 735 763 l 735 911 l 526 911 m 436 -314 q 372 -350 407 -350 q 347 -342 358 -350 q 336 -319 336 -333 l 369 -137 q 397 -92 376 -106 q 449 -78 417 -78 q 503 -92 483 -78 q 524 -137 524 -106 q 504 -212 524 -171 q 436 -314 485 -253 z "},"U":{"ha":997,"x_min":129,"x_max":868,"o":"m 279 304 q 344 128 279 192 q 525 64 410 64 q 651 96 599 64 q 731 184 703 128 q 758 310 758 240 l 758 907 q 778 968 758 951 q 815 985 797 985 q 851 971 835 985 q 868 922 868 957 l 868 353 q 860 265 868 314 q 829 165 851 215 q 766 73 807 115 q 659 5 725 31 q 497 -21 593 -21 q 331 5 397 -21 q 224 72 264 31 q 163 162 183 113 q 136 260 143 211 q 129 349 129 310 l 129 915 q 144 969 129 954 q 190 985 158 985 q 279 878 279 985 l 279 304 z "},"Ú":{"ha":997,"x_min":129,"x_max":868,"o":"m 279 304 q 344 128 279 192 q 525 64 410 64 q 651 96 599 64 q 731 184 703 128 q 758 310 758 240 l 758 907 q 778 968 758 951 q 815 985 797 985 q 851 971 835 985 q 868 922 868 957 l 868 353 q 860 265 868 314 q 829 165 851 215 q 766 73 807 115 q 659 5 725 31 q 497 -21 593 -21 q 331 5 397 -21 q 224 72 264 31 q 163 162 183 113 q 136 260 143 211 q 129 349 129 310 l 129 915 q 144 969 129 954 q 190 985 158 985 q 279 878 279 985 l 279 304 m 536 1086 q 515 1070 529 1076 q 485 1064 500 1064 q 452 1075 463 1064 q 449 1104 442 1086 l 528 1301 q 560 1329 536 1321 q 610 1338 583 1338 q 674 1324 650 1338 q 683 1290 699 1311 l 536 1086 z "},"Ŭ":{"ha":997,"x_min":129,"x_max":868,"o":"m 279 304 q 344 128 279 192 q 525 64 410 64 q 651 96 599 64 q 731 184 703 128 q 758 310 758 240 l 758 907 q 778 968 758 951 q 815 985 797 985 q 851 971 835 985 q 868 922 868 957 l 868 353 q 860 265 868 314 q 829 165 851 215 q 766 73 807 115 q 659 5 725 31 q 497 -21 593 -21 q 331 5 397 -21 q 224 72 264 31 q 163 162 183 113 q 136 260 143 211 q 129 349 129 310 l 129 915 q 144 969 129 954 q 190 985 158 985 q 279 878 279 985 l 279 304 m 715 1236 q 660 1111 715 1163 q 511 1060 604 1060 q 364 1111 419 1060 q 308 1236 308 1163 q 318 1263 308 1251 q 346 1275 328 1275 q 396 1238 382 1275 q 445 1167 415 1183 q 511 1151 475 1151 q 578 1167 549 1151 q 628 1238 608 1183 q 678 1275 642 1275 q 706 1263 697 1275 q 715 1236 715 1251 z "},"Û":{"ha":997,"x_min":129,"x_max":868,"o":"m 279 304 q 344 128 279 192 q 525 64 410 64 q 651 96 599 64 q 731 184 703 128 q 758 310 758 240 l 758 907 q 778 968 758 951 q 815 985 797 985 q 851 971 835 985 q 868 922 868 957 l 868 353 q 860 265 868 314 q 829 165 851 215 q 766 73 807 115 q 659 5 725 31 q 497 -21 593 -21 q 331 5 397 -21 q 224 72 264 31 q 163 162 183 113 q 136 260 143 211 q 129 349 129 310 l 129 915 q 144 969 129 954 q 190 985 158 985 q 279 878 279 985 l 279 304 m 513 1175 l 440 1103 q 394 1071 418 1081 q 350 1061 371 1061 q 313 1070 328 1061 q 297 1090 297 1079 q 303 1103 297 1097 l 444 1250 q 474 1269 456 1263 q 513 1275 493 1275 q 551 1269 532 1275 q 581 1250 569 1263 l 722 1103 q 728 1090 728 1097 q 713 1070 728 1079 q 675 1061 699 1061 q 631 1071 654 1061 q 585 1103 607 1081 l 513 1175 z "},"Ȕ":{"ha":997,"x_min":129,"x_max":868,"o":"m 279 304 q 344 128 279 192 q 525 64 410 64 q 651 96 599 64 q 731 184 703 128 q 758 310 758 240 l 758 907 q 778 968 758 951 q 815 985 797 985 q 851 971 835 985 q 868 922 868 957 l 868 353 q 860 265 868 314 q 829 165 851 215 q 766 73 807 115 q 659 5 725 31 q 497 -21 593 -21 q 331 5 397 -21 q 224 72 264 31 q 163 162 183 113 q 136 260 143 211 q 129 349 129 310 l 129 915 q 144 969 129 954 q 190 985 158 985 q 279 878 279 985 l 279 304 m 289 1282 q 285 1294 285 1286 q 303 1319 285 1310 q 353 1328 321 1328 q 396 1319 375 1328 q 424 1292 417 1311 l 489 1118 q 492 1106 492 1113 q 481 1086 492 1093 q 457 1079 471 1079 q 411 1101 426 1079 l 289 1282 m 483 1282 q 479 1294 479 1286 q 497 1319 479 1310 q 547 1328 515 1328 q 590 1319 569 1328 q 618 1292 611 1311 l 683 1118 q 686 1106 686 1113 q 676 1086 686 1093 q 651 1079 665 1079 q 606 1101 621 1079 l 483 1282 z "},"Ü":{"ha":997,"x_min":129,"x_max":868,"o":"m 279 304 q 344 128 279 192 q 525 64 410 64 q 651 96 599 64 q 731 184 703 128 q 758 310 758 240 l 758 907 q 778 968 758 951 q 815 985 797 985 q 851 971 835 985 q 868 922 868 957 l 868 353 q 860 265 868 314 q 829 165 851 215 q 766 73 807 115 q 659 5 725 31 q 497 -21 593 -21 q 331 5 397 -21 q 224 72 264 31 q 163 162 183 113 q 136 260 143 211 q 129 349 129 310 l 129 915 q 144 969 129 954 q 190 985 158 985 q 279 878 279 985 l 279 304 m 274 1183 q 303 1251 274 1222 q 367 1279 332 1279 q 435 1251 407 1279 q 464 1183 464 1222 q 435 1118 464 1147 q 367 1089 407 1089 q 303 1118 332 1089 q 274 1183 274 1147 m 561 1182 q 590 1250 561 1222 q 656 1278 618 1278 q 722 1250 693 1278 q 751 1182 751 1222 q 722 1117 751 1146 q 656 1088 693 1088 q 590 1117 618 1088 q 561 1182 561 1146 z "},"Ụ":{"ha":997,"x_min":129,"x_max":868,"o":"m 279 304 q 344 128 279 192 q 525 64 410 64 q 651 96 599 64 q 731 184 703 128 q 758 310 758 240 l 758 907 q 778 968 758 951 q 815 985 797 985 q 851 971 835 985 q 868 922 868 957 l 868 353 q 860 265 868 314 q 829 165 851 215 q 766 73 807 115 q 659 5 725 31 q 497 -21 593 -21 q 331 5 397 -21 q 224 72 264 31 q 163 162 183 113 q 136 260 143 211 q 129 349 129 310 l 129 915 q 144 969 129 954 q 190 985 158 985 q 279 878 279 985 l 279 304 m 413 -182 q 438 -121 413 -146 q 499 -96 464 -96 q 560 -121 535 -96 q 585 -182 585 -146 q 560 -242 585 -217 q 499 -268 535 -268 q 438 -242 464 -268 q 413 -182 413 -217 z "},"Ù":{"ha":997,"x_min":129,"x_max":868,"o":"m 279 304 q 344 128 279 192 q 525 64 410 64 q 651 96 599 64 q 731 184 703 128 q 758 310 758 240 l 758 907 q 778 968 758 951 q 815 985 797 985 q 851 971 835 985 q 868 922 868 957 l 868 353 q 860 265 868 314 q 829 165 851 215 q 766 73 807 115 q 659 5 725 31 q 497 -21 593 -21 q 331 5 397 -21 q 224 72 264 31 q 163 162 183 113 q 136 260 143 211 q 129 349 129 310 l 129 915 q 144 969 129 954 q 190 985 158 985 q 279 878 279 985 l 279 304 m 354 1290 q 350 1304 350 1297 q 428 1338 350 1338 q 478 1329 454 1338 q 510 1301 503 1321 l 589 1104 q 592 1090 592 1099 q 581 1071 592 1078 q 553 1064 569 1064 q 501 1086 519 1064 l 354 1290 z "},"Ủ":{"ha":997,"x_min":129,"x_max":868,"o":"m 279 304 q 344 128 279 192 q 525 64 410 64 q 651 96 599 64 q 731 184 703 128 q 758 310 758 240 l 758 907 q 778 968 758 951 q 815 985 797 985 q 851 971 835 985 q 868 922 868 957 l 868 353 q 860 265 868 314 q 829 165 851 215 q 766 73 807 115 q 659 5 725 31 q 497 -21 593 -21 q 331 5 397 -21 q 224 72 264 31 q 163 162 183 113 q 136 260 143 211 q 129 349 129 310 l 129 915 q 144 969 129 954 q 190 985 158 985 q 279 878 279 985 l 279 304 m 465 1079 q 528 1137 507 1117 q 558 1172 550 1157 q 565 1206 565 1186 q 551 1245 565 1229 q 508 1261 538 1261 q 467 1253 483 1261 q 439 1238 451 1246 q 411 1231 426 1231 q 385 1257 385 1231 q 407 1297 385 1281 q 463 1321 429 1313 q 529 1329 496 1329 q 612 1313 582 1329 q 655 1272 642 1296 q 668 1222 668 1247 q 631 1131 668 1172 q 554 1051 593 1090 q 526 1032 542 1038 q 497 1026 511 1026 q 457 1042 471 1026 q 465 1079 443 1058 z "},"Ư":{"ha":997,"x_min":129,"x_max":1054,"o":"m 279 304 q 344 128 279 192 q 525 64 410 64 q 651 96 599 64 q 731 184 703 128 q 758 310 758 240 l 758 907 q 778 968 758 951 q 815 985 797 985 q 851 971 835 985 q 868 922 868 957 l 868 353 q 860 265 868 314 q 829 165 851 215 q 766 73 807 115 q 659 5 725 31 q 497 -21 593 -21 q 331 5 397 -21 q 224 72 264 31 q 163 162 183 113 q 136 260 143 211 q 129 349 129 310 l 129 915 q 144 969 129 954 q 190 985 158 985 q 279 878 279 985 l 279 304 m 913 1096 q 928 1143 913 1128 q 985 1158 943 1158 q 1040 1141 1025 1158 q 1054 1086 1054 1124 q 1022 1001 1054 1038 q 936 947 990 965 q 815 928 882 928 l 815 985 l 868 985 q 903 1012 894 985 q 913 1096 913 1039 z "},"Ứ":{"ha":997,"x_min":129,"x_max":1054,"o":"m 279 304 q 344 128 279 192 q 525 64 410 64 q 651 96 599 64 q 731 184 703 128 q 758 310 758 240 l 758 907 q 778 968 758 951 q 815 985 797 985 q 851 971 835 985 q 868 922 868 957 l 868 353 q 860 265 868 314 q 829 165 851 215 q 766 73 807 115 q 659 5 725 31 q 497 -21 593 -21 q 331 5 397 -21 q 224 72 264 31 q 163 162 183 113 q 136 260 143 211 q 129 349 129 310 l 129 915 q 144 969 129 954 q 190 985 158 985 q 279 878 279 985 l 279 304 m 913 1096 q 928 1143 913 1128 q 985 1158 943 1158 q 1040 1141 1025 1158 q 1054 1086 1054 1124 q 1022 1001 1054 1038 q 936 947 990 965 q 815 928 882 928 l 815 985 l 868 985 q 903 1012 894 985 q 913 1096 913 1039 m 536 1086 q 515 1070 529 1076 q 485 1064 500 1064 q 452 1075 463 1064 q 449 1104 442 1086 l 528 1301 q 560 1329 536 1321 q 610 1338 583 1338 q 674 1324 650 1338 q 683 1290 699 1311 l 536 1086 z "},"Ự":{"ha":997,"x_min":129,"x_max":1054,"o":"m 279 304 q 344 128 279 192 q 525 64 410 64 q 651 96 599 64 q 731 184 703 128 q 758 310 758 240 l 758 907 q 778 968 758 951 q 815 985 797 985 q 851 971 835 985 q 868 922 868 957 l 868 353 q 860 265 868 314 q 829 165 851 215 q 766 73 807 115 q 659 5 725 31 q 497 -21 593 -21 q 331 5 397 -21 q 224 72 264 31 q 163 162 183 113 q 136 260 143 211 q 129 349 129 310 l 129 915 q 144 969 129 954 q 190 985 158 985 q 279 878 279 985 l 279 304 m 913 1096 q 928 1143 913 1128 q 985 1158 943 1158 q 1040 1141 1025 1158 q 1054 1086 1054 1124 q 1022 1001 1054 1038 q 936 947 990 965 q 815 928 882 928 l 815 985 l 868 985 q 903 1012 894 985 q 913 1096 913 1039 m 413 -182 q 438 -121 413 -146 q 499 -96 464 -96 q 560 -121 535 -96 q 585 -182 585 -146 q 560 -242 585 -217 q 499 -268 535 -268 q 438 -242 464 -268 q 413 -182 413 -217 z "},"Ừ":{"ha":997,"x_min":129,"x_max":1054,"o":"m 279 304 q 344 128 279 192 q 525 64 410 64 q 651 96 599 64 q 731 184 703 128 q 758 310 758 240 l 758 907 q 778 968 758 951 q 815 985 797 985 q 851 971 835 985 q 868 922 868 957 l 868 353 q 860 265 868 314 q 829 165 851 215 q 766 73 807 115 q 659 5 725 31 q 497 -21 593 -21 q 331 5 397 -21 q 224 72 264 31 q 163 162 183 113 q 136 260 143 211 q 129 349 129 310 l 129 915 q 144 969 129 954 q 190 985 158 985 q 279 878 279 985 l 279 304 m 913 1096 q 928 1143 913 1128 q 985 1158 943 1158 q 1040 1141 1025 1158 q 1054 1086 1054 1124 q 1022 1001 1054 1038 q 936 947 990 965 q 815 928 882 928 l 815 985 l 868 985 q 903 1012 894 985 q 913 1096 913 1039 m 354 1290 q 350 1304 350 1297 q 428 1338 350 1338 q 478 1329 454 1338 q 510 1301 503 1321 l 589 1104 q 592 1090 592 1099 q 581 1071 592 1078 q 553 1064 569 1064 q 501 1086 519 1064 l 354 1290 z "},"Ử":{"ha":997,"x_min":129,"x_max":1054,"o":"m 279 304 q 344 128 279 192 q 525 64 410 64 q 651 96 599 64 q 731 184 703 128 q 758 310 758 240 l 758 907 q 778 968 758 951 q 815 985 797 985 q 851 971 835 985 q 868 922 868 957 l 868 353 q 860 265 868 314 q 829 165 851 215 q 766 73 807 115 q 659 5 725 31 q 497 -21 593 -21 q 331 5 397 -21 q 224 72 264 31 q 163 162 183 113 q 136 260 143 211 q 129 349 129 310 l 129 915 q 144 969 129 954 q 190 985 158 985 q 279 878 279 985 l 279 304 m 913 1096 q 928 1143 913 1128 q 985 1158 943 1158 q 1040 1141 1025 1158 q 1054 1086 1054 1124 q 1022 1001 1054 1038 q 936 947 990 965 q 815 928 882 928 l 815 985 l 868 985 q 903 1012 894 985 q 913 1096 913 1039 m 465 1079 q 528 1137 507 1117 q 558 1172 550 1157 q 565 1206 565 1186 q 551 1245 565 1229 q 508 1261 538 1261 q 467 1253 483 1261 q 439 1238 451 1246 q 411 1231 426 1231 q 385 1257 385 1231 q 407 1297 385 1281 q 463 1321 429 1313 q 529 1329 496 1329 q 612 1313 582 1329 q 655 1272 642 1296 q 668 1222 668 1247 q 631 1131 668 1172 q 554 1051 593 1090 q 526 1032 542 1038 q 497 1026 511 1026 q 457 1042 471 1026 q 465 1079 443 1058 z "},"Ữ":{"ha":997,"x_min":129,"x_max":1054,"o":"m 279 304 q 344 128 279 192 q 525 64 410 64 q 651 96 599 64 q 731 184 703 128 q 758 310 758 240 l 758 907 q 778 968 758 951 q 815 985 797 985 q 851 971 835 985 q 868 922 868 957 l 868 353 q 860 265 868 314 q 829 165 851 215 q 766 73 807 115 q 659 5 725 31 q 497 -21 593 -21 q 331 5 397 -21 q 224 72 264 31 q 163 162 183 113 q 136 260 143 211 q 129 349 129 310 l 129 915 q 144 969 129 954 q 190 985 158 985 q 279 878 279 985 l 279 304 m 913 1096 q 928 1143 913 1128 q 985 1158 943 1158 q 1040 1141 1025 1158 q 1054 1086 1054 1124 q 1022 1001 1054 1038 q 936 947 990 965 q 815 928 882 928 l 815 985 l 868 985 q 903 1012 894 985 q 913 1096 913 1039 m 419 1129 q 388 1120 397 1129 q 374 1100 378 1111 q 363 1080 369 1089 q 336 1071 356 1071 q 305 1079 313 1071 q 297 1099 297 1088 q 313 1154 297 1124 q 360 1207 329 1185 q 436 1229 392 1229 q 468 1224 447 1228 q 524 1208 489 1221 q 567 1191 547 1199 q 610 1183 588 1183 q 638 1190 629 1183 q 651 1207 646 1197 q 665 1229 658 1218 q 696 1240 672 1240 q 719 1233 713 1240 q 726 1214 726 1225 q 717 1176 726 1196 q 663 1104 694 1125 q 599 1083 631 1083 q 549 1090 571 1083 q 503 1107 526 1097 q 451 1124 469 1119 q 419 1129 433 1129 z "},"Ű":{"ha":997,"x_min":129,"x_max":868,"o":"m 279 304 q 344 128 279 192 q 525 64 410 64 q 651 96 599 64 q 731 184 703 128 q 758 310 758 240 l 758 907 q 778 968 758 951 q 815 985 797 985 q 851 971 835 985 q 868 922 868 957 l 868 353 q 860 265 868 314 q 829 165 851 215 q 766 73 807 115 q 659 5 725 31 q 497 -21 593 -21 q 331 5 397 -21 q 224 72 264 31 q 163 162 183 113 q 136 260 143 211 q 129 349 129 310 l 129 915 q 144 969 129 954 q 190 985 158 985 q 279 878 279 985 l 279 304 m 429 1046 q 383 1028 414 1028 q 359 1033 369 1028 q 349 1049 349 1039 q 349 1054 349 1051 q 351 1060 350 1057 l 407 1200 q 440 1239 418 1228 q 488 1250 461 1250 q 531 1237 515 1250 q 547 1201 547 1224 q 543 1192 547 1196 l 429 1046 m 654 1046 q 608 1028 639 1028 q 584 1033 594 1028 q 574 1049 574 1039 q 574 1054 574 1051 q 576 1060 575 1057 l 646 1200 q 681 1240 661 1229 q 726 1250 700 1250 q 770 1237 754 1250 q 786 1201 786 1224 q 782 1192 786 1196 l 654 1046 z "},"Ȗ":{"ha":997,"x_min":129,"x_max":868,"o":"m 279 304 q 344 128 279 192 q 525 64 410 64 q 651 96 599 64 q 731 184 703 128 q 758 310 758 240 l 758 907 q 778 968 758 951 q 815 985 797 985 q 851 971 835 985 q 868 922 868 957 l 868 353 q 860 265 868 314 q 829 165 851 215 q 766 73 807 115 q 659 5 725 31 q 497 -21 593 -21 q 331 5 397 -21 q 224 72 264 31 q 163 162 183 113 q 136 260 143 211 q 129 349 129 310 l 129 915 q 144 969 129 954 q 190 985 158 985 q 279 878 279 985 l 279 304 m 715 1099 q 706 1072 715 1083 q 678 1060 697 1060 q 628 1097 642 1060 q 578 1167 608 1151 q 511 1183 549 1183 q 445 1167 475 1183 q 396 1097 415 1151 q 346 1060 382 1060 q 318 1072 328 1060 q 308 1099 308 1083 q 364 1224 308 1172 q 511 1275 419 1275 q 660 1224 604 1275 q 715 1099 715 1172 z "},"Ū":{"ha":997,"x_min":129,"x_max":868,"o":"m 279 304 q 344 128 279 192 q 525 64 410 64 q 651 96 599 64 q 731 184 703 128 q 758 310 758 240 l 758 907 q 778 968 758 951 q 815 985 797 985 q 851 971 835 985 q 868 922 868 957 l 868 353 q 860 265 868 314 q 829 165 851 215 q 766 73 807 115 q 659 5 725 31 q 497 -21 593 -21 q 331 5 397 -21 q 224 72 264 31 q 163 162 183 113 q 136 260 143 211 q 129 349 129 310 l 129 915 q 144 969 129 954 q 190 985 158 985 q 279 878 279 985 l 279 304 m 336 1093 q 313 1105 322 1093 q 303 1135 303 1117 q 313 1166 303 1154 q 336 1178 322 1178 l 689 1178 q 712 1166 701 1178 q 722 1135 722 1154 q 689 1093 722 1093 l 336 1093 z "},"Ų":{"ha":997,"x_min":129,"x_max":868,"o":"m 279 304 q 344 128 279 192 q 525 64 410 64 q 651 96 599 64 q 731 184 703 128 q 758 310 758 240 l 758 907 q 778 968 758 951 q 815 985 797 985 q 851 971 835 985 q 868 922 868 957 l 868 353 q 860 265 868 314 q 829 165 851 215 q 766 73 807 115 q 659 5 725 31 q 497 -21 593 -21 q 331 5 397 -21 q 224 72 264 31 q 163 162 183 113 q 136 260 143 211 q 129 349 129 310 l 129 915 q 144 969 129 954 q 190 985 158 985 q 279 878 279 985 l 279 304 m 678 14 q 594 -76 618 -36 q 571 -149 571 -115 q 587 -192 571 -175 q 629 -208 603 -208 q 670 -201 656 -208 q 696 -185 685 -193 q 722 -178 707 -178 q 749 -204 749 -178 q 724 -244 749 -228 q 663 -268 699 -260 q 596 -276 628 -276 q 494 -240 524 -276 q 465 -162 465 -204 q 604 14 465 -65 l 678 14 z "},"Ů":{"ha":997,"x_min":129,"x_max":868,"o":"m 279 304 q 344 128 279 192 q 525 64 410 64 q 651 96 599 64 q 731 184 703 128 q 758 310 758 240 l 758 907 q 778 968 758 951 q 815 985 797 985 q 851 971 835 985 q 868 922 868 957 l 868 353 q 860 265 868 314 q 829 165 851 215 q 766 73 807 115 q 659 5 725 31 q 497 -21 593 -21 q 331 5 397 -21 q 224 72 264 31 q 163 162 183 113 q 136 260 143 211 q 129 349 129 310 l 129 915 q 144 969 129 954 q 190 985 158 985 q 279 878 279 985 l 279 304 m 363 1207 q 406 1314 363 1271 q 513 1357 449 1357 q 619 1314 575 1357 q 663 1207 663 1271 q 619 1101 663 1144 q 513 1057 575 1057 q 406 1101 449 1057 q 363 1207 363 1144 m 439 1207 q 461 1156 439 1178 q 513 1135 483 1135 q 563 1156 540 1135 q 585 1207 585 1178 q 563 1258 585 1236 q 513 1281 540 1281 q 461 1258 483 1281 q 439 1207 439 1236 z "},"Ũ":{"ha":997,"x_min":129,"x_max":868,"o":"m 279 304 q 344 128 279 192 q 525 64 410 64 q 651 96 599 64 q 731 184 703 128 q 758 310 758 240 l 758 907 q 778 968 758 951 q 815 985 797 985 q 851 971 835 985 q 868 922 868 957 l 868 353 q 860 265 868 314 q 829 165 851 215 q 766 73 807 115 q 659 5 725 31 q 497 -21 593 -21 q 331 5 397 -21 q 224 72 264 31 q 163 162 183 113 q 136 260 143 211 q 129 349 129 310 l 129 915 q 144 969 129 954 q 190 985 158 985 q 279 878 279 985 l 279 304 m 419 1129 q 388 1120 397 1129 q 374 1100 378 1111 q 363 1080 369 1089 q 336 1071 356 1071 q 305 1079 313 1071 q 297 1099 297 1088 q 313 1154 297 1124 q 360 1207 329 1185 q 436 1229 392 1229 q 468 1224 447 1228 q 524 1208 489 1221 q 567 1191 547 1199 q 610 1183 588 1183 q 638 1190 629 1183 q 651 1207 646 1197 q 665 1229 658 1218 q 696 1240 672 1240 q 719 1233 713 1240 q 726 1214 726 1225 q 717 1176 726 1196 q 663 1104 694 1125 q 599 1083 631 1083 q 549 1090 571 1083 q 503 1107 526 1097 q 451 1124 469 1119 q 419 1129 433 1129 z "},"V":{"ha":757,"x_min":-7,"x_max":778,"o":"m 656 911 q 694 973 672 961 q 735 985 715 985 q 766 974 754 985 q 778 947 778 963 q 771 913 778 931 l 468 56 q 433 12 457 24 q 381 0 410 0 q 331 11 356 0 q 297 50 307 22 l -1 903 q -7 933 -7 918 q 7 969 -7 954 q 53 985 21 985 q 102 973 72 985 q 149 911 132 961 l 396 157 l 404 157 l 656 911 z "},"W":{"ha":1179,"x_min":36,"x_max":1149,"o":"m 1029 911 q 1066 973 1044 961 q 1107 985 1088 985 q 1138 974 1126 985 q 1149 947 1149 963 q 1142 913 1149 931 l 910 56 q 876 12 900 24 q 824 0 851 0 q 775 11 801 0 q 742 50 749 22 l 596 718 l 593 718 l 432 56 q 399 12 424 24 q 346 0 374 0 q 297 11 322 0 q 264 50 271 22 l 42 903 q 36 933 36 918 q 50 969 36 954 q 94 985 64 985 q 144 973 114 985 q 189 911 174 961 l 361 157 l 369 157 l 535 897 q 562 963 546 942 q 610 985 578 985 q 658 959 642 985 q 681 901 675 933 l 839 157 l 847 157 l 1029 911 z "},"Ẃ":{"ha":1179,"x_min":36,"x_max":1149,"o":"m 1029 911 q 1066 973 1044 961 q 1107 985 1088 985 q 1138 974 1126 985 q 1149 947 1149 963 q 1142 913 1149 931 l 910 56 q 876 12 900 24 q 824 0 851 0 q 775 11 801 0 q 742 50 749 22 l 596 718 l 593 718 l 432 56 q 399 12 424 24 q 346 0 374 0 q 297 11 322 0 q 264 50 271 22 l 42 903 q 36 933 36 918 q 50 969 36 954 q 94 985 64 985 q 144 973 114 985 q 189 911 174 961 l 361 157 l 369 157 l 535 897 q 562 963 546 942 q 610 985 578 985 q 658 959 642 985 q 681 901 675 933 l 839 157 l 847 157 l 1029 911 m 614 1086 q 592 1070 607 1076 q 563 1064 578 1064 q 530 1075 540 1064 q 526 1104 519 1086 l 606 1301 q 638 1329 614 1321 q 688 1338 661 1338 q 752 1324 728 1338 q 761 1290 776 1311 l 614 1086 z "},"Ŵ":{"ha":1179,"x_min":36,"x_max":1149,"o":"m 1029 911 q 1066 973 1044 961 q 1107 985 1088 985 q 1138 974 1126 985 q 1149 947 1149 963 q 1142 913 1149 931 l 910 56 q 876 12 900 24 q 824 0 851 0 q 775 11 801 0 q 742 50 749 22 l 596 718 l 593 718 l 432 56 q 399 12 424 24 q 346 0 374 0 q 297 11 322 0 q 264 50 271 22 l 42 903 q 36 933 36 918 q 50 969 36 954 q 94 985 64 985 q 144 973 114 985 q 189 911 174 961 l 361 157 l 369 157 l 535 897 q 562 963 546 942 q 610 985 578 985 q 658 959 642 985 q 681 901 675 933 l 839 157 l 847 157 l 1029 911 m 590 1175 l 518 1103 q 472 1071 496 1081 q 428 1061 449 1061 q 390 1070 406 1061 q 375 1090 375 1079 q 381 1103 375 1097 l 522 1250 q 552 1269 533 1263 q 590 1275 571 1275 q 628 1269 610 1275 q 658 1250 647 1263 l 800 1103 q 806 1090 806 1097 q 791 1070 806 1079 q 753 1061 776 1061 q 708 1071 732 1061 q 663 1103 685 1081 l 590 1175 z "},"Ẅ":{"ha":1179,"x_min":36,"x_max":1149,"o":"m 1029 911 q 1066 973 1044 961 q 1107 985 1088 985 q 1138 974 1126 985 q 1149 947 1149 963 q 1142 913 1149 931 l 910 56 q 876 12 900 24 q 824 0 851 0 q 775 11 801 0 q 742 50 749 22 l 596 718 l 593 718 l 432 56 q 399 12 424 24 q 346 0 374 0 q 297 11 322 0 q 264 50 271 22 l 42 903 q 36 933 36 918 q 50 969 36 954 q 94 985 64 985 q 144 973 114 985 q 189 911 174 961 l 361 157 l 369 157 l 535 897 q 562 963 546 942 q 610 985 578 985 q 658 959 642 985 q 681 901 675 933 l 839 157 l 847 157 l 1029 911 m 351 1183 q 381 1251 351 1222 q 444 1279 410 1279 q 513 1251 485 1279 q 542 1183 542 1222 q 513 1118 542 1147 q 444 1089 485 1089 q 381 1118 410 1089 q 351 1183 351 1147 m 639 1182 q 667 1250 639 1222 q 733 1278 696 1278 q 800 1250 771 1278 q 829 1182 829 1222 q 800 1117 829 1146 q 733 1088 771 1088 q 667 1117 696 1088 q 639 1182 639 1146 z "},"Ẁ":{"ha":1179,"x_min":36,"x_max":1149,"o":"m 1029 911 q 1066 973 1044 961 q 1107 985 1088 985 q 1138 974 1126 985 q 1149 947 1149 963 q 1142 913 1149 931 l 910 56 q 876 12 900 24 q 824 0 851 0 q 775 11 801 0 q 742 50 749 22 l 596 718 l 593 718 l 432 56 q 399 12 424 24 q 346 0 374 0 q 297 11 322 0 q 264 50 271 22 l 42 903 q 36 933 36 918 q 50 969 36 954 q 94 985 64 985 q 144 973 114 985 q 189 911 174 961 l 361 157 l 369 157 l 535 897 q 562 963 546 942 q 610 985 578 985 q 658 959 642 985 q 681 901 675 933 l 839 157 l 847 157 l 1029 911 m 432 1290 q 428 1304 428 1297 q 506 1338 428 1338 q 556 1329 532 1338 q 588 1301 581 1321 l 667 1104 q 669 1090 669 1099 q 658 1071 669 1078 q 631 1064 647 1064 q 579 1086 597 1064 l 432 1290 z "},"X":{"ha":818,"x_min":42,"x_max":776,"o":"m 610 911 q 699 985 654 985 q 727 976 714 985 q 740 951 740 967 q 737 932 740 943 q 725 910 733 921 l 492 531 l 765 83 q 776 44 776 65 q 762 13 776 26 q 722 0 747 0 q 656 17 679 0 q 610 72 632 35 l 401 426 l 396 426 l 178 75 q 125 12 147 24 q 83 0 103 0 q 51 10 61 0 q 42 31 42 19 q 47 54 42 42 q 57 75 51 67 l 335 508 l 97 904 q 88 938 88 919 q 103 971 88 957 q 142 985 119 985 q 207 964 182 985 q 250 911 232 943 l 424 603 l 432 603 l 610 911 z "},"Y":{"ha":760,"x_min":25,"x_max":740,"o":"m 372 0 q 307 69 307 0 l 307 372 l 33 901 q 25 936 25 921 q 39 971 25 957 q 75 985 53 985 q 135 971 110 985 q 182 913 160 957 l 403 476 l 408 476 l 617 911 q 657 968 636 951 q 701 985 678 985 q 731 971 722 985 q 740 939 740 957 q 733 908 740 922 l 457 372 l 457 83 q 436 17 457 33 q 372 0 415 0 z "},"Ý":{"ha":760,"x_min":25,"x_max":740,"o":"m 372 0 q 307 69 307 0 l 307 372 l 33 901 q 25 936 25 921 q 39 971 25 957 q 75 985 53 985 q 135 971 110 985 q 182 913 160 957 l 403 476 l 408 476 l 617 911 q 657 968 636 951 q 701 985 678 985 q 731 971 722 985 q 740 939 740 957 q 733 908 740 922 l 457 372 l 457 83 q 436 17 457 33 q 372 0 415 0 m 418 1086 q 397 1070 411 1076 q 367 1064 382 1064 q 334 1075 344 1064 q 331 1104 324 1086 l 410 1301 q 442 1329 418 1321 q 492 1338 465 1338 q 556 1324 532 1338 q 565 1290 581 1311 l 418 1086 z "},"Ŷ":{"ha":760,"x_min":25,"x_max":740,"o":"m 372 0 q 307 69 307 0 l 307 372 l 33 901 q 25 936 25 921 q 39 971 25 957 q 75 985 53 985 q 135 971 110 985 q 182 913 160 957 l 403 476 l 408 476 l 617 911 q 657 968 636 951 q 701 985 678 985 q 731 971 722 985 q 740 939 740 957 q 733 908 740 922 l 457 372 l 457 83 q 436 17 457 33 q 372 0 415 0 m 394 1175 l 322 1103 q 276 1071 300 1081 q 232 1061 253 1061 q 194 1070 210 1061 q 179 1090 179 1079 q 185 1103 179 1097 l 326 1250 q 356 1269 338 1263 q 394 1275 375 1275 q 433 1269 414 1275 q 463 1250 451 1263 l 604 1103 q 610 1090 610 1097 q 595 1070 610 1079 q 557 1061 581 1061 q 513 1071 536 1061 q 467 1103 489 1081 l 394 1175 z "},"Ÿ":{"ha":760,"x_min":25,"x_max":740,"o":"m 372 0 q 307 69 307 0 l 307 372 l 33 901 q 25 936 25 921 q 39 971 25 957 q 75 985 53 985 q 135 971 110 985 q 182 913 160 957 l 403 476 l 408 476 l 617 911 q 657 968 636 951 q 701 985 678 985 q 731 971 722 985 q 740 939 740 957 q 733 908 740 922 l 457 372 l 457 83 q 436 17 457 33 q 372 0 415 0 m 156 1183 q 185 1251 156 1222 q 249 1279 214 1279 q 317 1251 289 1279 q 346 1183 346 1222 q 317 1118 346 1147 q 249 1089 289 1089 q 185 1118 214 1089 q 156 1183 156 1147 m 443 1182 q 472 1250 443 1222 q 538 1278 500 1278 q 604 1250 575 1278 q 633 1182 633 1222 q 604 1117 633 1146 q 538 1088 575 1088 q 472 1117 500 1088 q 443 1182 443 1146 z "},"Ỵ":{"ha":760,"x_min":25,"x_max":740,"o":"m 372 0 q 307 69 307 0 l 307 372 l 33 901 q 25 936 25 921 q 39 971 25 957 q 75 985 53 985 q 135 971 110 985 q 182 913 160 957 l 403 476 l 408 476 l 617 911 q 657 968 636 951 q 701 985 678 985 q 731 971 722 985 q 740 939 740 957 q 733 908 740 922 l 457 372 l 457 83 q 436 17 457 33 q 372 0 415 0 m 294 -182 q 320 -121 294 -146 q 381 -96 346 -96 q 442 -121 417 -96 q 467 -182 467 -146 q 442 -242 467 -217 q 381 -268 417 -268 q 320 -242 346 -268 q 294 -182 294 -217 z "},"Ỳ":{"ha":760,"x_min":25,"x_max":740,"o":"m 372 0 q 307 69 307 0 l 307 372 l 33 901 q 25 936 25 921 q 39 971 25 957 q 75 985 53 985 q 135 971 110 985 q 182 913 160 957 l 403 476 l 408 476 l 617 911 q 657 968 636 951 q 701 985 678 985 q 731 971 722 985 q 740 939 740 957 q 733 908 740 922 l 457 372 l 457 83 q 436 17 457 33 q 372 0 415 0 m 236 1290 q 232 1304 232 1297 q 310 1338 232 1338 q 360 1329 336 1338 q 392 1301 385 1321 l 471 1104 q 474 1090 474 1099 q 463 1071 474 1078 q 435 1064 451 1064 q 383 1086 401 1064 l 236 1290 z "},"Ỷ":{"ha":760,"x_min":25,"x_max":740,"o":"m 372 0 q 307 69 307 0 l 307 372 l 33 901 q 25 936 25 921 q 39 971 25 957 q 75 985 53 985 q 135 971 110 985 q 182 913 160 957 l 403 476 l 408 476 l 617 911 q 657 968 636 951 q 701 985 678 985 q 731 971 722 985 q 740 939 740 957 q 733 908 740 922 l 457 372 l 457 83 q 436 17 457 33 q 372 0 415 0 m 347 1079 q 410 1137 389 1117 q 440 1172 432 1157 q 447 1206 447 1186 q 433 1245 447 1229 q 390 1261 419 1261 q 349 1253 365 1261 q 321 1238 333 1246 q 293 1231 308 1231 q 267 1257 267 1231 q 289 1297 267 1281 q 344 1321 311 1313 q 411 1329 378 1329 q 494 1313 464 1329 q 537 1272 524 1296 q 550 1222 550 1247 q 513 1131 550 1172 q 436 1051 475 1090 q 408 1032 424 1038 q 379 1026 393 1026 q 339 1042 353 1026 q 347 1079 325 1058 z "},"Ȳ":{"ha":760,"x_min":25,"x_max":740,"o":"m 372 0 q 307 69 307 0 l 307 372 l 33 901 q 25 936 25 921 q 39 971 25 957 q 75 985 53 985 q 135 971 110 985 q 182 913 160 957 l 403 476 l 408 476 l 617 911 q 657 968 636 951 q 701 985 678 985 q 731 971 722 985 q 740 939 740 957 q 733 908 740 922 l 457 372 l 457 83 q 436 17 457 33 q 372 0 415 0 m 218 1093 q 194 1105 204 1093 q 185 1135 185 1117 q 194 1166 185 1154 q 218 1178 204 1178 l 571 1178 q 594 1166 583 1178 q 604 1135 604 1154 q 571 1093 604 1093 l 218 1093 z "},"Ỹ":{"ha":760,"x_min":25,"x_max":740,"o":"m 372 0 q 307 69 307 0 l 307 372 l 33 901 q 25 936 25 921 q 39 971 25 957 q 75 985 53 985 q 135 971 110 985 q 182 913 160 957 l 403 476 l 408 476 l 617 911 q 657 968 636 951 q 701 985 678 985 q 731 971 722 985 q 740 939 740 957 q 733 908 740 922 l 457 372 l 457 83 q 436 17 457 33 q 372 0 415 0 m 301 1129 q 269 1120 279 1129 q 256 1100 260 1111 q 244 1080 251 1089 q 218 1071 238 1071 q 187 1079 194 1071 q 179 1099 179 1088 q 195 1154 179 1124 q 242 1207 211 1185 q 318 1229 274 1229 q 350 1224 329 1228 q 406 1208 371 1221 q 449 1191 429 1199 q 492 1183 469 1183 q 519 1190 511 1183 q 533 1207 528 1197 q 547 1229 540 1218 q 578 1240 554 1240 q 601 1233 594 1240 q 608 1214 608 1225 q 599 1176 608 1196 q 544 1104 576 1125 q 481 1083 513 1083 q 431 1090 453 1083 q 385 1107 408 1097 q 333 1124 351 1119 q 301 1129 315 1129 z "},"Z":{"ha":822,"x_min":56,"x_max":767,"o":"m 118 0 q 70 21 85 0 q 56 68 56 42 q 58 95 56 81 q 67 118 61 110 l 599 911 l 226 911 l 226 833 q 206 763 226 783 q 146 743 186 743 q 86 813 86 743 l 86 933 q 108 975 86 965 q 169 985 129 985 l 693 985 q 740 963 725 985 q 756 914 756 942 q 753 888 756 903 q 744 867 750 874 l 200 74 l 626 74 l 626 151 q 647 222 626 201 q 707 242 668 242 q 767 172 767 242 l 767 51 q 745 10 767 21 q 683 0 724 0 l 118 0 z "},"Ź":{"ha":822,"x_min":56,"x_max":767,"o":"m 118 0 q 70 21 85 0 q 56 68 56 42 q 58 95 56 81 q 67 118 61 110 l 599 911 l 226 911 l 226 833 q 206 763 226 783 q 146 743 186 743 q 86 813 86 743 l 86 933 q 108 975 86 965 q 169 985 129 985 l 693 985 q 740 963 725 985 q 756 914 756 942 q 753 888 756 903 q 744 867 750 874 l 200 74 l 626 74 l 626 151 q 647 222 626 201 q 707 242 668 242 q 767 172 767 242 l 767 51 q 745 10 767 21 q 683 0 724 0 l 118 0 m 435 1086 q 413 1070 428 1076 q 383 1064 399 1064 q 351 1075 361 1064 q 347 1104 340 1086 l 426 1301 q 458 1329 435 1321 q 508 1338 482 1338 q 573 1324 549 1338 q 582 1290 597 1311 l 435 1086 z "},"Ž":{"ha":822,"x_min":56,"x_max":767,"o":"m 118 0 q 70 21 85 0 q 56 68 56 42 q 58 95 56 81 q 67 118 61 110 l 599 911 l 226 911 l 226 833 q 206 763 226 783 q 146 743 186 743 q 86 813 86 743 l 86 933 q 108 975 86 965 q 169 985 129 985 l 693 985 q 740 963 725 985 q 756 914 756 942 q 753 888 756 903 q 744 867 750 874 l 200 74 l 626 74 l 626 151 q 647 222 626 201 q 707 242 668 242 q 767 172 767 242 l 767 51 q 745 10 767 21 q 683 0 724 0 l 118 0 m 410 1158 l 488 1233 q 537 1267 511 1257 q 585 1276 563 1276 q 626 1267 610 1276 q 642 1246 642 1258 q 636 1233 642 1239 l 483 1082 q 415 1056 457 1056 q 372 1062 392 1056 q 338 1082 353 1068 l 185 1233 q 179 1246 179 1239 q 195 1267 179 1258 q 236 1276 211 1276 q 283 1267 258 1276 q 333 1233 308 1257 l 410 1158 z "},"Ż":{"ha":822,"x_min":56,"x_max":767,"o":"m 118 0 q 70 21 85 0 q 56 68 56 42 q 58 95 56 81 q 67 118 61 110 l 599 911 l 226 911 l 226 833 q 206 763 226 783 q 146 743 186 743 q 86 813 86 743 l 86 933 q 108 975 86 965 q 169 985 129 985 l 693 985 q 740 963 725 985 q 756 914 756 942 q 753 888 756 903 q 744 867 750 874 l 200 74 l 626 74 l 626 151 q 647 222 626 201 q 707 242 668 242 q 767 172 767 242 l 767 51 q 745 10 767 21 q 683 0 724 0 l 118 0 m 325 1161 q 351 1222 325 1197 q 411 1247 376 1247 q 472 1222 447 1247 q 497 1161 497 1197 q 472 1101 497 1126 q 411 1075 447 1075 q 351 1101 376 1075 q 325 1161 325 1126 z "},"a":{"ha":758,"x_min":60,"x_max":657,"o":"m 514 132 q 409 32 468 64 q 269 0 350 0 q 112 52 164 0 q 60 188 60 104 q 75 276 60 232 q 129 354 90 319 q 236 410 168 389 q 410 431 304 431 l 511 431 l 511 469 q 478 603 511 565 q 372 642 446 642 q 299 624 329 642 q 250 583 269 606 q 208 548 229 561 q 165 535 188 535 q 128 549 140 535 q 117 582 117 564 q 139 628 117 611 q 193 660 161 646 q 298 688 240 679 q 400 697 356 697 q 558 669 503 697 q 635 585 614 640 q 657 446 657 529 l 657 65 q 647 17 657 35 q 603 0 636 0 q 538 31 557 0 q 518 131 518 63 l 514 132 m 432 372 q 293 350 343 372 q 224 290 243 328 q 204 207 204 253 q 238 118 204 143 q 325 93 271 93 q 403 110 360 93 q 480 164 447 128 q 513 256 513 200 l 513 372 l 432 372 z "},"á":{"ha":758,"x_min":60,"x_max":657,"o":"m 514 132 q 409 32 468 64 q 269 0 350 0 q 112 52 164 0 q 60 188 60 104 q 75 276 60 232 q 129 354 90 319 q 236 410 168 389 q 410 431 304 431 l 511 431 l 511 469 q 478 603 511 565 q 372 642 446 642 q 299 624 329 642 q 250 583 269 606 q 208 548 229 561 q 165 535 188 535 q 128 549 140 535 q 117 582 117 564 q 139 628 117 611 q 193 660 161 646 q 298 688 240 679 q 400 697 356 697 q 558 669 503 697 q 635 585 614 640 q 657 446 657 529 l 657 65 q 647 17 657 35 q 603 0 636 0 q 538 31 557 0 q 518 131 518 63 l 514 132 m 432 372 q 293 350 343 372 q 224 290 243 328 q 204 207 204 253 q 238 118 204 143 q 325 93 271 93 q 403 110 360 93 q 480 164 447 128 q 513 256 513 200 l 513 372 l 432 372 m 408 814 q 357 792 390 792 q 331 799 342 792 q 319 818 319 806 q 322 831 319 825 l 394 1004 q 426 1032 403 1024 q 474 1040 449 1040 q 528 1031 508 1040 q 549 1007 549 1022 q 544 994 549 999 l 408 814 z "},"ă":{"ha":758,"x_min":60,"x_max":657,"o":"m 514 132 q 409 32 468 64 q 269 0 350 0 q 112 52 164 0 q 60 188 60 104 q 75 276 60 232 q 129 354 90 319 q 236 410 168 389 q 410 431 304 431 l 511 431 l 511 469 q 478 603 511 565 q 372 642 446 642 q 299 624 329 642 q 250 583 269 606 q 208 548 229 561 q 165 535 188 535 q 128 549 140 535 q 117 582 117 564 q 139 628 117 611 q 193 660 161 646 q 298 688 240 679 q 400 697 356 697 q 558 669 503 697 q 635 585 614 640 q 657 446 657 529 l 657 65 q 647 17 657 35 q 603 0 636 0 q 538 31 557 0 q 518 131 518 63 l 514 132 m 432 372 q 293 350 343 372 q 224 290 243 328 q 204 207 204 253 q 238 118 204 143 q 325 93 271 93 q 403 110 360 93 q 480 164 447 128 q 513 256 513 200 l 513 372 l 432 372 m 582 949 q 526 824 582 875 q 378 772 471 772 q 231 824 286 772 q 175 949 175 875 q 185 976 175 964 q 213 988 194 988 q 263 950 249 988 q 312 880 282 896 q 378 864 342 864 q 445 880 415 864 q 494 950 475 896 q 544 988 508 988 q 573 976 564 988 q 582 949 582 964 z "},"ắ":{"ha":758,"x_min":60,"x_max":657,"o":"m 514 132 q 409 32 468 64 q 269 0 350 0 q 112 52 164 0 q 60 188 60 104 q 75 276 60 232 q 129 354 90 319 q 236 410 168 389 q 410 431 304 431 l 511 431 l 511 469 q 478 603 511 565 q 372 642 446 642 q 299 624 329 642 q 250 583 269 606 q 208 548 229 561 q 165 535 188 535 q 128 549 140 535 q 117 582 117 564 q 139 628 117 611 q 193 660 161 646 q 298 688 240 679 q 400 697 356 697 q 558 669 503 697 q 635 585 614 640 q 657 446 657 529 l 657 65 q 647 17 657 35 q 603 0 636 0 q 538 31 557 0 q 518 131 518 63 l 514 132 m 432 372 q 293 350 343 372 q 224 290 243 328 q 204 207 204 253 q 238 118 204 143 q 325 93 271 93 q 403 110 360 93 q 480 164 447 128 q 513 256 513 200 l 513 372 l 432 372 m 582 949 q 526 824 582 875 q 378 772 471 772 q 231 824 286 772 q 175 949 175 875 q 185 976 175 964 q 213 988 194 988 q 263 950 249 988 q 312 880 282 896 q 378 864 342 864 q 445 880 415 864 q 494 950 475 896 q 544 988 508 988 q 573 976 564 988 q 582 949 582 964 m 408 979 q 357 957 390 957 q 331 964 342 957 q 319 983 319 971 q 322 996 319 990 l 394 1169 q 426 1197 403 1189 q 474 1206 449 1206 q 528 1197 508 1206 q 549 1172 549 1188 q 544 1160 549 1164 l 408 979 z "},"ặ":{"ha":758,"x_min":60,"x_max":657,"o":"m 514 132 q 409 32 468 64 q 269 0 350 0 q 112 52 164 0 q 60 188 60 104 q 75 276 60 232 q 129 354 90 319 q 236 410 168 389 q 410 431 304 431 l 511 431 l 511 469 q 478 603 511 565 q 372 642 446 642 q 299 624 329 642 q 250 583 269 606 q 208 548 229 561 q 165 535 188 535 q 128 549 140 535 q 117 582 117 564 q 139 628 117 611 q 193 660 161 646 q 298 688 240 679 q 400 697 356 697 q 558 669 503 697 q 635 585 614 640 q 657 446 657 529 l 657 65 q 647 17 657 35 q 603 0 636 0 q 538 31 557 0 q 518 131 518 63 l 514 132 m 432 372 q 293 350 343 372 q 224 290 243 328 q 204 207 204 253 q 238 118 204 143 q 325 93 271 93 q 403 110 360 93 q 480 164 447 128 q 513 256 513 200 l 513 372 l 432 372 m 582 949 q 526 824 582 875 q 378 772 471 772 q 231 824 286 772 q 175 949 175 875 q 185 976 175 964 q 213 988 194 988 q 263 950 249 988 q 312 880 282 896 q 378 864 342 864 q 445 880 415 864 q 494 950 475 896 q 544 988 508 988 q 573 976 564 988 q 582 949 582 964 m 293 -182 q 319 -121 293 -146 q 379 -96 344 -96 q 440 -121 415 -96 q 465 -182 465 -146 q 440 -242 465 -217 q 379 -268 415 -268 q 319 -242 344 -268 q 293 -182 293 -217 z "},"ằ":{"ha":758,"x_min":60,"x_max":657,"o":"m 514 132 q 409 32 468 64 q 269 0 350 0 q 112 52 164 0 q 60 188 60 104 q 75 276 60 232 q 129 354 90 319 q 236 410 168 389 q 410 431 304 431 l 511 431 l 511 469 q 478 603 511 565 q 372 642 446 642 q 299 624 329 642 q 250 583 269 606 q 208 548 229 561 q 165 535 188 535 q 128 549 140 535 q 117 582 117 564 q 139 628 117 611 q 193 660 161 646 q 298 688 240 679 q 400 697 356 697 q 558 669 503 697 q 635 585 614 640 q 657 446 657 529 l 657 65 q 647 17 657 35 q 603 0 636 0 q 538 31 557 0 q 518 131 518 63 l 514 132 m 432 372 q 293 350 343 372 q 224 290 243 328 q 204 207 204 253 q 238 118 204 143 q 325 93 271 93 q 403 110 360 93 q 480 164 447 128 q 513 256 513 200 l 513 372 l 432 372 m 582 949 q 526 824 582 875 q 378 772 471 772 q 231 824 286 772 q 175 949 175 875 q 185 976 175 964 q 213 988 194 988 q 263 950 249 988 q 312 880 282 896 q 378 864 342 864 q 445 880 415 864 q 494 950 475 896 q 544 988 508 988 q 573 976 564 988 q 582 949 582 964 m 189 1160 q 185 1172 185 1164 q 205 1197 185 1188 q 260 1206 225 1206 q 308 1197 285 1206 q 339 1169 331 1189 l 411 996 q 414 983 414 990 q 403 964 414 971 q 376 957 392 957 q 325 979 343 957 l 189 1160 z "},"ẳ":{"ha":758,"x_min":60,"x_max":657,"o":"m 514 132 q 409 32 468 64 q 269 0 350 0 q 112 52 164 0 q 60 188 60 104 q 75 276 60 232 q 129 354 90 319 q 236 410 168 389 q 410 431 304 431 l 511 431 l 511 469 q 478 603 511 565 q 372 642 446 642 q 299 624 329 642 q 250 583 269 606 q 208 548 229 561 q 165 535 188 535 q 128 549 140 535 q 117 582 117 564 q 139 628 117 611 q 193 660 161 646 q 298 688 240 679 q 400 697 356 697 q 558 669 503 697 q 635 585 614 640 q 657 446 657 529 l 657 65 q 647 17 657 35 q 603 0 636 0 q 538 31 557 0 q 518 131 518 63 l 514 132 m 432 372 q 293 350 343 372 q 224 290 243 328 q 204 207 204 253 q 238 118 204 143 q 325 93 271 93 q 403 110 360 93 q 480 164 447 128 q 513 256 513 200 l 513 372 l 432 372 m 582 949 q 526 824 582 875 q 378 772 471 772 q 231 824 286 772 q 175 949 175 875 q 185 976 175 964 q 213 988 194 988 q 263 950 249 988 q 312 880 282 896 q 378 864 342 864 q 445 880 415 864 q 494 950 475 896 q 544 988 508 988 q 573 976 564 988 q 582 949 582 964 m 344 999 q 408 1056 386 1036 q 437 1091 429 1076 q 444 1125 444 1106 q 431 1165 444 1149 q 388 1181 417 1181 q 347 1173 363 1181 q 318 1158 331 1165 q 290 1150 306 1150 q 264 1176 264 1150 q 286 1216 264 1200 q 342 1240 308 1232 q 408 1249 375 1249 q 491 1232 461 1249 q 534 1191 521 1215 q 547 1142 547 1167 q 510 1051 547 1092 q 433 971 472 1010 q 406 951 421 957 q 376 946 390 946 q 336 962 350 946 q 344 999 322 978 z "},"ẵ":{"ha":758,"x_min":60,"x_max":657,"o":"m 514 132 q 409 32 468 64 q 269 0 350 0 q 112 52 164 0 q 60 188 60 104 q 75 276 60 232 q 129 354 90 319 q 236 410 168 389 q 410 431 304 431 l 511 431 l 511 469 q 478 603 511 565 q 372 642 446 642 q 299 624 329 642 q 250 583 269 606 q 208 548 229 561 q 165 535 188 535 q 128 549 140 535 q 117 582 117 564 q 139 628 117 611 q 193 660 161 646 q 298 688 240 679 q 400 697 356 697 q 558 669 503 697 q 635 585 614 640 q 657 446 657 529 l 657 65 q 647 17 657 35 q 603 0 636 0 q 538 31 557 0 q 518 131 518 63 l 514 132 m 432 372 q 293 350 343 372 q 224 290 243 328 q 204 207 204 253 q 238 118 204 143 q 325 93 271 93 q 403 110 360 93 q 480 164 447 128 q 513 256 513 200 l 513 372 l 432 372 m 582 949 q 526 824 582 875 q 378 772 471 772 q 231 824 286 772 q 175 949 175 875 q 185 976 175 964 q 213 988 194 988 q 263 950 249 988 q 312 880 282 896 q 378 864 342 864 q 445 880 415 864 q 494 950 475 896 q 544 988 508 988 q 573 976 564 988 q 582 949 582 964 m 294 1104 q 263 1095 272 1104 q 249 1075 253 1086 q 238 1055 244 1064 q 211 1046 231 1046 q 180 1054 188 1046 q 172 1074 172 1063 q 188 1129 172 1099 q 235 1182 204 1160 q 311 1204 267 1204 q 343 1199 322 1203 q 399 1183 364 1196 q 442 1166 422 1174 q 485 1158 463 1158 q 513 1165 504 1158 q 526 1182 521 1172 q 540 1204 533 1193 q 571 1215 547 1215 q 594 1208 588 1215 q 601 1189 601 1200 q 592 1151 601 1171 q 538 1079 569 1100 q 474 1058 506 1058 q 424 1065 446 1058 q 378 1082 401 1072 q 326 1099 344 1094 q 294 1104 308 1104 z "},"ǎ":{"ha":758,"x_min":60,"x_max":657,"o":"m 514 132 q 409 32 468 64 q 269 0 350 0 q 112 52 164 0 q 60 188 60 104 q 75 276 60 232 q 129 354 90 319 q 236 410 168 389 q 410 431 304 431 l 511 431 l 511 469 q 478 603 511 565 q 372 642 446 642 q 299 624 329 642 q 250 583 269 606 q 208 548 229 561 q 165 535 188 535 q 128 549 140 535 q 117 582 117 564 q 139 628 117 611 q 193 660 161 646 q 298 688 240 679 q 400 697 356 697 q 558 669 503 697 q 635 585 614 640 q 657 446 657 529 l 657 65 q 647 17 657 35 q 603 0 636 0 q 538 31 557 0 q 518 131 518 63 l 514 132 m 432 372 q 293 350 343 372 q 224 290 243 328 q 204 207 204 253 q 238 118 204 143 q 325 93 271 93 q 403 110 360 93 q 480 164 447 128 q 513 256 513 200 l 513 372 l 432 372 m 379 874 l 451 946 q 497 978 474 969 q 542 988 521 988 q 580 978 565 988 q 594 958 594 969 q 589 946 594 951 l 447 799 q 417 780 436 786 q 379 774 399 774 q 341 780 360 774 q 311 799 322 786 l 169 946 q 164 958 164 951 q 179 978 164 969 q 217 988 194 988 q 261 978 238 988 q 307 946 285 969 l 379 874 z "},"â":{"ha":758,"x_min":60,"x_max":657,"o":"m 514 132 q 409 32 468 64 q 269 0 350 0 q 112 52 164 0 q 60 188 60 104 q 75 276 60 232 q 129 354 90 319 q 236 410 168 389 q 410 431 304 431 l 511 431 l 511 469 q 478 603 511 565 q 372 642 446 642 q 299 624 329 642 q 250 583 269 606 q 208 548 229 561 q 165 535 188 535 q 128 549 140 535 q 117 582 117 564 q 139 628 117 611 q 193 660 161 646 q 298 688 240 679 q 400 697 356 697 q 558 669 503 697 q 635 585 614 640 q 657 446 657 529 l 657 65 q 647 17 657 35 q 603 0 636 0 q 538 31 557 0 q 518 131 518 63 l 514 132 m 432 372 q 293 350 343 372 q 224 290 243 328 q 204 207 204 253 q 238 118 204 143 q 325 93 271 93 q 403 110 360 93 q 480 164 447 128 q 513 256 513 200 l 513 372 l 432 372 m 379 888 l 307 815 q 261 783 285 793 q 217 774 238 774 q 179 783 194 774 q 164 803 164 792 q 169 815 164 810 l 311 963 q 341 981 322 975 q 379 988 360 988 q 417 981 399 988 q 447 963 436 975 l 589 815 q 594 803 594 810 q 580 783 594 792 q 542 774 565 774 q 497 783 521 774 q 451 815 474 793 l 379 888 z "},"ấ":{"ha":758,"x_min":60,"x_max":711,"o":"m 514 132 q 409 32 468 64 q 269 0 350 0 q 112 52 164 0 q 60 188 60 104 q 75 276 60 232 q 129 354 90 319 q 236 410 168 389 q 410 431 304 431 l 511 431 l 511 469 q 478 603 511 565 q 372 642 446 642 q 299 624 329 642 q 250 583 269 606 q 208 548 229 561 q 165 535 188 535 q 128 549 140 535 q 117 582 117 564 q 139 628 117 611 q 193 660 161 646 q 298 688 240 679 q 400 697 356 697 q 558 669 503 697 q 635 585 614 640 q 657 446 657 529 l 657 65 q 647 17 657 35 q 603 0 636 0 q 538 31 557 0 q 518 131 518 63 l 514 132 m 432 372 q 293 350 343 372 q 224 290 243 328 q 204 207 204 253 q 238 118 204 143 q 325 93 271 93 q 403 110 360 93 q 480 164 447 128 q 513 256 513 200 l 513 372 l 432 372 m 379 888 l 307 815 q 261 783 285 793 q 217 774 238 774 q 179 783 194 774 q 164 803 164 792 q 169 815 164 810 l 311 963 q 341 981 322 975 q 379 988 360 988 q 417 981 399 988 q 447 963 436 975 l 589 815 q 594 803 594 810 q 580 783 594 792 q 542 774 565 774 q 497 783 521 774 q 451 815 474 793 l 379 888 m 585 946 q 538 926 568 926 q 514 933 524 926 q 504 950 504 939 q 507 961 504 957 l 572 1118 q 600 1142 579 1135 q 643 1150 621 1150 q 692 1142 674 1150 q 711 1121 711 1133 q 707 1108 711 1113 l 585 946 z "},"ậ":{"ha":758,"x_min":60,"x_max":657,"o":"m 514 132 q 409 32 468 64 q 269 0 350 0 q 112 52 164 0 q 60 188 60 104 q 75 276 60 232 q 129 354 90 319 q 236 410 168 389 q 410 431 304 431 l 511 431 l 511 469 q 478 603 511 565 q 372 642 446 642 q 299 624 329 642 q 250 583 269 606 q 208 548 229 561 q 165 535 188 535 q 128 549 140 535 q 117 582 117 564 q 139 628 117 611 q 193 660 161 646 q 298 688 240 679 q 400 697 356 697 q 558 669 503 697 q 635 585 614 640 q 657 446 657 529 l 657 65 q 647 17 657 35 q 603 0 636 0 q 538 31 557 0 q 518 131 518 63 l 514 132 m 432 372 q 293 350 343 372 q 224 290 243 328 q 204 207 204 253 q 238 118 204 143 q 325 93 271 93 q 403 110 360 93 q 480 164 447 128 q 513 256 513 200 l 513 372 l 432 372 m 379 888 l 307 815 q 261 783 285 793 q 217 774 238 774 q 179 783 194 774 q 164 803 164 792 q 169 815 164 810 l 311 963 q 341 981 322 975 q 379 988 360 988 q 417 981 399 988 q 447 963 436 975 l 589 815 q 594 803 594 810 q 580 783 594 792 q 542 774 565 774 q 497 783 521 774 q 451 815 474 793 l 379 888 m 293 -182 q 319 -121 293 -146 q 379 -96 344 -96 q 440 -121 415 -96 q 465 -182 465 -146 q 440 -242 465 -217 q 379 -268 415 -268 q 319 -242 344 -268 q 293 -182 293 -217 z "},"ầ":{"ha":758,"x_min":60,"x_max":657,"o":"m 514 132 q 409 32 468 64 q 269 0 350 0 q 112 52 164 0 q 60 188 60 104 q 75 276 60 232 q 129 354 90 319 q 236 410 168 389 q 410 431 304 431 l 511 431 l 511 469 q 478 603 511 565 q 372 642 446 642 q 299 624 329 642 q 250 583 269 606 q 208 548 229 561 q 165 535 188 535 q 128 549 140 535 q 117 582 117 564 q 139 628 117 611 q 193 660 161 646 q 298 688 240 679 q 400 697 356 697 q 558 669 503 697 q 635 585 614 640 q 657 446 657 529 l 657 65 q 647 17 657 35 q 603 0 636 0 q 538 31 557 0 q 518 131 518 63 l 514 132 m 432 372 q 293 350 343 372 q 224 290 243 328 q 204 207 204 253 q 238 118 204 143 q 325 93 271 93 q 403 110 360 93 q 480 164 447 128 q 513 256 513 200 l 513 372 l 432 372 m 379 888 l 307 815 q 261 783 285 793 q 217 774 238 774 q 179 783 194 774 q 164 803 164 792 q 169 815 164 810 l 311 963 q 341 981 322 975 q 379 988 360 988 q 417 981 399 988 q 447 963 436 975 l 589 815 q 594 803 594 810 q 580 783 594 792 q 542 774 565 774 q 497 783 521 774 q 451 815 474 793 l 379 888 m 525 946 l 403 1108 q 400 1121 400 1113 q 418 1142 400 1133 q 467 1150 436 1150 q 510 1142 489 1150 q 538 1118 531 1135 l 603 961 q 606 950 606 957 q 596 933 606 939 q 572 926 586 926 q 525 946 542 926 z "},"ẩ":{"ha":758,"x_min":60,"x_max":738,"o":"m 514 132 q 409 32 468 64 q 269 0 350 0 q 112 52 164 0 q 60 188 60 104 q 75 276 60 232 q 129 354 90 319 q 236 410 168 389 q 410 431 304 431 l 511 431 l 511 469 q 478 603 511 565 q 372 642 446 642 q 299 624 329 642 q 250 583 269 606 q 208 548 229 561 q 165 535 188 535 q 128 549 140 535 q 117 582 117 564 q 139 628 117 611 q 193 660 161 646 q 298 688 240 679 q 400 697 356 697 q 558 669 503 697 q 635 585 614 640 q 657 446 657 529 l 657 65 q 647 17 657 35 q 603 0 636 0 q 538 31 557 0 q 518 131 518 63 l 514 132 m 432 372 q 293 350 343 372 q 224 290 243 328 q 204 207 204 253 q 238 118 204 143 q 325 93 271 93 q 403 110 360 93 q 480 164 447 128 q 513 256 513 200 l 513 372 l 432 372 m 379 888 l 307 815 q 261 783 285 793 q 217 774 238 774 q 179 783 194 774 q 164 803 164 792 q 169 815 164 810 l 311 963 q 341 981 322 975 q 379 988 360 988 q 417 981 399 988 q 447 963 436 975 l 589 815 q 594 803 594 810 q 580 783 594 792 q 542 774 565 774 q 497 783 521 774 q 451 815 474 793 l 379 888 m 535 961 q 598 1019 576 999 q 627 1053 619 1039 q 635 1088 635 1068 q 621 1127 635 1111 q 578 1143 607 1143 q 537 1135 553 1143 q 508 1120 521 1128 q 481 1113 496 1113 q 454 1139 454 1113 q 476 1178 454 1163 q 532 1203 499 1194 q 599 1211 565 1211 q 681 1194 651 1211 q 724 1153 711 1178 q 738 1104 738 1129 q 700 1013 738 1054 q 624 933 663 972 q 596 914 611 919 q 567 908 581 908 q 526 924 540 908 q 535 961 513 940 z "},"ẫ":{"ha":758,"x_min":60,"x_max":657,"o":"m 514 132 q 409 32 468 64 q 269 0 350 0 q 112 52 164 0 q 60 188 60 104 q 75 276 60 232 q 129 354 90 319 q 236 410 168 389 q 410 431 304 431 l 511 431 l 511 469 q 478 603 511 565 q 372 642 446 642 q 299 624 329 642 q 250 583 269 606 q 208 548 229 561 q 165 535 188 535 q 128 549 140 535 q 117 582 117 564 q 139 628 117 611 q 193 660 161 646 q 298 688 240 679 q 400 697 356 697 q 558 669 503 697 q 635 585 614 640 q 657 446 657 529 l 657 65 q 647 17 657 35 q 603 0 636 0 q 538 31 557 0 q 518 131 518 63 l 514 132 m 432 372 q 293 350 343 372 q 224 290 243 328 q 204 207 204 253 q 238 118 204 143 q 325 93 271 93 q 403 110 360 93 q 480 164 447 128 q 513 256 513 200 l 513 372 l 432 372 m 379 888 l 307 815 q 261 783 285 793 q 217 774 238 774 q 179 783 194 774 q 164 803 164 792 q 169 815 164 810 l 311 963 q 341 981 322 975 q 379 988 360 988 q 417 981 399 988 q 447 963 436 975 l 589 815 q 594 803 594 810 q 580 783 594 792 q 542 774 565 774 q 497 783 521 774 q 451 815 474 793 l 379 888 m 286 1076 q 254 1067 264 1076 q 240 1047 244 1058 q 229 1027 236 1036 q 203 1018 222 1018 q 172 1026 179 1018 q 164 1046 164 1035 q 180 1101 164 1071 q 227 1154 196 1132 q 303 1176 258 1176 q 335 1172 314 1175 q 390 1156 356 1168 q 434 1138 414 1146 q 476 1131 454 1131 q 504 1138 496 1131 q 518 1154 513 1144 q 532 1176 525 1165 q 563 1188 539 1188 q 586 1180 579 1188 q 593 1161 593 1172 q 583 1124 593 1143 q 529 1051 561 1072 q 465 1031 497 1031 q 415 1038 438 1031 q 369 1054 393 1044 q 318 1072 336 1067 q 286 1076 300 1076 z "},"ȁ":{"ha":758,"x_min":60,"x_max":657,"o":"m 514 132 q 409 32 468 64 q 269 0 350 0 q 112 52 164 0 q 60 188 60 104 q 75 276 60 232 q 129 354 90 319 q 236 410 168 389 q 410 431 304 431 l 511 431 l 511 469 q 478 603 511 565 q 372 642 446 642 q 299 624 329 642 q 250 583 269 606 q 208 548 229 561 q 165 535 188 535 q 128 549 140 535 q 117 582 117 564 q 139 628 117 611 q 193 660 161 646 q 298 688 240 679 q 400 697 356 697 q 558 669 503 697 q 635 585 614 640 q 657 446 657 529 l 657 65 q 647 17 657 35 q 603 0 636 0 q 538 31 557 0 q 518 131 518 63 l 514 132 m 432 372 q 293 350 343 372 q 224 290 243 328 q 204 207 204 253 q 238 118 204 143 q 325 93 271 93 q 403 110 360 93 q 480 164 447 128 q 513 256 513 200 l 513 372 l 432 372 m 156 994 q 151 1007 151 999 q 169 1031 151 1022 q 219 1040 188 1040 q 263 1032 242 1040 q 290 1004 283 1024 l 356 831 q 358 818 358 825 q 348 799 358 806 q 324 792 338 792 q 278 814 293 792 l 156 994 m 350 994 q 346 1007 346 999 q 364 1031 346 1022 q 414 1040 382 1040 q 457 1032 436 1040 q 485 1004 478 1024 l 550 831 q 553 818 553 825 q 542 799 553 806 q 518 792 532 792 q 472 814 488 792 l 350 994 z "},"ä":{"ha":758,"x_min":60,"x_max":657,"o":"m 514 132 q 409 32 468 64 q 269 0 350 0 q 112 52 164 0 q 60 188 60 104 q 75 276 60 232 q 129 354 90 319 q 236 410 168 389 q 410 431 304 431 l 511 431 l 511 469 q 478 603 511 565 q 372 642 446 642 q 299 624 329 642 q 250 583 269 606 q 208 548 229 561 q 165 535 188 535 q 128 549 140 535 q 117 582 117 564 q 139 628 117 611 q 193 660 161 646 q 298 688 240 679 q 400 697 356 697 q 558 669 503 697 q 635 585 614 640 q 657 446 657 529 l 657 65 q 647 17 657 35 q 603 0 636 0 q 538 31 557 0 q 518 131 518 63 l 514 132 m 432 372 q 293 350 343 372 q 224 290 243 328 q 204 207 204 253 q 238 118 204 143 q 325 93 271 93 q 403 110 360 93 q 480 164 447 128 q 513 256 513 200 l 513 372 l 432 372 m 158 872 q 183 932 158 907 q 243 957 208 957 q 303 932 278 957 q 328 872 328 907 q 303 813 328 838 q 243 788 278 788 q 183 813 208 788 q 158 872 158 838 m 431 872 q 456 932 431 907 q 515 957 481 957 q 575 932 550 957 q 600 872 600 907 q 575 813 600 838 q 515 788 550 788 q 456 813 481 788 q 431 872 431 838 z "},"ạ":{"ha":758,"x_min":60,"x_max":657,"o":"m 514 132 q 409 32 468 64 q 269 0 350 0 q 112 52 164 0 q 60 188 60 104 q 75 276 60 232 q 129 354 90 319 q 236 410 168 389 q 410 431 304 431 l 511 431 l 511 469 q 478 603 511 565 q 372 642 446 642 q 299 624 329 642 q 250 583 269 606 q 208 548 229 561 q 165 535 188 535 q 128 549 140 535 q 117 582 117 564 q 139 628 117 611 q 193 660 161 646 q 298 688 240 679 q 400 697 356 697 q 558 669 503 697 q 635 585 614 640 q 657 446 657 529 l 657 65 q 647 17 657 35 q 603 0 636 0 q 538 31 557 0 q 518 131 518 63 l 514 132 m 432 372 q 293 350 343 372 q 224 290 243 328 q 204 207 204 253 q 238 118 204 143 q 325 93 271 93 q 403 110 360 93 q 480 164 447 128 q 513 256 513 200 l 513 372 l 432 372 m 293 -182 q 319 -121 293 -146 q 379 -96 344 -96 q 440 -121 415 -96 q 465 -182 465 -146 q 440 -242 465 -217 q 379 -268 415 -268 q 319 -242 344 -268 q 293 -182 293 -217 z "},"à":{"ha":758,"x_min":60,"x_max":657,"o":"m 514 132 q 409 32 468 64 q 269 0 350 0 q 112 52 164 0 q 60 188 60 104 q 75 276 60 232 q 129 354 90 319 q 236 410 168 389 q 410 431 304 431 l 511 431 l 511 469 q 478 603 511 565 q 372 642 446 642 q 299 624 329 642 q 250 583 269 606 q 208 548 229 561 q 165 535 188 535 q 128 549 140 535 q 117 582 117 564 q 139 628 117 611 q 193 660 161 646 q 298 688 240 679 q 400 697 356 697 q 558 669 503 697 q 635 585 614 640 q 657 446 657 529 l 657 65 q 647 17 657 35 q 603 0 636 0 q 538 31 557 0 q 518 131 518 63 l 514 132 m 432 372 q 293 350 343 372 q 224 290 243 328 q 204 207 204 253 q 238 118 204 143 q 325 93 271 93 q 403 110 360 93 q 480 164 447 128 q 513 256 513 200 l 513 372 l 432 372 m 189 994 q 185 1007 185 999 q 205 1031 185 1022 q 260 1040 225 1040 q 308 1032 285 1040 q 339 1004 331 1024 l 411 831 q 414 818 414 825 q 403 799 414 806 q 376 792 392 792 q 325 814 343 792 l 189 994 z "},"ả":{"ha":758,"x_min":60,"x_max":657,"o":"m 514 132 q 409 32 468 64 q 269 0 350 0 q 112 52 164 0 q 60 188 60 104 q 75 276 60 232 q 129 354 90 319 q 236 410 168 389 q 410 431 304 431 l 511 431 l 511 469 q 478 603 511 565 q 372 642 446 642 q 299 624 329 642 q 250 583 269 606 q 208 548 229 561 q 165 535 188 535 q 128 549 140 535 q 117 582 117 564 q 139 628 117 611 q 193 660 161 646 q 298 688 240 679 q 400 697 356 697 q 558 669 503 697 q 635 585 614 640 q 657 446 657 529 l 657 65 q 647 17 657 35 q 603 0 636 0 q 538 31 557 0 q 518 131 518 63 l 514 132 m 432 372 q 293 350 343 372 q 224 290 243 328 q 204 207 204 253 q 238 118 204 143 q 325 93 271 93 q 403 110 360 93 q 480 164 447 128 q 513 256 513 200 l 513 372 l 432 372 m 332 792 q 395 849 374 829 q 424 884 417 869 q 432 918 432 899 q 418 958 432 942 q 375 974 404 974 q 334 966 350 974 q 306 951 318 958 q 278 943 293 943 q 251 969 251 943 q 274 1009 251 993 q 329 1033 296 1025 q 396 1042 363 1042 q 478 1025 449 1042 q 522 984 508 1008 q 535 935 535 960 q 497 844 535 885 q 421 764 460 803 q 393 744 408 750 q 364 739 378 739 q 324 755 338 739 q 332 792 310 771 z "},"ȃ":{"ha":758,"x_min":60,"x_max":657,"o":"m 514 132 q 409 32 468 64 q 269 0 350 0 q 112 52 164 0 q 60 188 60 104 q 75 276 60 232 q 129 354 90 319 q 236 410 168 389 q 410 431 304 431 l 511 431 l 511 469 q 478 603 511 565 q 372 642 446 642 q 299 624 329 642 q 250 583 269 606 q 208 548 229 561 q 165 535 188 535 q 128 549 140 535 q 117 582 117 564 q 139 628 117 611 q 193 660 161 646 q 298 688 240 679 q 400 697 356 697 q 558 669 503 697 q 635 585 614 640 q 657 446 657 529 l 657 65 q 647 17 657 35 q 603 0 636 0 q 538 31 557 0 q 518 131 518 63 l 514 132 m 432 372 q 293 350 343 372 q 224 290 243 328 q 204 207 204 253 q 238 118 204 143 q 325 93 271 93 q 403 110 360 93 q 480 164 447 128 q 513 256 513 200 l 513 372 l 432 372 m 582 811 q 573 784 582 796 q 544 772 564 772 q 494 810 508 772 q 445 880 475 864 q 378 896 415 896 q 312 880 342 896 q 263 810 282 864 q 213 772 249 772 q 185 784 194 772 q 175 811 175 796 q 231 936 175 885 q 378 988 286 988 q 526 936 471 988 q 582 811 582 885 z "},"ā":{"ha":758,"x_min":60,"x_max":657,"o":"m 514 132 q 409 32 468 64 q 269 0 350 0 q 112 52 164 0 q 60 188 60 104 q 75 276 60 232 q 129 354 90 319 q 236 410 168 389 q 410 431 304 431 l 511 431 l 511 469 q 478 603 511 565 q 372 642 446 642 q 299 624 329 642 q 250 583 269 606 q 208 548 229 561 q 165 535 188 535 q 128 549 140 535 q 117 582 117 564 q 139 628 117 611 q 193 660 161 646 q 298 688 240 679 q 400 697 356 697 q 558 669 503 697 q 635 585 614 640 q 657 446 657 529 l 657 65 q 647 17 657 35 q 603 0 636 0 q 538 31 557 0 q 518 131 518 63 l 514 132 m 432 372 q 293 350 343 372 q 224 290 243 328 q 204 207 204 253 q 238 118 204 143 q 325 93 271 93 q 403 110 360 93 q 480 164 447 128 q 513 256 513 200 l 513 372 l 432 372 m 203 829 q 179 841 189 829 q 169 871 169 853 q 179 902 169 890 q 203 914 189 914 l 556 914 q 578 902 568 914 q 589 871 589 890 q 556 829 589 829 l 203 829 z "},"ą":{"ha":758,"x_min":60,"x_max":826,"o":"m 514 132 q 409 32 468 64 q 269 0 350 0 q 112 52 164 0 q 60 188 60 104 q 75 276 60 232 q 129 354 90 319 q 236 410 168 389 q 410 431 304 431 l 511 431 l 511 469 q 478 603 511 565 q 372 642 446 642 q 299 624 329 642 q 250 583 269 606 q 208 548 229 561 q 165 535 188 535 q 128 549 140 535 q 117 582 117 564 q 139 628 117 611 q 193 660 161 646 q 298 688 240 679 q 400 697 356 697 q 558 669 503 697 q 635 585 614 640 q 657 446 657 529 l 657 65 q 647 17 657 35 q 603 0 636 0 q 538 31 557 0 q 518 131 518 63 l 514 132 m 432 372 q 293 350 343 372 q 224 290 243 328 q 204 207 204 253 q 238 118 204 143 q 325 93 271 93 q 403 110 360 93 q 480 164 447 128 q 513 256 513 200 l 513 372 l 432 372 m 756 14 q 672 -76 696 -36 q 649 -149 649 -115 q 665 -192 649 -175 q 707 -208 681 -208 q 748 -201 733 -208 q 774 -185 763 -193 q 800 -178 785 -178 q 826 -204 826 -178 q 801 -244 826 -228 q 741 -268 776 -260 q 674 -276 706 -276 q 572 -240 601 -276 q 543 -162 543 -204 q 682 14 543 -65 l 756 14 z "},"å":{"ha":758,"x_min":60,"x_max":657,"o":"m 514 132 q 409 32 468 64 q 269 0 350 0 q 112 52 164 0 q 60 188 60 104 q 75 276 60 232 q 129 354 90 319 q 236 410 168 389 q 410 431 304 431 l 511 431 l 511 469 q 478 603 511 565 q 372 642 446 642 q 299 624 329 642 q 250 583 269 606 q 208 548 229 561 q 165 535 188 535 q 128 549 140 535 q 117 582 117 564 q 139 628 117 611 q 193 660 161 646 q 298 688 240 679 q 400 697 356 697 q 558 669 503 697 q 635 585 614 640 q 657 446 657 529 l 657 65 q 647 17 657 35 q 603 0 636 0 q 538 31 557 0 q 518 131 518 63 l 514 132 m 432 372 q 293 350 343 372 q 224 290 243 328 q 204 207 204 253 q 238 118 204 143 q 325 93 271 93 q 403 110 360 93 q 480 164 447 128 q 513 256 513 200 l 513 372 l 432 372 m 229 919 q 272 1026 229 983 q 379 1069 315 1069 q 485 1026 442 1069 q 529 919 529 983 q 485 813 529 857 q 379 769 442 769 q 272 813 315 769 q 229 919 229 857 m 306 919 q 328 869 306 890 q 379 847 350 847 q 429 869 407 847 q 451 919 451 890 q 429 971 451 949 q 379 993 407 993 q 328 971 350 993 q 306 919 306 949 z "},"ǻ":{"ha":758,"x_min":60,"x_max":700,"o":"m 514 132 q 409 32 468 64 q 269 0 350 0 q 112 52 164 0 q 60 188 60 104 q 75 276 60 232 q 129 354 90 319 q 236 410 168 389 q 410 431 304 431 l 511 431 l 511 469 q 478 603 511 565 q 372 642 446 642 q 299 624 329 642 q 250 583 269 606 q 208 548 229 561 q 165 535 188 535 q 128 549 140 535 q 117 582 117 564 q 139 628 117 611 q 193 660 161 646 q 298 688 240 679 q 400 697 356 697 q 558 669 503 697 q 635 585 614 640 q 657 446 657 529 l 657 65 q 647 17 657 35 q 603 0 636 0 q 538 31 557 0 q 518 131 518 63 l 514 132 m 432 372 q 293 350 343 372 q 224 290 243 328 q 204 207 204 253 q 238 118 204 143 q 325 93 271 93 q 403 110 360 93 q 480 164 447 128 q 513 256 513 200 l 513 372 l 432 372 m 229 919 q 272 1026 229 983 q 379 1069 315 1069 q 485 1026 442 1069 q 529 919 529 983 q 485 813 529 857 q 379 769 442 769 q 272 813 315 769 q 229 919 229 857 m 306 919 q 328 869 306 890 q 379 847 350 847 q 429 869 407 847 q 451 919 451 890 q 429 971 451 949 q 379 993 407 993 q 328 971 350 993 q 306 919 306 949 m 574 1068 q 526 1049 557 1049 q 503 1055 513 1049 q 493 1072 493 1061 q 496 1083 493 1079 l 561 1240 q 589 1265 568 1257 q 632 1272 610 1272 q 681 1264 663 1272 q 700 1243 700 1256 q 696 1231 700 1235 l 574 1068 z "}}}
